<?xml version="1.0" standalone="no"?>
<!DOCTYPE svg PUBLIC "-//W3C//DTD SVG 1.1//EN" "http://www.w3.org/Graphics/SVG/1.1/DTD/svg11.dtd" >
<svg xmlns="http://www.w3.org/2000/svg" xmlns:xlink="http://www.w3.org/1999/xlink" version="1.1">
<metadata></metadata>
<defs>
<font id="umabold" horiz-adv-x="1193" >
<font-face units-per-em="2048" ascent="1638" descent="-410" />
<missing-glyph horiz-adv-x="624" />
<glyph unicode="&#xfb01;" horiz-adv-x="1144" d="M61 907q0 31 23 53.5t55 22.5h74v135q0 144 95.5 239t248.5 95q32 0 54 -22.5t22 -53.5q0 -32 -22 -55t-54 -23q-98 0 -144 -48.5t-46 -131.5v-135h559q35 0 58.5 -22.5t23.5 -55.5v-829q0 -32 -22.5 -55t-53.5 -23q-32 0 -55 23t-23 55v753h-487v-753q0 -32 -23 -54 t-55 -22q-31 0 -53.5 22t-22.5 54v753h-74q-32 0 -55 23t-23 55zM840 1255q0 38 27 65.5t65 27.5q37 0 63.5 -27.5t26.5 -65.5q0 -37 -26.5 -63.5t-63.5 -26.5q-38 0 -65 26.5t-27 63.5z" />
<glyph horiz-adv-x="0" />
<glyph horiz-adv-x="682" />
<glyph unicode=" "  horiz-adv-x="624" />
<glyph unicode="&#x09;" horiz-adv-x="624" />
<glyph unicode="&#xa0;" horiz-adv-x="624" />
<glyph unicode="!" horiz-adv-x="542" d="M164 106q0 44 32 76.5t76 32.5t75.5 -32.5t31.5 -76.5t-31.5 -75t-75.5 -31t-76 31t-32 75zM195 395v979q0 32 22.5 54t54.5 22q31 0 53.5 -22t22.5 -54v-979q0 -32 -22.5 -55t-53.5 -23q-32 0 -54.5 23t-22.5 55z" />
<glyph unicode="&#x22;" horiz-adv-x="768" d="M164 1055v319q0 32 23 54t55 22q31 0 53 -22t22 -54v-319q0 -32 -22 -55t-53 -23q-32 0 -55 23t-23 55zM451 1055v319q0 32 22.5 54t54.5 22q31 0 53.5 -22t22.5 -54v-319q0 -32 -22.5 -55t-53.5 -23q-32 0 -54.5 23t-22.5 55z" />
<glyph unicode="#" horiz-adv-x="1370" d="M164 600q0 32 23 54t55 22h221l33 88h-172q-31 0 -53.5 23t-22.5 55q0 31 22.5 53.5t53.5 22.5h227l178 485q7 23 27.5 36t44.5 13q33 0 55.5 -22.5t22.5 -51.5q0 -14 -7 -28l-157 -432h92l180 485q7 23 27 36t45 13q33 0 54.5 -23t21.5 -55q0 -4 -5 -24l-159 -432h159 q32 0 54 -22.5t22 -53.5q0 -32 -22 -55t-54 -23h-217l-30 -88h164q32 0 54.5 -22t22.5 -54q0 -31 -22.5 -53.5t-54.5 -22.5h-222l-174 -475q-19 -49 -71 -49q-34 0 -55 22.5t-21 53.5q0 18 4 26l154 422h-93l-174 -475q-19 -49 -71 -49q-34 0 -56 23t-22 53q0 18 4 26 l156 422h-164q-32 0 -55 22.5t-23 53.5zM625 676h94l33 88h-95z" />
<glyph unicode="$" horiz-adv-x="1126" d="M164 383q0 30 21.5 52t54.5 22q45 0 69 -41q58 -95 168 -115v383q-147 28 -225 102t-78 191q0 127 83 213.5t220 105.5v80q0 32 22.5 55t53.5 23q32 0 55 -23t23 -55v-80q59 -9 114.5 -33.5t105.5 -73.5t69 -114q4 -16 4 -22q0 -30 -23 -53t-57 -23q-25 0 -41 13.5 t-28 34.5t-26 43t-44 42.5t-74 30.5v-330q70 -15 127 -39.5t104.5 -62t74 -94.5t26.5 -128q0 -138 -90.5 -229t-241.5 -113v-67q0 -32 -23 -55t-55 -23q-31 0 -53.5 23t-22.5 55v67q-107 14 -188 67.5t-117 137.5q-8 13 -8 33zM328 985q0 -39 8.5 -59.5t30.5 -38.5 q33 -27 110 -47v301q-73 -15 -111 -56t-38 -100zM631 301q180 39 180 180q0 69 -39.5 107.5t-140.5 64.5v-352z" />
<glyph unicode="%" horiz-adv-x="1294" d="M164 1055q0 85 59 143.5t144 58.5q84 0 143 -59t59 -143q0 -83 -59.5 -143t-142.5 -60q-84 0 -143.5 59.5t-59.5 143.5zM315 1055q0 -20 15 -34.5t37 -14.5q20 0 34.5 14.5t14.5 34.5q0 22 -14.5 36.5t-34.5 14.5q-22 0 -37 -14.5t-15 -36.5zM332 78q0 18 4 26l479 1299 q7 23 27 36t45 13q33 0 54.5 -23t21.5 -55q0 -4 -5 -24l-479 -1299q-9 -23 -28.5 -37t-42.5 -14q-31 0 -53.5 24t-22.5 54zM725 369q0 85 59 143.5t144 58.5t143.5 -58.5t58.5 -143.5q0 -84 -59 -143.5t-143 -59.5t-143.5 59.5t-59.5 143.5zM879 369q0 -20 14.5 -35 t34.5 -15t34.5 15t14.5 35q0 22 -14.5 36.5t-34.5 14.5t-34.5 -14.5t-14.5 -36.5z" />
<glyph unicode="&#x26;" horiz-adv-x="1351" d="M164 444q0 119 60 223t159 177q-123 174 -123 317q0 136 96 227t262 91q130 0 227 -91t97 -217q0 -220 -330 -378l361 -492q63 109 63 231q0 15 -3 31.5t-3 20.5q0 31 22 54.5t54 23.5q48 0 65 -34t17 -96q0 -86 -28.5 -182t-90.5 -180l49 -64q15 -21 15 -45 q0 -31 -22.5 -54t-53.5 -23q-36 0 -62 32l-37 47q-128 -86 -292 -86q-114 0 -210 38.5t-159 103.5t-98 149t-35 176zM317 444q0 -143 99 -228t250 -85q117 0 202 55l-393 535q-72 -52 -115 -125.5t-43 -151.5zM414 1161q0 -97 104 -243q144 65 207 127.5t63 128.5 q0 61 -54 106t-134 45q-85 0 -135.5 -43.5t-50.5 -120.5z" />
<glyph unicode="'" horiz-adv-x="481" d="M164 1055v319q0 32 23 54t55 22q31 0 53 -22t22 -54v-319q0 -32 -22 -55t-53 -23q-32 0 -55 23t-23 55z" />
<glyph unicode="(" horiz-adv-x="675" d="M164 723q0 181 52.5 368t152.5 349q21 37 65 37q32 0 55 -24t23 -54q0 -21 -12 -39q-89 -144 -136 -310.5t-47 -326.5q0 -161 47 -324.5t136 -302.5q12 -18 12 -41q0 -31 -23 -53t-53 -22q-41 0 -65 34q-101 157 -154 342t-53 367z" />
<glyph unicode=")" horiz-adv-x="675" d="M164 55q0 23 12 41q89 138 135.5 301.5t46.5 325.5q0 160 -46.5 327t-135.5 310q-12 18 -12 39q0 30 23 54t55 24q44 0 65 -37q100 -162 152.5 -349t52.5 -368q0 -182 -53 -367t-154 -342q-24 -34 -65 -34q-30 0 -53 22t-23 53z" />
<glyph unicode="*" horiz-adv-x="1218" d="M166 1059q0 31 23 53.5t55 22.5h233l-117 202q-10 15 -10 39q0 30 22 53t54 23q43 0 66 -37l118 -203l117 203q23 37 66 37q33 0 55 -24t22 -54q0 -17 -10 -37l-119 -202h236q31 0 53.5 -22.5t22.5 -53.5q0 -32 -22.5 -55t-53.5 -23h-236l119 -203q10 -20 10 -37 q0 -30 -21.5 -53.5t-55.5 -23.5q-45 0 -66 38l-117 203l-118 -203q-21 -38 -66 -38q-33 0 -54.5 23.5t-21.5 53.5q0 22 10 37l117 203h-233q-32 0 -55 23t-23 55z" />
<glyph unicode="+" horiz-adv-x="1314" d="M164 492q0 32 22.5 54.5t53.5 22.5h340v338q0 32 22 55t53 23q32 0 55 -23t23 -55v-338h338q32 0 55 -22.5t23 -54.5q0 -31 -23 -53.5t-55 -22.5h-338v-340q0 -31 -23 -53.5t-55 -22.5q-31 0 -53 22.5t-22 53.5v340h-340q-31 0 -53.5 22.5t-22.5 53.5z" />
<glyph unicode="," horiz-adv-x="577" d="M123 -98q0 22 8 35l137 274q18 41 70 41q33 0 54.5 -23t21.5 -53q0 -22 -8 -35l-140 -274q-21 -41 -67 -41q-33 0 -54.5 23t-21.5 53z" />
<glyph unicode="-" horiz-adv-x="1075" d="M164 543q0 32 23 55t55 23h592q32 0 54.5 -23t22.5 -55q0 -31 -22.5 -53.5t-54.5 -22.5h-592q-32 0 -55 22.5t-23 53.5z" />
<glyph unicode="." horiz-adv-x="542" d="M164 109q0 44 31 75t75 31q45 0 77 -31t32 -75t-32.5 -76.5t-76.5 -32.5t-75 32t-31 77z" />
<glyph unicode="/" horiz-adv-x="796" d="M82 76q0 13 6 28l477 1299q7 22 28 35.5t44 13.5q33 0 55.5 -22.5t22.5 -51.5q0 -16 -6 -28l-478 -1299q-9 -23 -28.5 -37t-42.5 -14q-31 0 -54.5 23.5t-23.5 52.5z" />
<glyph unicode="0" horiz-adv-x="1331" d="M133 727q0 118 15 221.5t52.5 202t96.5 168t152.5 112t214.5 42.5t215 -42.5t153 -112t97.5 -168t53.5 -202t15 -221.5q0 -119 -14.5 -222t-52 -202.5t-95.5 -169.5t-151.5 -113t-214.5 -43t-215.5 43t-154 113.5t-98 169t-54 202.5t-15.5 222zM287 727q0 -89 9 -167 t34 -160t66 -139.5t110 -94.5t160 -37q76 0 137 25t102 70t69.5 101t44 126.5t22 136.5t6.5 139t-6.5 138.5t-22 135t-44 125t-69.5 100t-102 69t-137 24.5t-137 -24.5t-101.5 -69t-69 -100t-43.5 -125t-21.5 -135t-6.5 -138.5z" />
<glyph unicode="1" horiz-adv-x="698" d="M61 1067q0 30 23 53l311 310q19 22 51 22q33 0 55.5 -22.5t22.5 -55.5v-1298q0 -31 -21.5 -53.5t-53.5 -22.5t-54 22.5t-22 53.5v1114l-180 -176q-23 -23 -56 -23q-30 0 -53 22t-23 54z" />
<glyph unicode="2" horiz-adv-x="1079" d="M61 76q0 26 21 51l651 739q46 53 66 98t20 97q0 118 -77.5 189t-217.5 71q-142 0 -218.5 -71.5t-76.5 -188.5q0 -32 -22 -55t-53 -23q-32 0 -55 23t-23 55q0 179 125 295.5t323 116.5q201 0 324 -116t123 -298q0 -159 -121 -293l-543 -612h615q31 0 53 -23t22 -55 q0 -31 -22 -53.5t-53 -22.5h-783q-32 0 -55 21.5t-23 54.5z" />
<glyph unicode="3" horiz-adv-x="1216" d="M123 408q0 32 22.5 53.5t53.5 21.5q32 0 54.5 -21.5t22.5 -53.5q0 -122 87.5 -199.5t244.5 -77.5t244.5 76.5t87.5 200.5q0 123 -87.5 199.5t-244.5 76.5q-36 0 -56 23.5t-20 52.5q0 32 21.5 55t54.5 23q141 0 217 66.5t76 174.5q0 110 -77.5 177t-215.5 67 q-140 0 -216.5 -68t-76.5 -176q0 -31 -22.5 -53t-54.5 -22q-31 0 -53.5 22t-22.5 53q0 174 125 286t321 112q194 0 320.5 -111t126.5 -287q0 -97 -42 -179t-120 -134q97 -62 149 -153.5t52 -204.5q0 -188 -135 -308t-351 -120q-213 0 -349 119t-136 309z" />
<glyph unicode="4" horiz-adv-x="1116" d="M41 500q0 25 16 47l697 876q23 29 61 29q31 0 53.5 -24t22.5 -54v-799h108q32 0 54 -22.5t22 -54.5q0 -31 -22 -53.5t-54 -22.5h-108v-346q0 -32 -23 -55t-55 -23q-31 0 -53.5 23t-22.5 55v346h-618q-33 0 -55.5 22.5t-22.5 55.5zM276 575h461v580z" />
<glyph unicode="5" horiz-adv-x="1243" d="M164 365q0 31 23 53t55 22q29 0 49.5 -17.5t25.5 -45.5q18 -113 104.5 -180.5t227.5 -67.5q155 0 246.5 93t91.5 229q0 133 -90 215t-246 82q-198 0 -289 -130q-21 -34 -63 -34q-31 0 -53.5 23t-22.5 55v712q0 31 22 54.5t54 23.5h668q31 0 53 -23t22 -55 q0 -31 -22 -53.5t-53 -22.5h-590v-467q118 70 274 70q214 0 352 -127t138 -323q0 -96 -36 -182t-99 -151t-156 -103t-201 -38q-192 0 -324.5 103t-158.5 272q0 2 -1 6.5t-1 6.5z" />
<glyph unicode="6" horiz-adv-x="1218" d="M133 731q0 744 514 744q134 0 242.5 -63.5t173.5 -162.5q12 -18 12 -43q0 -30 -22 -53t-54 -23q-42 0 -63 35q-45 68 -120 112t-169 44q-64 0 -116.5 -18.5t-88.5 -48t-63.5 -74.5t-43.5 -90.5t-27 -103t-15 -104t-6 -102.5q59 59 156 90t204 31q214 0 352 -127t138 -323 q0 -200 -139 -337t-343 -137q-94 0 -170.5 24t-129.5 64t-93.5 99t-64.5 122.5t-39 142.5t-20 150t-5 152zM307 473q50 -344 352 -344q139 0 231.5 94.5t92.5 227.5q0 134 -89.5 215.5t-246.5 81.5q-159 0 -248 -73.5t-92 -201.5z" />
<glyph unicode="7" horiz-adv-x="1120" d="M41 1374q0 32 22 55t54 23h887q31 0 53 -22.5t22 -55.5q0 -20 -8 -33l-643 -1300q-19 -43 -68 -43q-33 0 -55 23t-22 55q0 20 8 33l590 1189h-764q-32 0 -54 22.5t-22 53.5z" />
<glyph unicode="8" horiz-adv-x="1304" d="M123 406q0 114 57 207t160 149q-83 55 -128.5 136.5t-45.5 178.5q0 177 137 286.5t348 109.5q214 0 351 -110t137 -286q0 -98 -46 -178t-130 -137q100 -51 159.5 -147.5t59.5 -208.5q0 -192 -149.5 -310.5t-381.5 -118.5q-233 0 -380.5 119t-147.5 310zM276 406 q0 -120 99 -198.5t276 -78.5t277 78.5t100 198.5q0 121 -99 198.5t-278 77.5t-277 -77t-98 -199zM319 1077q0 -106 85.5 -174.5t246.5 -68.5t247.5 68.5t86.5 174.5q0 105 -87 174.5t-247 69.5t-246 -69t-86 -175z" />
<glyph unicode="9" horiz-adv-x="1251" d="M123 1014q0 130 65.5 235.5t177.5 164.5t248 59q504 0 504 -717q0 -81 -6 -155t-22 -154t-41 -147t-66 -127.5t-93.5 -103t-126 -67.5t-161.5 -25q-142 0 -253.5 66t-174.5 168q-12 18 -12 41q0 30 21.5 53t54.5 23q44 0 65 -35q46 -73 122.5 -117.5t176.5 -44.5 q63 0 115 18.5t87.5 48t63.5 73.5t44.5 88.5t27.5 101t16 102t7 99.5q-133 -113 -363 -113q-217 0 -347 132.5t-130 332.5zM276 999q0 -133 91 -215t254 -82q154 0 239.5 71t91.5 196q-38 352 -348 352q-139 0 -233.5 -94t-94.5 -228z" />
<glyph unicode=":" horiz-adv-x="542" d="M164 109q0 44 31 75t75 31q45 0 77 -31t32 -75t-32.5 -76.5t-76.5 -32.5t-75 32t-31 77zM164 502q0 44 31 75t75 31q45 0 77 -31t32 -75t-32.5 -76.5t-76.5 -32.5t-75 32t-31 77z" />
<glyph unicode=";" horiz-adv-x="608" d="M123 -98q0 22 8 35l137 274q18 41 70 41q33 0 54.5 -23t21.5 -53q0 -22 -8 -35l-140 -274q-21 -41 -67 -41q-33 0 -54.5 23t-21.5 53zM229 502q0 44 32 75t77 31q44 0 75 -31t31 -75q0 -45 -31 -77t-75 -32t-76.5 32.5t-32.5 76.5z" />
<glyph unicode="&#x3c;" horiz-adv-x="1247" d="M164 729q0 51 43 70l768 358q20 8 33 8q29 0 52 -22t23 -56q0 -22 -11.5 -41t-31.5 -28l-618 -289l618 -289q20 -9 31.5 -28t11.5 -41q0 -33 -23 -54.5t-52 -21.5q-20 0 -33 8l-768 356q-20 9 -31.5 29t-11.5 41z" />
<glyph unicode="=" horiz-adv-x="1413" d="M164 379q0 32 22 55t54 23h934q32 0 53.5 -22.5t21.5 -55.5q0 -31 -21.5 -53.5t-53.5 -22.5h-934q-32 0 -54 22.5t-22 53.5zM164 686q0 31 22 53.5t54 22.5h934q32 0 53.5 -22.5t21.5 -53.5q0 -33 -21.5 -55.5t-53.5 -22.5h-934q-32 0 -54 23t-22 55z" />
<glyph unicode="&#x3e;" horiz-adv-x="1247" d="M174 371q0 22 11.5 41t31.5 28l619 289l-619 289q-20 9 -31.5 28t-11.5 41q0 34 23.5 56t52.5 22q13 0 33 -8l768 -358q43 -19 43 -70q0 -21 -11.5 -41t-31.5 -29l-768 -356q-13 -8 -33 -8q-29 0 -52.5 22t-23.5 54z" />
<glyph unicode="?" horiz-adv-x="1134" d="M82 1114q0 176 131.5 289t333.5 113q204 0 334.5 -105.5t130.5 -284.5q0 -125 -62.5 -219t-193.5 -178q-124 -79 -158.5 -139.5t-34.5 -194.5q0 -32 -23 -55t-55 -23q-31 0 -53 23t-22 55q0 117 27 198t81.5 141t153.5 124q109 71 147.5 126t38.5 142q0 111 -80 173.5 t-231 62.5q-150 0 -232 -70.5t-82 -183.5q0 -32 -22 -54t-53 -22q-35 0 -55.5 23.5t-20.5 58.5zM383 106q0 44 32.5 76.5t76.5 32.5t75 -32t31 -77q0 -44 -31 -75t-75 -31q-45 0 -77 31t-32 75z" />
<glyph unicode="@" horiz-adv-x="1822" d="M164 725q0 152 59 291t159.5 239t238.5 159t290 59q153 0 291.5 -59t238.5 -159t159 -238.5t59 -291.5q0 -55 -17.5 -123t-51 -137t-95 -115.5t-137.5 -46.5q-59 0 -111 28.5t-80 80.5q-107 -99 -254 -99q-170 0 -275.5 118.5t-105.5 293.5q0 174 104.5 293t270.5 119 q135 0 236 -76q16 51 71 51q31 0 53.5 -22.5t22.5 -53.5v-504q0 -26 8.5 -43t22 -23t21.5 -7.5t16 -1.5q38 0 74 48t55.5 109.5t19.5 110.5q0 161 -80 298.5t-217.5 217.5t-298.5 80t-298 -80t-216.5 -217.5t-79.5 -298.5t79.5 -298t216.5 -216.5t298 -79.5t299 80 q20 10 37 10q30 0 54 -21.5t24 -54.5q0 -41 -39 -67q-66 -46 -176.5 -73.5t-198.5 -27.5q-152 0 -290 59.5t-238.5 159.5t-159.5 238.5t-59 290.5zM686 725q0 -118 59.5 -188t165.5 -70q103 0 164.5 69.5t61.5 188.5q0 122 -60.5 191t-165.5 69t-165 -70.5t-60 -189.5z" />
<glyph unicode="A" horiz-adv-x="1366" d="M61 76q0 13 7 30l544 1297q21 49 72 49q49 0 70 -49l544 -1297q7 -17 7 -30q0 -32 -24.5 -54t-55.5 -22q-42 0 -66 47l-172 399h-608l-172 -399q-24 -47 -66 -47q-31 0 -55.5 22t-24.5 54zM440 600h486l-244 578z" />
<glyph unicode="B" horiz-adv-x="1308" d="M174 78v1296q0 31 22 54.5t54 23.5h495q178 0 293 -108.5t115 -276.5q0 -183 -145 -305q88 -52 133 -145.5t45 -206.5q0 -180 -124.5 -295t-316.5 -115h-495q-31 0 -53.5 24t-22.5 54zM328 154h417q136 0 212.5 72.5t76.5 191.5t-76.5 191.5t-212.5 72.5h-417v-528z M328 836h417q122 0 188 63t66 168t-66 168t-188 63h-417v-462z" />
<glyph unicode="C" horiz-adv-x="1308" d="M123 727q0 217 64 385.5t190.5 266.5t298.5 98q182 0 314.5 -106.5t191.5 -293.5q4 -16 4 -24q0 -31 -22.5 -53.5t-55.5 -22.5q-25 0 -45 14.5t-27 38.5q-94 293 -360 293q-182 0 -292 -157t-110 -439q0 -294 107.5 -445t294.5 -151q259 0 356 279q7 23 28.5 37t45.5 14 q32 0 54 -24.5t22 -53.5q0 -9 -4 -25q-63 -181 -194.5 -279.5t-311.5 -98.5q-125 0 -230.5 53t-175.5 151q-143 198 -143 543z" />
<glyph unicode="D" horiz-adv-x="1323" d="M174 78v1298q0 32 23 55t55 23h405q122 0 217 -40t155.5 -107.5t99.5 -162.5t55 -197t16 -220q0 -362 -144 -544.5t-399 -182.5h-405q-32 0 -55 23t-23 55zM328 154h329q96 0 167.5 33.5t113.5 86t67.5 130.5t34.5 154t9 169q0 160 -26.5 272t-78.5 177.5t-122 94.5 t-165 29h-329v-1146z" />
<glyph unicode="E" horiz-adv-x="1269" d="M174 78v1298q0 32 23 55t55 23h797q31 0 53 -23t22 -55q0 -31 -22 -53.5t-53 -22.5h-721v-464h653q32 0 55 -22.5t23 -53.5q0 -32 -23 -55t-55 -23h-653v-528h741q32 0 55 -22.5t23 -53.5q0 -32 -23 -55t-55 -23h-817q-32 0 -55 23t-23 55z" />
<glyph unicode="F" horiz-adv-x="1290" d="M174 78v1298q0 32 23 55t55 23h840q32 0 53.5 -22.5t21.5 -55.5q0 -31 -21.5 -53.5t-53.5 -22.5h-764v-464h676q32 0 53.5 -22.5t21.5 -53.5q0 -33 -21.5 -55.5t-53.5 -22.5h-676v-604q0 -32 -22 -55t-54 -23t-55 23t-23 55z" />
<glyph unicode="G" horiz-adv-x="1329" d="M123 731q0 362 142.5 554t400.5 192q174 0 303 -99t188 -276q4 -16 4 -23q0 -31 -22.5 -54.5t-55.5 -23.5q-55 0 -71 54q-93 268 -346 268q-95 -1 -166 -34t-122 -104.5t-76.5 -188t-25.5 -279.5q0 -586 390 -586q376 0 387 551h-381q-31 0 -53.5 23t-22.5 55 q0 31 22.5 53.5t53.5 22.5h458q31 0 53.5 -22t22.5 -54v-29q0 -363 -141.5 -557t-398.5 -194t-400 192.5t-143 558.5z" />
<glyph unicode="H" horiz-adv-x="1304" d="M174 78v1298q0 32 22 55t54 23t55 -23t23 -55v-540h649v540q0 32 23 55t55 23q31 0 53 -23t22 -55v-1298q0 -33 -20.5 -55.5t-52.5 -22.5t-56 23t-24 55v604h-649v-604q0 -32 -22 -55t-54 -23t-55 23t-23 55z" />
<glyph unicode="I" horiz-adv-x="915" d="M82 78q0 33 24 54.5t52 21.5h223v1146h-223q-33 0 -54.5 24.5t-21.5 57.5q3 29 24.5 50.5t51.5 21.5h598q32 0 55 -23t23 -55q0 -31 -23 -53.5t-55 -22.5h-221v-1146h221q32 0 55 -22.5t23 -53.5q0 -32 -23 -55t-55 -23h-598q-31 0 -53.5 23t-22.5 55z" />
<glyph unicode="J" horiz-adv-x="1146" d="M61 319q0 30 22.5 53t55.5 23q24 0 44.5 -13.5t27.5 -37.5q34 -101 111 -157t186 -56q148 0 234.5 100t86.5 267v884q0 31 22.5 53.5t53.5 22.5q32 0 55 -22.5t23 -53.5v-884q0 -145 -57.5 -262.5t-167 -186.5t-250.5 -69q-159 0 -273.5 82t-168.5 233q-5 20 -5 24z" />
<glyph unicode="K" horiz-adv-x="1251" d="M174 78v1300q0 31 22.5 53.5t53.5 22.5q32 0 55 -22.5t23 -53.5v-575l630 629q20 20 54 20q32 0 55 -22.5t23 -53.5q0 -30 -23 -53l-516 -512l579 -684q19 -22 19 -51q0 -30 -23 -53t-53 -23q-33 0 -59 29l-572 673l-114 -116v-508q0 -32 -23 -55t-55 -23q-31 0 -53.5 23 t-22.5 55z" />
<glyph unicode="L" horiz-adv-x="1163" d="M174 78v1298q0 32 23 55t55 23q31 0 53.5 -23t22.5 -55v-1222h676q32 0 54.5 -22.5t22.5 -53.5q0 -32 -22.5 -55t-54.5 -23h-752q-32 0 -55 23t-23 55z" />
<glyph unicode="M" horiz-adv-x="1540" d="M174 78v1298q0 32 23 55t55 23q36 0 59 -29l459 -575l459 575q23 29 59 29q32 0 55 -23t23 -55v-1298q0 -32 -23 -55t-55 -23t-54 23t-22 55v1081l-383 -479q-23 -29 -59 -29t-59 29l-383 479v-1081q0 -32 -22 -55t-54 -23t-55 23t-23 55z" />
<glyph unicode="N" horiz-adv-x="1339" d="M174 76v1300q0 31 23 53.5t55 22.5q42 0 63 -35l699 -1081v1040q0 31 22 53.5t54 22.5t53.5 -22.5t21.5 -53.5v-1300q0 -32 -21 -54t-54 -22q-43 0 -64 35l-698 1081v-1040q0 -32 -22.5 -54t-53.5 -22q-32 0 -55 22t-23 54z" />
<glyph unicode="O" horiz-adv-x="1331" d="M123 731q0 367 140.5 555.5t402.5 188.5q258 0 400 -189.5t142 -554.5q0 -366 -142 -560t-398 -194q-257 0 -401 194t-144 560zM276 731q0 -75 6.5 -142t22 -137t45 -126t71 -101t104.5 -69.5t141 -24.5t141 24.5t104.5 69.5t70.5 100.5t44.5 126.5t22 137.5t6.5 141.5 q0 590 -389 590q-390 0 -390 -590z" />
<glyph unicode="P" horiz-adv-x="1243" d="M174 76v1300q0 30 23 53t53 23h467q171 0 287 -115t116 -286t-116 -286.5t-287 -115.5h-391v-573q0 -30 -22 -53t-54 -23t-54 23t-22 53zM326 803h391q108 0 179 69.5t71 178.5q0 111 -70.5 179t-179.5 68h-391v-495z" />
<glyph unicode="Q" horiz-adv-x="1331" d="M123 731q0 367 140.5 555.5t402.5 188.5q258 0 400 -189.5t142 -554.5q0 -321 -110 -512l90 -88q20 -17 20 -55q0 -33 -22.5 -54.5t-52.5 -21.5q-28 0 -54 23l-75 73l-3 2q-133 -121 -333 -121q-257 0 -401 194t-144 560zM276 731q0 -75 6.5 -142t22 -137t45 -126 t71 -101t104.5 -69.5t141 -24.5q135 0 227 76l-96 98q-23 26 -23 53q0 30 22 53t54 23q33 0 53 -20l82 -82q70 152 70 399q0 590 -389 590q-390 0 -390 -590z" />
<glyph unicode="R" horiz-adv-x="1298" d="M174 76v1300q0 30 23 53t53 23h487q173 0 289.5 -114.5t116.5 -286.5q0 -99 -43 -185t-117 -139q160 -129 160 -326v-180q0 -59 35 -78q39 -22 39 -67q0 -33 -21 -55.5t-51 -22.5q-57 0 -106.5 66.5t-49.5 152.5v184q0 112 -70.5 180t-181.5 68h-409v-573q0 -32 -23 -54 t-55 -22q-31 0 -53.5 22t-22.5 54zM328 803h409q111 0 181.5 69t70.5 179q0 111 -70.5 179t-181.5 68h-409v-495z" />
<glyph unicode="S" horiz-adv-x="1234" d="M123 266q0 31 21.5 54.5t54.5 23.5q21 0 41.5 -13t29.5 -34q33 -76 118.5 -124t215.5 -48q170 0 263.5 76.5t93.5 199.5q0 118 -84.5 182t-282.5 95q-238 37 -347.5 129.5t-109.5 265.5q0 177 132 286t335 109q165 0 289 -76t162 -206q4 -16 4 -23q0 -31 -22 -54.5 t-54 -23.5q-25 0 -45.5 16.5t-28.5 39.5q-62 174 -305 174q-151 0 -233 -69t-82 -173q0 -69 26.5 -113t98.5 -77t202 -54q249 -39 372.5 -141t123.5 -287q0 -194 -142 -311t-370 -117q-166 0 -291.5 70.5t-179.5 194.5q-6 15 -6 28z" />
<glyph unicode="T" horiz-adv-x="1124" d="M41 1376q0 31 22.5 53.5t53.5 22.5h889q32 0 54.5 -22t22.5 -54t-22.5 -54t-54.5 -22h-367v-1224q0 -32 -23 -54t-55 -22q-31 0 -53.5 22t-22.5 54v1224h-368q-32 0 -54 22.5t-22 53.5z" />
<glyph unicode="U" horiz-adv-x="1357" d="M164 481v895q0 32 23 54t55 22q31 0 53 -22t22 -54v-895q0 -170 97 -260t264 -90q171 0 266.5 89t95.5 261v895q0 32 22.5 54t53.5 22q32 0 55 -22t23 -54v-895q0 -232 -145 -368t-371 -136q-145 0 -261 59.5t-184.5 175t-68.5 269.5z" />
<glyph unicode="V" horiz-adv-x="1323" d="M61 1380q0 31 20.5 53.5t53.5 22.5q24 0 44.5 -12.5t29.5 -34.5l453 -1128l452 1128q18 47 72 47q34 0 55 -22.5t21 -53.5q0 -10 -7 -28l-522 -1303q-9 -22 -28.5 -35.5t-42.5 -13.5t-43 13.5t-29 35.5l-522 1303q-7 18 -7 28z" />
<glyph unicode="W" horiz-adv-x="1845" d="M92 1380q0 30 21.5 53t54.5 23q26 0 47.5 -15t28.5 -40l313 -1084l295 768q8 22 27.5 36t44.5 14q22 0 42 -14t29 -36l295 -768l314 1084q7 25 27.5 40t45.5 15q32 0 54 -23.5t22 -52.5q0 -14 -2 -20l-377 -1303q-7 -25 -28 -40t-46 -15q-23 0 -42.5 13.5t-28.5 35.5 l-305 795l-306 -795q-9 -23 -29.5 -36t-45.5 -13q-24 0 -44 16.5t-26 38.5l-377 1303q-4 12 -4 20z" />
<glyph unicode="X" horiz-adv-x="1298" d="M82 78q0 25 14 45l457 608l-455 604q-14 17 -14 45q0 29 22 52.5t54 23.5q36 0 61 -31l428 -567l428 567q22 31 62 31q32 0 53.5 -23.5t21.5 -52.5q0 -28 -14 -45l-455 -604l455 -608q17 -24 17 -47q0 -30 -23 -53t-53 -23q-40 0 -62 31l-430 573l-430 -573 q-25 -31 -61 -31q-31 0 -53.5 24t-22.5 54z" />
<glyph unicode="Y" horiz-adv-x="1210" d="M41 1380q0 29 22 52.5t54 23.5q39 0 61 -31l428 -565l426 565q22 31 62 31q32 0 53.5 -23.5t21.5 -52.5q0 -28 -14 -45l-473 -628v-629q0 -32 -23 -55t-53 -23q-33 0 -55.5 23.5t-22.5 54.5v629l-473 628q-14 17 -14 45z" />
<glyph unicode="Z" horiz-adv-x="1239" d="M82 78q0 22 12 43l819 1179h-733q-32 0 -55 22t-23 54t23 54t55 22h879q31 0 54.5 -22.5t23.5 -55.5q0 -18 -15 -41l-819 -1179h778q32 0 54 -23t22 -55q0 -31 -22 -53.5t-54 -22.5h-923q-32 0 -54 23t-22 55z" />
<glyph unicode="[" horiz-adv-x="718" d="M164 78v1300q0 31 22.5 53.5t53.5 22.5h260q32 0 53.5 -22t21.5 -54t-21.5 -53.5t-53.5 -21.5h-183v-1149h183q32 0 53.5 -22.5t21.5 -53.5q0 -33 -21.5 -55.5t-53.5 -22.5h-260q-32 0 -54 23t-22 55z" />
<glyph unicode="\" horiz-adv-x="960" d="M164 1378q0 29 22.5 51.5t55.5 22.5q23 0 43.5 -13.5t27.5 -35.5l478 -1299q6 -15 6 -28q0 -29 -23.5 -52.5t-54.5 -23.5q-23 0 -43 14t-29 37l-477 1299q-6 12 -6 28z" />
<glyph unicode="]" horiz-adv-x="718" d="M143 78q0 31 22 53.5t54 22.5h182v1149h-182q-32 0 -54 21.5t-22 53.5t22 54t54 22h260q31 0 53.5 -22.5t22.5 -53.5v-1300q0 -32 -22 -55t-54 -23h-260q-32 0 -54 23t-22 55z" />
<glyph unicode="^" horiz-adv-x="950" d="M164 1157q0 33 22 55l242 244q23 23 53 23q33 0 56 -23l237 -235q23 -23 23 -56q0 -32 -23.5 -53.5t-54.5 -21.5q-34 0 -53 22l-185 182l-186 -190q-26 -23 -55 -23q-32 0 -54 23t-22 53z" />
<glyph unicode="_" horiz-adv-x="1585" d="M164 -102q0 32 23 54.5t55 22.5h1099q32 0 55 -22.5t23 -54.5q0 -31 -23 -53.5t-55 -22.5h-1099q-32 0 -55 22.5t-23 53.5z" />
<glyph unicode="`" horiz-adv-x="1341" d="M508 1370q0 29 22 52.5t56 23.5q45 0 67 -39l90 -166q11 -22 11 -37q0 -30 -22 -53t-54 -23q-49 0 -68 39l-92 166q-10 17 -10 37z" />
<glyph unicode="a" horiz-adv-x="1282" d="M123 498q0 220 129 369t338 149q201 0 330 -123v14q0 31 21.5 53.5t53.5 22.5t54 -22.5t22 -53.5v-706q0 -13 7 -31.5t20 -26.5q41 -21 41 -69q0 -32 -23.5 -53t-52.5 -21q-46 0 -81.5 39t-47.5 78q-131 -137 -336 -137q-144 0 -253 70t-165.5 187t-56.5 261zM276 498 q0 -167 86.5 -266t235.5 -99q148 0 235 100t87 265q0 170 -87 268t-235 98q-150 0 -236 -99.5t-86 -266.5z" />
<glyph unicode="b" horiz-adv-x="1234" d="M164 76v1300q0 31 22.5 53.5t53.5 22.5q32 0 53.5 -22.5t21.5 -53.5v-483q129 123 314 123q225 0 356 -152q127 -142 127 -366q0 -221 -129.5 -369.5t-343.5 -148.5h-2q-194 0 -322 122v-26q0 -32 -21.5 -54t-53.5 -22q-31 0 -53.5 22t-22.5 54zM315 498q0 -165 87 -265 t235 -100q145 0 233 98t88 267q0 167 -86.5 266.5t-234.5 99.5q-149 0 -235.5 -99t-86.5 -267z" />
<glyph unicode="c" horiz-adv-x="1110" d="M123 498q0 226 132 372t349 146q127 0 229.5 -59t163.5 -162q11 -22 11 -37q0 -30 -21.5 -54t-54.5 -24q-47 0 -68 37q-88 147 -266 147q-150 0 -236 -99.5t-86 -266.5t86.5 -266t235.5 -99q191 0 276 164q18 41 68 41q33 0 54.5 -23t21.5 -53q0 -22 -8 -35 q-56 -115 -165.5 -181t-246.5 -66q-144 0 -253 70t-165.5 187t-56.5 261z" />
<glyph unicode="d" horiz-adv-x="1234" d="M123 498q0 143 58.5 261t168 187.5t248.5 69.5q193 0 322 -123v483q0 31 21.5 53.5t53.5 22.5t54 -22.5t22 -53.5v-1300q0 -32 -22 -54t-54 -22t-53.5 22t-21.5 54v26q-128 -122 -322 -122q-143 0 -252 69.5t-166 186.5t-57 262zM276 498q0 -167 86.5 -266t235.5 -99 q151 0 236.5 104.5t85.5 260.5q0 170 -87 268t-235 98q-150 0 -236 -99.5t-86 -266.5z" />
<glyph unicode="e" d="M123 502q0 225 132 369.5t347 144.5q141 0 249.5 -71t164 -188t55.5 -259q0 -32 -23.5 -54t-54.5 -22h-712q20 -136 102 -212.5t213 -76.5q191 0 276 164q21 41 70 41q32 0 54 -23t22 -53q0 -22 -8 -35q-59 -115 -167.5 -181t-246.5 -66q-143 0 -251.5 68.5t-165 186.5 t-56.5 267zM281 573h630q-17 134 -101 212.5t-214 78.5q-131 0 -212 -77.5t-103 -213.5z" />
<glyph unicode="f" horiz-adv-x="776" d="M61 907q0 31 23 53.5t55 22.5h74v135q0 144 95.5 239t248.5 95q32 0 54 -22.5t22 -53.5q0 -32 -22 -55t-54 -23q-98 0 -144 -48.5t-46 -131.5v-135h208q32 0 55 -22.5t23 -53.5q0 -32 -23 -55t-55 -23h-208v-753q0 -32 -23 -54t-55 -22q-31 0 -53.5 22t-22.5 54v753h-74 q-32 0 -55 23t-23 55z" />
<glyph unicode="g" horiz-adv-x="1181" d="M123 539q0 132 54 240t156.5 172.5t235.5 64.5q175 0 295 -107q1 31 24 52.5t54 21.5t53.5 -22.5t22.5 -53.5v-764q0 -118 -55 -219.5t-161.5 -166t-242.5 -64.5q-127 0 -215 35q-68 27 -130 73.5t-62 89.5q0 32 22 55t53 23t54 -20q65 -59 123 -82t155 -23 q138 0 221.5 89t83.5 210v27q-120 -107 -295 -107q-134 0 -236.5 64t-156 172t-53.5 240zM274 539q0 -150 79.5 -237t215.5 -87t215.5 87.5t79.5 207.5v59q0 124 -80.5 209.5t-214.5 85.5q-136 0 -215.5 -87.5t-79.5 -237.5z" />
<glyph unicode="h" horiz-adv-x="1196" d="M164 76v1300q0 31 23 53.5t55 22.5q31 0 53 -22.5t22 -53.5v-465q117 105 297 105q131 0 232.5 -67t154 -176.5t52.5 -240.5v-456q0 -32 -23 -54t-55 -22q-31 0 -53.5 22t-22.5 54v456q0 151 -78 241.5t-213 90.5q-137 0 -214 -90t-77 -242v-456q0 -33 -23 -54.5 t-52 -21.5q-32 0 -55 21.5t-23 54.5z" />
<glyph unicode="i" horiz-adv-x="489" d="M154 1255q0 38 27 65.5t65 27.5q37 0 63.5 -27.5t26.5 -65.5q0 -37 -26.5 -63.5t-63.5 -26.5q-38 0 -65 26.5t-27 63.5zM168 76v829q0 32 23 55t55 23q31 0 53.5 -23t22.5 -55v-829q0 -32 -22.5 -55t-53.5 -23q-32 0 -55 23t-23 55z" />
<glyph unicode="j" horiz-adv-x="505" d="M53 -211q0 44 33 64q45 31 73.5 93t28.5 130v831q0 31 22 53.5t54 22.5t54 -22.5t22 -53.5v-831q0 -103 -42.5 -196.5t-123.5 -151.5q-22 -15 -43 -15q-31 0 -54.5 22.5t-23.5 53.5zM174 1255q0 39 26 66t64 27t64 -27t26 -66q0 -37 -26 -63.5t-64 -26.5t-64 26.5 t-26 63.5z" />
<glyph unicode="k" horiz-adv-x="1038" d="M164 76v1300q0 31 23 53.5t55 22.5q31 0 53 -22.5t22 -53.5v-846l463 463q23 23 54 23t53 -23t22 -55q0 -33 -20 -53l-340 -338l418 -418q20 -20 20 -53q0 -32 -22.5 -54t-53.5 -22q-33 0 -53 23l-416 415l-125 -123v-239q0 -32 -22 -54t-53 -22q-32 0 -55 22t-23 54z " />
<glyph unicode="l" horiz-adv-x="526" d="M164 207v1169q0 31 23 53.5t55 22.5q31 0 53 -22.5t22 -53.5v-1175q0 -39 31 -60q35 -24 35 -65q0 -33 -23 -54.5t-53 -21.5q-15 0 -35 8q-30 13 -52 38.5t-32 52t-16 51.5t-7 41z" />
<glyph unicode="m" horiz-adv-x="1701" d="M143 907q0 30 23 53t55 23q51 0 98 -68q106 101 259 101q170 0 278 -121l23 -31l24 33q50 57 122 88t155 31q173 0 278 -121q101 -116 101 -291v-528q0 -32 -23 -54t-55 -22q-31 0 -53.5 22t-22.5 54v528q0 119 -62 191q-60 66 -163 69q-102 -3 -162 -69 q-62 -68 -62 -191v-528q0 -32 -22.5 -54t-54.5 -22q-31 0 -53.5 22t-22.5 54v528q0 120 -64 191q-57 66 -161 69q-105 -3 -162 -69q-64 -73 -64 -191v-528q0 -32 -22.5 -54t-53.5 -22q-32 0 -54.5 22t-22.5 54v725q0 30 -15 39q-18 9 -29.5 27.5t-11.5 39.5z" />
<glyph unicode="n" horiz-adv-x="1234" d="M143 907q0 31 23 53.5t55 22.5q35 0 66 -27.5t51 -66.5q124 127 313 127q197 0 319 -136.5t122 -344.5v-459q0 -32 -22.5 -54t-53.5 -22q-32 0 -55 22t-23 54v459q0 142 -75.5 235.5t-211.5 93.5q-128 0 -209 -88q-80 -90 -80 -241v-459q0 -32 -21.5 -54t-53.5 -22 t-54 22t-22 54v702q0 17 -6 35t-21 27q-41 21 -41 67z" />
<glyph unicode="o" d="M123 500q0 143 56 259.5t166 187.5t253 71q212 0 342.5 -146.5t130.5 -371.5q0 -146 -57.5 -264t-166.5 -187t-249 -69q-214 0 -344.5 147.5t-130.5 372.5zM276 500q0 -166 88 -266.5t234 -100.5t234 100.5t88 266.5q0 96 -34 177t-109 134t-179 53t-179 -53t-109 -134 t-34 -177z" />
<glyph unicode="p" horiz-adv-x="1234" d="M164 -379v1286q0 32 22 54t54 22t53.5 -22t21.5 -54v-12q129 123 322 123q144 0 253.5 -71t165.5 -187.5t56 -259.5q0 -146 -57.5 -263.5t-166.5 -187t-251 -69.5q-195 0 -322 124v-483q0 -32 -21.5 -54t-53.5 -22t-54 22t-22 54zM315 498q0 -163 87 -264t235 -101 q152 0 236.5 104.5t84.5 262.5q0 165 -87 264.5t-234 99.5q-149 0 -235.5 -99.5t-86.5 -264.5v-2z" />
<glyph unicode="q" horiz-adv-x="1234" d="M123 500q0 143 56 259.5t166 187.5t253 71q193 0 322 -123v12q0 32 21.5 54t53.5 22t54 -22t22 -54v-1286q0 -32 -22 -54t-54 -22t-53.5 22t-21.5 54v483q-130 -124 -322 -124q-214 0 -344.5 147.5t-130.5 372.5zM276 500q0 -169 86.5 -268t235.5 -99q153 0 237.5 105.5 t84.5 261.5q0 167 -87 265.5t-235 98.5q-147 0 -234.5 -99.5t-87.5 -264.5z" />
<glyph unicode="r" horiz-adv-x="858" d="M143 907q0 31 23 53.5t55 22.5q37 0 72 -33.5t49 -75.5q80 72 177 108t192 36q31 0 53 -23t22 -55q0 -31 -22 -53.5t-53 -22.5q-108 0 -211.5 -62.5t-137.5 -164.5v-561q0 -32 -21.5 -54t-53.5 -22t-54 22t-22 54v702q0 17 -6 35t-21 27q-41 21 -41 67z" />
<glyph unicode="s" horiz-adv-x="999" d="M123 217q0 31 22.5 54.5t55.5 23.5q40 0 67 -43q65 -98 224 -98q114 0 173.5 42.5t59.5 108.5q0 62 -53.5 95t-190.5 55q-176 27 -262 92.5t-86 189.5q0 126 103 203.5t256 77.5q125 0 217 -52t127 -147q4 -16 4 -22q0 -32 -23 -55t-57 -23q-46 0 -70 49q-15 31 -34 50 t-63 32.5t-112 13.5q-97 0 -145.5 -37.5t-48.5 -89.5q0 -53 44.5 -83t168.5 -48q183 -25 280 -97.5t97 -209.5q0 -136 -111.5 -216.5t-276.5 -80.5q-124 0 -219.5 47t-138.5 135q-8 13 -8 33z" />
<glyph unicode="t" horiz-adv-x="753" d="M72 907q0 31 23 53.5t55 22.5h106v393q0 30 23 53t53 23q31 0 54.5 -22.5t23.5 -53.5v-393h153q32 0 55 -22t23 -54t-23 -54t-55 -22h-153v-626q0 -51 22 -62q43 -22 43 -67q0 -32 -23.5 -54t-52.5 -22q-21 0 -37 8q-36 20 -60 51t-32.5 64.5t-11 51t-2.5 32.5v624h-106 q-32 0 -55 22t-23 54z" />
<glyph unicode="u" horiz-adv-x="1140" d="M143 434v473q0 31 22 53.5t54 22.5t54 -22.5t22 -53.5v-473q0 -139 77.5 -221t200.5 -82q77 0 133.5 21t116.5 81v674q0 31 23 53.5t55 22.5q31 0 53.5 -22.5t22.5 -53.5v-831q0 -32 -23 -54t-53 -22q-51 0 -70 43q-116 -66 -258 -66q-189 0 -309.5 130t-120.5 327z" />
<glyph unicode="v" horiz-adv-x="1048" d="M51 907q0 30 22.5 53t55.5 23q22 0 41.5 -11.5t28.5 -31.5l325 -686l326 686q9 20 28.5 31.5t41.5 11.5q33 0 55 -23t22 -53q0 -13 -8 -33l-395 -831q-9 -20 -29 -31.5t-41 -11.5q-50 0 -69 43l-396 831q-8 13 -8 33z" />
<glyph unicode="w" horiz-adv-x="1437" d="M61 907q0 31 20.5 53.5t53.5 22.5q25 0 46 -14t28 -37l219 -625l217 625q7 23 28 37t46 14t45 -14t27 -37l219 -625l217 625q7 23 27.5 37t45.5 14q32 0 54 -23.5t22 -54.5q0 -8 -4 -24l-291 -830q-7 -23 -26.5 -37t-44.5 -14t-45 14t-29 37l-217 625l-219 -625 q-7 -23 -27 -37t-45 -14t-45 14t-27 37l-290 830q-5 10 -5 26z" />
<glyph unicode="x" horiz-adv-x="1030" d="M82 76q0 28 18 49l314 367l-314 364q-18 21 -18 49q0 32 23 55t55 23q33 0 57 -27l299 -348l297 348q21 27 57 27q31 0 54.5 -22.5t23.5 -53.5q0 -30 -18 -51l-314 -364l314 -367q18 -21 18 -49q0 -31 -22.5 -53.5t-53.5 -22.5q-35 0 -59 27l-297 346l-299 -346 q-24 -27 -57 -27q-32 0 -55 22.5t-23 53.5z" />
<glyph unicode="y" horiz-adv-x="1073" d="M61 907q0 29 22 52.5t56 23.5q46 0 68 -39l332 -608l329 608q22 39 68 39q32 0 54 -23.5t22 -52.5q0 -21 -8 -37l-562 -1034q-73 -121 -188 -121q-30 0 -53 23t-23 51q0 34 21.5 56t56.5 22q12 0 26 11t23 28l148 268l-381 696q-11 18 -11 37z" />
<glyph unicode="z" horiz-adv-x="1058" d="M92 74q0 26 21 51l594 704h-517q-32 0 -54.5 23t-22.5 55q0 31 22.5 53.5t54.5 22.5h680q30 0 53 -22t23 -56q0 -25 -16 -47l-596 -706h555q32 0 55 -22t23 -54t-23 -54t-55 -22h-719q-32 0 -55 21t-23 53z" />
<glyph unicode="{" horiz-adv-x="843" d="M164 727q0 45 41 68q31 17 52.5 44.5t30 57.5t11 49.5t2.5 36.5v150q0 136 93 227.5t231 91.5q31 0 53 -22t22 -54t-22 -54t-53 -22q-76 0 -123 -46.5t-47 -120.5v-150q0 -152 -93 -256q93 -99 93 -254v-154q0 -77 47 -121t123 -44q31 0 53 -23t22 -55t-23 -54t-54 -22 q-136 0 -229 91.5t-93 227.5v154q0 17 -2.5 36.5t-11 49.5t-30 57t-52.5 43q-18 9 -29.5 28t-11.5 40z" />
<glyph unicode="|" horiz-adv-x="481" d="M164 -199v1575q0 32 22.5 54t53.5 22q32 0 54.5 -22t22.5 -54v-1575q0 -31 -22.5 -53t-54.5 -22q-31 0 -53.5 22t-22.5 53z" />
<glyph unicode="}" horiz-adv-x="843" d="M143 76q0 32 22.5 55t53.5 23q76 0 123 44t47 121v154q0 156 92 254q-92 102 -92 256v150q0 74 -47 120.5t-123 46.5q-31 0 -53.5 22t-22.5 54t22.5 54t53.5 22q138 0 231 -91.5t93 -227.5v-150q0 -17 2.5 -36.5t11 -49.5t30 -57.5t52.5 -44.5q41 -23 41 -68 q0 -21 -11.5 -40t-29.5 -28q-31 -16 -52.5 -43t-30 -57t-11 -49.5t-2.5 -36.5v-154q0 -136 -93 -227.5t-229 -91.5q-31 0 -54.5 22t-23.5 54z" />
<glyph unicode="~" horiz-adv-x="1044" d="M152 649q0 42 32.5 71t71.5 39.5t78 10.5q58 0 174 -22.5t160 -22.5q46 0 71 14q7 4 20 12.5t22.5 12.5t19.5 4q32 0 54 -23t22 -53q0 -62 -74 -98q-41 -21 -96 -21q-54 0 -172.5 25t-165.5 25t-82 -21q-41 -29 -60 -29q-23 0 -47 17q-28 20 -28 59z" />
<glyph unicode="&#xa1;" horiz-adv-x="589" d="M213 1004q0 44 31 75t75 31q45 0 77 -31t32 -75t-32.5 -76.5t-76.5 -32.5t-75 32t-31 77zM242 -307v1022q0 31 22.5 53.5t54.5 22.5q31 0 53.5 -22.5t22.5 -53.5v-1022q0 -31 -22.5 -53.5t-53.5 -22.5q-32 0 -54.5 22.5t-22.5 53.5z" />
<glyph unicode="&#xa2;" horiz-adv-x="1183" d="M164 727q0 172 96 301t258 162v186q0 32 22 55t54 23t54 -23t22 -55v-180q106 -10 191 -62t136 -137q11 -17 11 -39q0 -30 -21.5 -53.5t-54.5 -23.5q-45 0 -66 37q-62 103 -196 124v-632q138 20 207 141q22 39 65 39q31 0 53.5 -21.5t22.5 -54.5q0 -22 -8 -35 q-48 -94 -137.5 -153.5t-202.5 -69.5v-178q0 -32 -22 -55t-54 -23t-54 23t-22 55v184q-164 33 -259 161.5t-95 303.5zM317 727q0 -107 51 -191t150 -116v612q-94 -28 -147.5 -109t-53.5 -196z" />
<glyph unicode="&#xa3;" horiz-adv-x="1349" d="M164 727q0 32 23 54t55 22h30q-20 102 -20 209q0 81 29 161t83 148.5t144 111t201 42.5q97 0 177 -29.5t134.5 -81.5t90.5 -111t60 -129q5 -20 5 -22q0 -30 -22.5 -53t-55.5 -23q-25 0 -45 14.5t-27 38.5q-29 99 -108 171.5t-201 72.5q-80 0 -142 -28.5t-97.5 -75 t-53.5 -99t-18 -108.5q0 -94 22 -209h451q32 0 54.5 -22t22.5 -54t-22.5 -54t-54.5 -22h-414q24 -122 24 -200q0 -124 -36 -252q82 0 194.5 -34t175.5 -34q64 0 126 28t100 79q22 28 59 28q31 0 53.5 -21.5t22.5 -54.5q0 -26 -15 -47q-63 -80 -155 -123t-191 -43 q-73 0 -141 17.5t-118.5 35t-78.5 17.5q-36 0 -88 -24q-3 -1 -15 -8t-23 -11t-21 -4q-35 0 -56.5 19t-21.5 42q0 37 4 41q72 202 72 349q0 80 -29 200h-65q-32 0 -55 22t-23 54z" />
<glyph unicode="&#xa5;" horiz-adv-x="1456" d="M164 1376q0 30 21.5 53t54.5 23q38 0 61 -29l428 -567l426 567q23 29 59 29q32 0 55 -21.5t23 -54.5q0 -28 -14 -45l-426 -565h152q32 0 53.5 -22.5t21.5 -53.5q0 -33 -21.5 -55.5t-53.5 -22.5h-199v-67h199q32 0 53.5 -22.5t21.5 -53.5q0 -33 -21.5 -55.5t-53.5 -22.5 h-199v-313q0 -32 -23 -55t-53 -23q-32 0 -55 23t-23 55v313h-205q-32 0 -53.5 22.5t-21.5 55.5q0 31 21.5 53.5t53.5 22.5h205v67h-205q-32 0 -53.5 22.5t-21.5 55.5q0 31 21.5 53.5t53.5 22.5h158l-426 565q-14 17 -14 45z" />
<glyph unicode="&#xa6;" horiz-adv-x="481" d="M164 -199v645q0 32 22.5 54t53.5 22q32 0 54.5 -22t22.5 -54v-645q0 -31 -22.5 -53t-54.5 -22q-31 0 -53.5 22t-22.5 53zM164 731v645q0 32 22.5 54t53.5 22q32 0 54.5 -22t22.5 -54v-645q0 -31 -22.5 -53.5t-54.5 -22.5q-31 0 -53.5 22.5t-22.5 53.5z" />
<glyph unicode="&#xa7;" horiz-adv-x="1126" d="M166 147q0 32 22 54t52 22q27 0 49 -16q96 -74 235 -74q130 0 205 46.5t78 119.5q-3 70 -63.5 113t-217.5 96q-57 18 -100 35.5t-92.5 45.5t-81 59t-53 76t-21.5 97q0 111 80 195q-76 76 -76 168q0 94 53.5 161.5t135.5 98.5t182 31q97 0 178 -28.5t162 -98.5 q27 -21 27 -58q0 -33 -23.5 -55.5t-54.5 -22.5q-27 0 -49 19q-64 55 -111 73.5t-117 18.5q-102 0 -166.5 -36.5t-64.5 -92.5q0 -93 244 -174q65 -22 110.5 -39.5t93 -41t77.5 -49t55 -58.5t37 -74.5t12 -91.5q-4 -104 -64 -189q59 -78 59 -184q0 -97 -60.5 -169.5t-156 -108 t-209.5 -35.5q-69 0 -151 18t-148.5 58t-66.5 91zM332 825q0 -51 58.5 -92t184.5 -82q138 -45 203 -80q31 46 31 95q0 73 -58.5 113t-220.5 95q-87 28 -141 56q-57 -48 -57 -105z" />
<glyph unicode="&#xa8;" horiz-adv-x="1341" d="M414 1317q0 44 32 75t76 31t75.5 -31t31.5 -75t-31.5 -76.5t-75.5 -32.5t-76 32.5t-32 76.5zM727 1317q0 44 32 75t77 31q44 0 75 -31t31 -75q0 -45 -31 -77t-75 -32t-76.5 32.5t-32.5 76.5z" />
<glyph unicode="&#xa9;" horiz-adv-x="1824" d="M164 725q0 152 59 290.5t159.5 238.5t238.5 159.5t290 59.5q203 0 375.5 -100.5t273.5 -272.5t101 -375t-101 -375.5t-273.5 -272.5t-375.5 -100q-152 0 -290 59t-238.5 159t-159.5 239t-59 291zM317 725q0 -161 79.5 -298.5t216.5 -217.5t298 -80q162 0 299.5 80 t217 217.5t79.5 298.5t-79.5 298t-217 216.5t-299.5 79.5q-161 0 -298 -79.5t-216.5 -216.5t-79.5 -298zM621 725q0 191 78 290t216 99q97 0 167.5 -53t101.5 -150q0 -1 1 -4t1 -4q0 -9 -7 -15.5t-16 -6.5q-17 0 -20 16q-59 174 -228 174q-249 0 -249 -346t249 -346 q164 0 226 164q3 14 20 14q9 0 15 -6t6 -14v-9q-32 -93 -102.5 -143.5t-164.5 -50.5q-136 0 -215 99t-79 292z" />
<glyph unicode="&#xaa;" horiz-adv-x="755" d="M123 1034q0 116 65.5 193.5t173.5 77.5q111 0 175 -64v8q0 15 12 27t29 12t27.5 -11.5t10.5 -27.5v-368q0 -20 15 -31q20 -11 20 -35q0 -17 -12 -29t-27 -12q-22 0 -41.5 22t-25.5 42q-68 -74 -174 -74q-112 0 -180 77t-68 193zM203 1034q0 -88 44 -139t124 -51 q75 0 120.5 52t45.5 140q0 87 -45 139t-121 52q-79 0 -123.5 -52t-44.5 -141z" />
<glyph unicode="&#xab;" horiz-adv-x="1107" d="M164 481q0 32 22 54l291 288q21 21 53 21t54 -22t22 -54q0 -34 -22 -53l-234 -234l234 -233q22 -22 22 -55t-23 -54.5t-53 -21.5q-34 0 -53 22l-291 287q-22 22 -22 55zM504 481q0 32 22 54l289 288q21 21 53 21t54 -22t22 -54q0 -33 -20 -53l-236 -234l236 -233 q20 -23 20 -55t-22.5 -54t-53.5 -22q-34 0 -53 22l-289 287q-22 22 -22 55z" />
<glyph unicode="&#xac;" horiz-adv-x="1572" d="M164 727q0 31 23 53.5t55 22.5h1089q32 0 55 -23t23 -53v-410q0 -32 -23 -54.5t-55 -22.5q-31 0 -53.5 22.5t-22.5 54.5v332h-1013q-32 0 -55 23t-23 55z" />
<glyph unicode="&#xad;" horiz-adv-x="1075" d="M164 543q0 32 23 55t55 23h592q32 0 54.5 -23t22.5 -55q0 -31 -22.5 -53.5t-54.5 -22.5h-592q-32 0 -55 22.5t-23 53.5z" />
<glyph unicode="&#xae;" horiz-adv-x="1017" d="M164 1079q0 143 101 244.5t243 101.5t244 -101.5t102 -244.5q0 -142 -101.5 -243t-244.5 -101q-142 0 -243 100.5t-101 243.5zM207 1079q0 -123 88.5 -212t212.5 -89q125 0 213 88.5t88 212.5q0 126 -87.5 213.5t-213.5 87.5q-125 0 -213 -87.5t-88 -213.5zM387 899v348 q0 8 7 14.5t16 6.5h129q46 0 77 -30.5t31 -74.5q0 -43 -30 -73t-74 -33l88 -148q2 -4 2 -10q0 -9 -7 -15.5t-16 -6.5t-16 10l-102 170h-62v-158q0 -9 -5.5 -15.5t-14.5 -6.5t-16 6.5t-7 15.5zM430 1102h109q29 0 46 16.5t17 44.5q0 27 -17 44.5t-46 17.5h-109v-123z" />
<glyph unicode="&#xaf;" horiz-adv-x="1292" d="M367 1223q0 32 22.5 53.5t54.5 21.5h445q33 0 55.5 -21.5t22.5 -53.5t-23 -54t-55 -22h-445q-32 0 -54.5 22t-22.5 54z" />
<glyph unicode="&#xb0;" horiz-adv-x="526" d="M102 1040q0 66 47.5 113t114.5 47q66 0 113 -47t47 -113t-47 -112.5t-113 -46.5q-67 0 -114.5 46.5t-47.5 112.5zM188 1040q0 -31 22 -53t54 -22q31 0 53.5 22t22.5 53q0 32 -22.5 54t-53.5 22q-32 0 -54 -22t-22 -54z" />
<glyph unicode="&#xb1;" horiz-adv-x="1112" d="M164 76q0 32 23 55t55 23h628q32 0 55 -23t23 -55q0 -31 -23 -53.5t-55 -22.5h-628q-32 0 -55 22.5t-23 53.5zM164 592q0 32 23 55t55 23h237v237q0 32 23 55t55 23q31 0 53.5 -23t22.5 -55v-237h237q32 0 55 -23t23 -55q0 -31 -23 -53.5t-55 -22.5h-237v-237 q0 -32 -22.5 -55t-53.5 -23q-32 0 -55 23t-23 55v237h-237q-32 0 -55 22.5t-23 53.5z" />
<glyph unicode="&#xb2;" horiz-adv-x="679" d="M125 743q0 15 10 25l307 350q41 47 41 92q0 55 -37.5 88t-101.5 33q-67 0 -103 -32.5t-36 -88.5q0 -15 -11 -25.5t-26 -10.5t-26 10.5t-11 25.5q0 85 60.5 140t152.5 55q94 0 152.5 -56t58.5 -139q0 -75 -57 -139l-256 -291h290q14 0 24.5 -11t10.5 -26t-10.5 -24.5 t-24.5 -9.5h-370q-15 0 -26 10t-11 24z" />
<glyph unicode="&#xb3;" horiz-adv-x="694" d="M113 897q0 15 11 26t26 11q31 0 34 -39q4 -61 50 -95t108 -34q74 0 116 36t42 95q0 58 -42 94.5t-116 36.5q-14 0 -24.5 10t-10.5 25q0 17 10.5 27t24.5 10q68 0 103.5 31t35.5 83q0 53 -36 84t-103 31q-65 0 -101 -31.5t-36 -83.5q0 -15 -11 -24.5t-26 -9.5t-26 9.5 t-11 24.5q0 83 61 136t150 53q92 0 152.5 -53.5t60.5 -135.5q0 -88 -78 -149q94 -56 94 -174q0 -86 -64.5 -141.5t-164.5 -55.5q-101 0 -165 57.5t-64 145.5z" />
<glyph unicode="&#xb4;" horiz-adv-x="1779" d="M582 1204q0 17 10 37l92 166q22 39 68 39q34 0 54.5 -22.5t20.5 -53.5q0 -17 -10 -37l-90 -166q-22 -39 -68 -39q-32 0 -54.5 23t-22.5 53z" />
<glyph unicode="&#xb5;" horiz-adv-x="1161" d="M164 -379v1286q0 31 22 53.5t54 22.5t53.5 -22.5t21.5 -53.5v-473q0 -139 77.5 -221t201.5 -82q78 0 134 21t116 81v674q0 31 23 53.5t55 22.5q31 0 53 -22.5t22 -53.5v-831q0 -32 -22.5 -54t-52.5 -22q-51 0 -70 43q-116 -66 -258 -66q-164 0 -279 101v-457 q0 -32 -21.5 -54t-53.5 -22t-54 22t-22 54z" />
<glyph unicode="&#xb6;" horiz-adv-x="1107" d="M164 1083q0 158 108 264.5t267 106.5h329q31 0 53.5 -23.5t22.5 -54.5v-1399q0 -32 -22.5 -53.5t-53.5 -21.5q-32 0 -54.5 21.5t-22.5 53.5v1323h-84v-1323q0 -32 -22.5 -53.5t-55.5 -21.5q-31 0 -53.5 21.5t-22.5 53.5v734h-14q-160 0 -267.5 107t-107.5 265z" />
<glyph unicode="&#xb7;" horiz-adv-x="542" d="M164 317q0 44 31 75.5t75 31.5t76.5 -31.5t32.5 -75.5t-32.5 -76t-76.5 -32t-75 32t-31 76z" />
<glyph unicode="&#xb8;" horiz-adv-x="1308" d="M473 -193q0 30 22.5 56t55.5 26q12 0 21.5 -2.5t16.5 -8.5t10.5 -10.5t9 -13.5t7.5 -12q11 -16 64 -16q47 0 47 20q0 7 -18.5 13t-49.5 18t-53 31q-47 44 -47 115q0 32 22 54.5t54 22.5q24 0 38 -15.5t18.5 -34.5t13.5 -36t24 -20q67 -12 108.5 -50t41.5 -108 q0 -74 -62 -119t-145 -45q-82 0 -140.5 43t-58.5 92z" />
<glyph unicode="&#xb9;" horiz-adv-x="475" d="M113 1202q0 17 10 27l147 147q10 10 25 10q16 0 26.5 -10.5t10.5 -23.5v-615q0 -15 -11 -26t-26 -11t-25 11t-10 26v527l-86 -86q-11 -11 -27 -11q-15 0 -24.5 10.5t-9.5 24.5z" />
<glyph unicode="&#xba;" horiz-adv-x="741" d="M123 1034q0 120 70 195.5t184 75.5q108 0 174.5 -78t66.5 -193t-68 -192.5t-179 -77.5q-110 0 -179 77.5t-69 192.5zM203 1034q0 -86 45.5 -138t122.5 -52q75 0 121.5 52t46.5 138q0 90 -45.5 141.5t-122.5 51.5q-79 0 -123.5 -57t-44.5 -136z" />
<glyph unicode="&#xbb;" horiz-adv-x="1107" d="M164 193q0 32 20 55l236 233l-236 234q-20 20 -20 53q0 32 22 54t54 22t53 -21l289 -288q22 -22 22 -54q0 -33 -22 -55l-289 -287q-19 -22 -53 -22q-31 0 -53.5 22t-22.5 54zM502 193q0 33 22 55l234 233l-234 234q-22 19 -22 53q0 32 22 54t54 22t53 -21l291 -288 q22 -22 22 -54q0 -33 -22 -55l-291 -287q-19 -22 -53 -22q-30 0 -53 21.5t-23 54.5z" />
<glyph unicode="&#xbc;" horiz-adv-x="1300" d="M102 1202q0 16 11 27l147 147q10 10 25 10q16 0 26.5 -10.5t10.5 -23.5v-615q0 -15 -11 -26t-26 -11q-14 0 -24.5 11t-10.5 26v527l-86 -86q-11 -11 -27 -11q-13 0 -24 10.5t-11 24.5zM301 35q0 6 2 10l518 1389q6 22 33 22q15 0 25 -10.5t10 -24.5q0 -8 -2 -12 l-518 -1386q-7 -23 -33 -23q-16 0 -25.5 11t-9.5 24zM678 236q0 14 8 22l330 414q10 14 26 14q15 0 26 -11t11 -26v-377h51q15 0 26 -10.5t11 -25.5t-11 -26t-26 -11h-51v-164q0 -15 -11 -25t-26 -10q-14 0 -24 10t-10 25v164h-293q-15 0 -26 11t-11 26zM788 272h220v275z " />
<glyph unicode="&#xbd;" horiz-adv-x="1374" d="M113 1202q0 17 10 27l147 147q10 10 25 10q16 0 26.5 -10.5t10.5 -23.5v-615q0 -15 -11 -26t-26 -11t-25 11t-10 26v527l-86 -86q-11 -11 -27 -11q-15 0 -24.5 10.5t-9.5 24.5zM311 33q0 8 2 12l518 1389q6 22 33 22q14 0 24.5 -11t10.5 -26q0 -1 -1 -4.5t-1 -5.5 l-518 -1386q-7 -23 -33 -23q-14 0 -24.5 10t-10.5 23zM809 35q0 14 10 24l307 351q41 47 41 92q0 55 -37.5 88t-101.5 33q-67 0 -103 -32.5t-36 -88.5q0 -15 -11 -26t-26 -11t-26 11t-11 26q0 85 60.5 139.5t152.5 54.5q94 0 152.5 -55.5t58.5 -138.5q0 -76 -57 -140 l-256 -290h291q14 0 24 -11t10 -26t-10 -25t-24 -10h-371q-15 0 -26 10.5t-11 24.5z" />
<glyph unicode="&#xbe;" horiz-adv-x="1525" d="M113 897q0 15 11 26t26 11q31 0 34 -39q4 -61 50 -95t108 -34q74 0 116 36t42 95q0 58 -42 94.5t-116 36.5q-14 0 -24.5 10t-10.5 25q0 17 10.5 27t24.5 10q68 0 103.5 31t35.5 83q0 53 -36 84t-103 31q-65 0 -101 -31.5t-36 -83.5q0 -15 -11 -24.5t-26 -9.5t-26 9.5 t-11 24.5q0 83 61 136t150 53q92 0 152.5 -53.5t60.5 -135.5q0 -88 -78 -149q94 -56 94 -174q0 -86 -64.5 -141.5t-164.5 -55.5q-101 0 -165 57.5t-64 145.5zM537 33q0 8 2 12l516 1389q9 22 32 22q14 0 24.5 -10t10.5 -25q0 -8 -2 -12l-516 -1386q-10 -23 -33 -23 q-14 0 -24 10t-10 23zM911 236q0 13 9 22l329 414q14 14 29 14t26 -11t11 -26v-377h51q15 0 26 -10.5t11 -25.5t-11 -26t-26 -11h-51v-164q0 -15 -11 -25t-26 -10t-26 10t-11 25v164h-293q-14 0 -25.5 10.5t-11.5 26.5zM1024 272h217v275z" />
<glyph unicode="&#xbf;" horiz-adv-x="931" d="M0 -16q0 125 62.5 219t193.5 178q124 79 158.5 139.5t34.5 194.5q0 32 22.5 55t54.5 23q31 0 53.5 -23t22.5 -55q0 -117 -27 -198t-81.5 -141t-153.5 -124q-109 -71 -147.5 -126t-38.5 -142q0 -111 80 -173.5t231 -62.5q150 0 231.5 70.5t81.5 183.5q0 32 22.5 54 t53.5 22q35 0 55.5 -23.5t20.5 -58.5q0 -176 -131.5 -289t-333.5 -113q-204 0 -334.5 105.5t-130.5 284.5zM414 1004q0 44 31 75t75 31q45 0 77 -31t32 -75t-32.5 -76.5t-76.5 -32.5t-75 32t-31 77z" />
<glyph unicode="&#xc0;" horiz-adv-x="1366" d="M61 76q0 13 7 30l544 1297q21 49 72 49q49 0 70 -49l544 -1297q7 -17 7 -30q0 -32 -24.5 -54t-55.5 -22q-42 0 -66 47l-172 399h-608l-172 -399q-24 -47 -66 -47q-31 0 -55.5 22t-24.5 54zM440 600h486l-244 578zM535 1747q0 29 21.5 52.5t55.5 23.5q46 0 68 -39l90 -166 q10 -20 10 -37q0 -30 -22 -53t-53 -23q-49 0 -68 39l-92 166q-10 17 -10 37z" />
<glyph unicode="&#xc1;" horiz-adv-x="1366" d="M61 76q0 13 7 30l544 1297q21 49 72 49q49 0 70 -49l544 -1297q7 -17 7 -30q0 -32 -24.5 -54t-55.5 -22q-42 0 -66 47l-172 399h-608l-172 -399q-24 -47 -66 -47q-31 0 -55.5 22t-24.5 54zM440 600h486l-244 578zM635 1581q0 17 10 37l92 166q22 39 68 39q34 0 55 -22.5 t21 -53.5q0 -15 -11 -37l-90 -166q-22 -39 -67 -39q-32 0 -55 23t-23 53z" />
<glyph unicode="&#xc2;" horiz-adv-x="1366" d="M61 76q0 13 7 30l544 1297q21 49 72 49q49 0 70 -49l544 -1297q7 -17 7 -30q0 -32 -24.5 -54t-55.5 -22q-42 0 -66 47l-172 399h-608l-172 -399q-24 -47 -66 -47q-31 0 -55.5 22t-24.5 54zM434 1606q0 32 23 55l172 172q22 22 53 22q33 0 55 -22l172 -172q23 -23 23 -55 t-23.5 -54t-54.5 -22q-34 0 -53 22l-119 119l-117 -119q-25 -22 -55 -22q-32 0 -54 23t-22 53zM440 600h486l-244 578z" />
<glyph unicode="&#xc3;" horiz-adv-x="1366" d="M61 76q0 13 7 30l544 1297q21 49 72 49q49 0 70 -49l544 -1297q7 -17 7 -30q0 -32 -24.5 -54t-55.5 -22q-42 0 -66 47l-172 399h-608l-172 -399q-24 -47 -66 -47q-31 0 -55.5 22t-24.5 54zM438 1612q0 54 58.5 88.5t113.5 34.5q36 0 67 -13t51.5 -26t31.5 -13q23 0 39 19 q26 29 61 29q32 0 54 -23t22 -53q0 -37 -32 -67t-72 -44t-74 -14q-66 0 -121 43q-11 8 -27 8q-24 0 -37 -16q-26 -29 -59 -29q-25 0 -47 16q-29 20 -29 60zM440 600h486l-244 578z" />
<glyph unicode="&#xc4;" horiz-adv-x="1366" d="M61 76q0 13 7 30l544 1297q21 49 72 49q49 0 70 -49l544 -1297q7 -17 7 -30q0 -32 -24.5 -54t-55.5 -22q-42 0 -66 47l-172 399h-608l-172 -399q-24 -47 -66 -47q-31 0 -55.5 22t-24.5 54zM416 1694q0 44 32 75t76 31t75.5 -31t31.5 -75t-31.5 -76.5t-75.5 -32.5 t-76 32.5t-32 76.5zM440 600h486l-244 578zM729 1694q0 44 32 75t77 31q44 0 75 -31t31 -75q0 -45 -31 -77t-75 -32t-76.5 32.5t-32.5 76.5z" />
<glyph unicode="&#xc5;" horiz-adv-x="1366" d="M61 76q0 -32 24.5 -54t55.5 -22q42 0 66 47l172 399h608l172 -399q24 -47 66 -47q31 0 55.5 22t24.5 54q0 13 -7 30l-544 1297q-21 49 -70 49q-51 0 -72 -49l-544 -1297q-7 -17 -7 -30zM440 600l242 578l244 -578h-486zM518 1692q0 66 47.5 112.5t114.5 46.5 q66 0 113 -46.5t47 -112.5t-47 -113t-113 -47q-67 0 -114.5 47t-47.5 113zM604 1692q0 -31 22 -53.5t54 -22.5q31 0 53.5 22.5t22.5 53.5q0 32 -22.5 53.5t-53.5 21.5q-32 0 -54 -21.5t-22 -53.5z" />
<glyph unicode="&#xc6;" horiz-adv-x="2250" d="M61 76q0 13 7 30l544 1297q21 49 72 49q49 0 70 -49l401 -957v930q0 32 23 55t55 23h797q31 0 53 -23t22 -55q0 -31 -22 -53.5t-53 -22.5h-721v-464h653q32 0 55 -22.5t23 -53.5q0 -32 -23 -55t-55 -23h-653v-528h741q32 0 55 -22.5t23 -53.5q0 -32 -23 -55t-55 -23h-819 q-48 0 -72 47l-172 399h-608l-172 -399q-24 -47 -66 -47q-31 0 -55.5 22t-24.5 54zM440 600h486l-244 578z" />
<glyph unicode="&#xc7;" horiz-adv-x="1308" d="M123 727q0 217 64 385.5t190.5 266.5t298.5 98q182 0 314.5 -106.5t191.5 -293.5q4 -16 4 -24q0 -31 -22.5 -53.5t-55.5 -22.5q-25 0 -45 14.5t-27 38.5q-94 293 -360 293q-182 0 -292 -157t-110 -439q0 -294 107.5 -445t294.5 -151q259 0 356 279q7 23 28.5 37t45.5 14 q32 0 54 -24.5t22 -53.5q0 -9 -4 -25q-56 -157 -163 -252.5t-253 -117.5q117 -35 117 -152q0 -74 -62 -119t-145 -45q-82 0 -140.5 43t-58.5 92q0 30 22.5 56t55.5 26q12 0 21.5 -2.5t16.5 -8.5t10.5 -10.5t9 -13.5t7.5 -12q11 -16 64 -16q47 0 47 20q0 7 -18.5 13t-49.5 18 t-53 31q-37 37 -45 84q-187 39 -295 192q-143 198 -143 543z" />
<glyph unicode="&#xc8;" horiz-adv-x="1269" d="M174 78v1298q0 32 23 55t55 23h797q31 0 53 -23t22 -55q0 -31 -22 -53.5t-53 -22.5h-721v-464h653q32 0 55 -22.5t23 -53.5q0 -32 -23 -55t-55 -23h-653v-528h741q32 0 55 -22.5t23 -53.5q0 -32 -23 -55t-55 -23h-817q-32 0 -55 23t-23 55zM492 1747q0 29 21.5 52.5 t55.5 23.5q46 0 68 -39l90 -166q10 -20 10 -37q0 -30 -22 -53t-53 -23q-49 0 -68 39l-92 166q-10 17 -10 37z" />
<glyph unicode="&#xc9;" horiz-adv-x="1269" d="M174 78v1298q0 32 23 55t55 23h797q31 0 53 -23t22 -55q0 -31 -22 -53.5t-53 -22.5h-721v-464h653q32 0 55 -22.5t23 -53.5q0 -32 -23 -55t-55 -23h-653v-528h741q32 0 55 -22.5t23 -53.5q0 -32 -23 -55t-55 -23h-817q-32 0 -55 23t-23 55zM565 1581q0 17 10 37l93 166 q22 39 67 39q34 0 55 -22.5t21 -53.5q0 -17 -10 -37l-90 -166q-22 -39 -68 -39q-32 0 -55 23t-23 53z" />
<glyph unicode="&#xca;" horiz-adv-x="1269" d="M174 78v1298q0 32 23 55t55 23h797q31 0 53 -23t22 -55q0 -31 -22 -53.5t-53 -22.5h-721v-464h653q32 0 55 -22.5t23 -53.5q0 -32 -23 -55t-55 -23h-653v-528h741q32 0 55 -22.5t23 -53.5q0 -32 -23 -55t-55 -23h-817q-32 0 -55 23t-23 55zM416 1606q0 33 22 55l172 172 q22 22 54 22q33 0 55 -22l172 -172q22 -22 22 -55q0 -32 -23 -54t-54 -22q-35 0 -54 22l-118 119l-117 -119q-25 -22 -55 -22q-32 0 -54 23t-22 53z" />
<glyph unicode="&#xcb;" horiz-adv-x="1269" d="M174 78v1298q0 32 23 55t55 23h797q31 0 53 -23t22 -55q0 -31 -22 -53.5t-53 -22.5h-721v-464h653q32 0 55 -22.5t23 -53.5q0 -32 -23 -55t-55 -23h-653v-528h741q32 0 55 -22.5t23 -53.5q0 -32 -23 -55t-55 -23h-817q-32 0 -55 23t-23 55zM397 1694q0 44 32 75t77 31 q44 0 75 -31t31 -75q0 -45 -31 -77t-75 -32t-76.5 32.5t-32.5 76.5zM711 1694q0 44 32 75t76 31t75.5 -31t31.5 -75t-31.5 -76.5t-75.5 -32.5t-76 32.5t-32 76.5z" />
<glyph unicode="&#xcc;" horiz-adv-x="915" d="M82 78q0 33 24 54.5t52 21.5h223v1146h-223q-33 0 -54.5 24.5t-21.5 57.5q3 29 24.5 50.5t51.5 21.5h598q32 0 55 -23t23 -55q0 -31 -23 -53.5t-55 -22.5h-221v-1146h221q32 0 55 -22.5t23 -53.5q0 -32 -23 -55t-55 -23h-598q-31 0 -53.5 23t-22.5 55zM301 1747 q0 29 22 52.5t56 23.5q45 0 67 -39l91 -166q10 -20 10 -37q0 -30 -22 -53t-54 -23q-49 0 -68 39l-92 166q-10 17 -10 37z" />
<glyph unicode="&#xcd;" horiz-adv-x="915" d="M82 78q0 33 24 54.5t52 21.5h223v1146h-223q-33 0 -54.5 24.5t-21.5 57.5q3 29 24.5 50.5t51.5 21.5h598q32 0 55 -23t23 -55q0 -31 -23 -53.5t-55 -22.5h-221v-1146h221q32 0 55 -22.5t23 -53.5q0 -32 -23 -55t-55 -23h-598q-31 0 -53.5 23t-22.5 55zM360 1581 q0 15 11 37l92 166q22 39 67 39q34 0 55 -22.5t21 -53.5q0 -17 -10 -37l-90 -166q-22 -39 -68 -39q-32 0 -55 23t-23 53z" />
<glyph unicode="&#xce;" horiz-adv-x="915" d="M82 78q0 33 24 54.5t52 21.5h223v1146h-223q-33 0 -54.5 24.5t-21.5 57.5q3 29 24.5 50.5t51.5 21.5h598q32 0 55 -23t23 -55q0 -31 -23 -53.5t-55 -22.5h-221v-1146h221q32 0 55 -22.5t23 -53.5q0 -32 -23 -55t-55 -23h-598q-31 0 -53.5 23t-22.5 55zM213 1606 q0 32 23 55l172 172q22 22 53 22q33 0 55 -22l172 -172q23 -23 23 -55t-23.5 -54t-54.5 -22q-34 0 -53 22l-119 119l-117 -119q-25 -22 -55 -22q-32 0 -54 23t-22 53z" />
<glyph unicode="&#xcf;" horiz-adv-x="915" d="M82 78q0 33 24 54.5t52 21.5h223v1146h-223q-33 0 -54.5 24.5t-21.5 57.5q3 29 24.5 50.5t51.5 21.5h598q32 0 55 -23t23 -55q0 -31 -23 -53.5t-55 -22.5h-221v-1146h221q32 0 55 -22.5t23 -53.5q0 -32 -23 -55t-55 -23h-598q-31 0 -53.5 23t-22.5 55zM180 1694 q0 44 32 75t77 31q44 0 75 -31t31 -75q0 -45 -31 -77t-75 -32t-76.5 32.5t-32.5 76.5zM494 1694q0 44 32 75t76 31t75.5 -31t31.5 -75t-31.5 -76.5t-75.5 -32.5t-76 32.5t-32 76.5z" />
<glyph unicode="&#xd0;" horiz-adv-x="1359" d="M61 758q0 32 22.5 55t53.5 23h74v540q0 31 22.5 53.5t53.5 22.5h407q123 0 218 -40t155.5 -106.5t99.5 -161t54.5 -196.5t15.5 -221q0 -366 -141 -546.5t-402 -180.5h-407q-30 0 -53 23t-23 53v606h-74q-31 0 -53.5 22.5t-22.5 53.5zM365 154h329q97 0 168.5 33t113 85.5 t66.5 131t33 153.5t8 170q0 160 -26 272t-78 177.5t-121.5 94.5t-163.5 29h-329v-464h288q31 0 53.5 -23t22.5 -55q0 -31 -22.5 -53.5t-53.5 -22.5h-288v-528z" />
<glyph unicode="&#xd1;" horiz-adv-x="1339" d="M174 76v1300q0 31 23 53.5t55 22.5q42 0 63 -35l699 -1081v1040q0 31 22 53.5t54 22.5t53.5 -22.5t21.5 -53.5v-1300q0 -32 -21 -54t-54 -22q-43 0 -64 35l-698 1081v-1040q0 -32 -22.5 -54t-53.5 -22q-32 0 -55 22t-23 54zM424 1612q0 54 58.5 88.5t113.5 34.5 q36 0 66.5 -13t51 -26t31.5 -13q23 0 39 19q26 29 62 29q32 0 54 -23t22 -53q0 -37 -32.5 -67t-72.5 -44t-74 -14q-65 0 -120 43q-11 8 -27 8q-24 0 -37 -16q-26 -29 -59 -29q-25 0 -47 16q-29 20 -29 60z" />
<glyph unicode="&#xd2;" horiz-adv-x="1331" d="M123 731q0 367 140.5 555.5t402.5 188.5q258 0 400 -189.5t142 -554.5q0 -366 -142 -560t-398 -194q-257 0 -401 194t-144 560zM276 731q0 -75 6.5 -142t22 -137t45 -126t71 -101t104.5 -69.5t141 -24.5t141 24.5t104.5 69.5t70.5 100.5t44.5 126.5t22 137.5t6.5 141.5 q0 590 -389 590q-390 0 -390 -590zM522 1767q0 29 22 52.5t56 23.5q46 0 68 -39l90 -166q10 -20 10 -36q0 -30 -22 -53t-54 -23q-48 0 -67 39l-93 166q-10 17 -10 36z" />
<glyph unicode="&#xd3;" horiz-adv-x="1331" d="M123 731q0 367 140.5 555.5t402.5 188.5q258 0 400 -189.5t142 -554.5q0 -366 -142 -560t-398 -194q-257 0 -401 194t-144 560zM276 731q0 -75 6.5 -142t22 -137t45 -126t71 -101t104.5 -69.5t141 -24.5t141 24.5t104.5 69.5t70.5 100.5t44.5 126.5t22 137.5t6.5 141.5 q0 590 -389 590q-390 0 -390 -590zM575 1602q0 14 11 36l92 166q22 39 67 39q34 0 55 -22.5t21 -53.5q0 -16 -10 -36l-90 -166q-22 -39 -68 -39q-32 0 -55 23t-23 53z" />
<glyph unicode="&#xd4;" horiz-adv-x="1331" d="M123 731q0 367 140.5 555.5t402.5 188.5q258 0 400 -189.5t142 -554.5q0 -366 -142 -560t-398 -194q-257 0 -401 194t-144 560zM276 731q0 -75 6.5 -142t22 -137t45 -126t71 -101t104.5 -69.5t141 -24.5t141 24.5t104.5 69.5t70.5 100.5t44.5 126.5t22 137.5t6.5 141.5 q0 590 -389 590q-390 0 -390 -590zM444 1626q0 32 23 55l172 172q23 23 53 23q33 0 56 -23l172 -172q22 -22 22 -55q0 -32 -23.5 -54t-54.5 -22q-33 0 -53 23l-119 119l-117 -119q-26 -23 -55 -23q-32 0 -54 23t-22 53z" />
<glyph unicode="&#xd5;" horiz-adv-x="1331" d="M123 731q0 367 140.5 555.5t402.5 188.5q258 0 400 -189.5t142 -554.5q0 -366 -142 -560t-398 -194q-257 0 -401 194t-144 560zM276 731q0 -75 6.5 -142t22 -137t45 -126t71 -101t104.5 -69.5t141 -24.5t141 24.5t104.5 69.5t70.5 100.5t44.5 126.5t22 137.5t6.5 141.5 q0 590 -389 590q-390 0 -390 -590zM412 1632q0 54 58.5 88.5t113.5 34.5q36 0 66.5 -12.5t51 -25.5t31.5 -13q24 0 39 18q26 29 62 29q31 0 53 -23t22 -53q0 -37 -32 -67t-72 -44t-74 -14q-66 0 -121 43q-12 9 -26 9q-23 0 -37 -17q-26 -29 -60 -29q-23 0 -47 17 q-28 20 -28 59z" />
<glyph unicode="&#xd6;" horiz-adv-x="1331" d="M123 731q0 367 140.5 555.5t402.5 188.5q258 0 400 -189.5t142 -554.5q0 -366 -142 -560t-398 -194q-257 0 -401 194t-144 560zM276 731q0 -75 6.5 -142t22 -137t45 -126t71 -101t104.5 -69.5t141 -24.5t141 24.5t104.5 69.5t70.5 100.5t44.5 126.5t22 137.5t6.5 141.5 q0 590 -389 590q-390 0 -390 -590zM408 1694q0 44 32 75t76 31t75.5 -31t31.5 -75t-31.5 -76.5t-75.5 -32.5t-76 32.5t-32 76.5zM721 1694q0 44 32 75t76 31t75.5 -31t31.5 -75t-31.5 -76.5t-75.5 -32.5t-76 32.5t-32 76.5z" />
<glyph unicode="&#xd7;" horiz-adv-x="1161" d="M164 76q0 30 22 55l287 285l-287 286q-22 22 -22 54t22.5 53.5t55.5 21.5t53 -20l287 -287l284 287q20 20 54 20q32 0 54.5 -22t22.5 -53q0 -32 -22 -54l-285 -286l285 -285q22 -25 22 -55t-22.5 -53t-52.5 -23t-56 23l-284 284l-287 -284q-23 -23 -53 -23 q-32 0 -55 22.5t-23 53.5z" />
<glyph unicode="&#xd8;" horiz-adv-x="1331" d="M123 731q0 367 140.5 555.5t402.5 188.5q196 0 327 -113l39 57q20 33 64 33q32 0 53.5 -22.5t21.5 -53.5q0 -22 -12 -43l-63 -96q112 -183 112 -506q0 -366 -142 -560t-398 -194q-200 0 -328 113l-37 -55q-24 -35 -65 -35q-33 0 -54.5 24t-21.5 54q0 23 12 41l64 96 q-115 189 -115 516zM276 731q0 -228 58 -371l573 871q-93 90 -241 90q-390 0 -390 -590zM424 219q91 -88 242 -88q78 0 141 24.5t104.5 69.5t70.5 100.5t44.5 126.5t22 137.5t6.5 141.5q0 214 -56 359z" />
<glyph unicode="&#xd9;" horiz-adv-x="1357" d="M164 481v895q0 32 23 54t55 22q31 0 53 -22t22 -54v-895q0 -170 97 -260t264 -90q171 0 266.5 89t95.5 261v895q0 32 22.5 54t53.5 22q32 0 55 -22t23 -54v-895q0 -232 -145 -368t-371 -136q-145 0 -261 59.5t-184.5 175t-68.5 269.5zM543 1747q0 29 22 52.5t56 23.5 q45 0 67 -39l90 -166q10 -20 10 -37q0 -30 -22 -53t-53 -23q-49 0 -68 39l-92 166q-10 17 -10 37z" />
<glyph unicode="&#xda;" horiz-adv-x="1357" d="M164 481v895q0 32 23 54t55 22q31 0 53 -22t22 -54v-895q0 -170 97 -260t264 -90q171 0 266.5 89t95.5 261v895q0 32 22.5 54t53.5 22q32 0 55 -22t23 -54v-895q0 -232 -145 -368t-371 -136q-145 0 -261 59.5t-184.5 175t-68.5 269.5zM575 1581q0 15 11 37l92 166 q22 39 67 39q34 0 55 -22.5t21 -53.5q0 -17 -10 -37l-90 -166q-22 -39 -68 -39q-32 0 -55 23t-23 53z" />
<glyph unicode="&#xdb;" horiz-adv-x="1357" d="M164 481v895q0 32 23 54t55 22q31 0 53 -22t22 -54v-895q0 -170 97 -260t264 -90q171 0 266.5 89t95.5 261v895q0 32 22.5 54t53.5 22q32 0 55 -22t23 -54v-895q0 -232 -145 -368t-371 -136q-145 0 -261 59.5t-184.5 175t-68.5 269.5zM444 1606q0 32 23 55l172 172 q22 22 53 22q34 0 56 -22l172 -172q22 -22 22 -55q0 -32 -23.5 -54t-54.5 -22q-34 0 -53 22l-119 119l-117 -119q-25 -22 -55 -22q-32 0 -54 23t-22 53z" />
<glyph unicode="&#xdc;" horiz-adv-x="1357" d="M164 481v895q0 32 23 54t55 22q31 0 53 -22t22 -54v-895q0 -170 97 -260t264 -90q171 0 266.5 89t95.5 261v895q0 32 22.5 54t53.5 22q32 0 55 -22t23 -54v-895q0 -232 -145 -368t-371 -136q-145 0 -261 59.5t-184.5 175t-68.5 269.5zM408 1694q0 44 32 75t76 31 t75.5 -31t31.5 -75t-31.5 -76.5t-75.5 -32.5t-76 32.5t-32 76.5zM721 1694q0 44 32 75t76 31t75.5 -31t31.5 -75t-31.5 -76.5t-75.5 -32.5t-76 32.5t-32 76.5z" />
<glyph unicode="&#xdd;" horiz-adv-x="1210" d="M41 1380q0 29 22 52.5t54 23.5q39 0 61 -31l428 -565l426 565q22 31 62 31q32 0 53.5 -23.5t21.5 -52.5q0 -28 -14 -45l-473 -628v-629q0 -32 -23 -55t-53 -23q-33 0 -55.5 23.5t-22.5 54.5v629l-473 628q-14 17 -14 45zM489 1573q0 15 11 37l92 166q22 39 67 39 q34 0 55 -22.5t21 -53.5q0 -17 -10 -37l-90 -166q-22 -39 -68 -39q-32 0 -55 23t-23 53z" />
<glyph unicode="&#xde;" horiz-adv-x="1243" d="M174 76v1292q0 30 22 53t54 23t54 -23t22 -53v-244h391q171 0 287 -115t116 -286q0 -170 -115.5 -285.5t-287.5 -115.5h-391v-246q0 -30 -22 -53t-54 -23t-54 23t-22 53zM326 475h391q108 0 179 69.5t71 178.5q0 111 -70.5 179.5t-179.5 68.5h-391v-496z" />
<glyph unicode="&#xdf;" horiz-adv-x="1165" d="M164 76v987q0 180 109.5 296t281.5 116q179 0 295.5 -110t116.5 -282q0 -94 -39 -178.5t-109 -130.5q88 -58 135 -149t47 -201q0 -187 -124.5 -305.5t-321.5 -118.5h-74q-31 0 -53 22.5t-22 53.5q0 33 21.5 55.5t53.5 22.5h74q142 0 218.5 73.5t76.5 196.5 q0 121 -77 195.5t-218 74.5q-32 0 -54 22t-22 54t22 54t54 22q121 0 189 63.5t71 173.5q-3 111 -71 174.5t-189 63.5q-109 0 -173.5 -68.5t-64.5 -189.5v-987q0 -31 -22 -53.5t-53 -22.5q-32 0 -55 22.5t-23 53.5z" />
<glyph unicode="&#xe0;" horiz-adv-x="1282" d="M92 498q0 220 129 369t338 149q201 0 330 -123v14q0 31 22 53.5t54 22.5t53.5 -22.5t21.5 -53.5v-706q0 -13 7 -31.5t20 -26.5q41 -21 41 -69q0 -32 -23.5 -53t-52.5 -21q-46 0 -81.5 39t-47.5 78q-131 -137 -336 -137q-144 0 -253 70t-165.5 187t-56.5 261zM246 498 q0 -167 86.5 -266t234.5 -99t235 100t87 265q0 170 -87 268t-235 98q-149 0 -235 -99.5t-86 -266.5zM494 1370q0 29 21.5 52.5t55.5 23.5q46 0 68 -39l90 -166q10 -20 10 -37q0 -30 -22 -53t-53 -23q-49 0 -68 39l-92 166q-10 17 -10 37z" />
<glyph unicode="&#xe1;" horiz-adv-x="1282" d="M92 498q0 220 129 369t338 149q201 0 330 -123v14q0 31 22 53.5t54 22.5t53.5 -22.5t21.5 -53.5v-706q0 -13 7 -31.5t20 -26.5q41 -21 41 -69q0 -32 -23.5 -53t-52.5 -21q-46 0 -81.5 39t-47.5 78q-131 -137 -336 -137q-144 0 -253 70t-165.5 187t-56.5 261zM246 498 q0 -167 86.5 -266t234.5 -99t235 100t87 265q0 170 -87 268t-235 98q-149 0 -235 -99.5t-86 -266.5zM539 1204q0 17 10 37l92 166q22 39 68 39q34 0 54.5 -22.5t20.5 -53.5q0 -17 -10 -37l-90 -166q-22 -39 -68 -39q-32 0 -54.5 23t-22.5 53z" />
<glyph unicode="&#xe2;" horiz-adv-x="1282" d="M92 498q0 220 129 369t338 149q201 0 330 -123v14q0 31 22 53.5t54 22.5t53.5 -22.5t21.5 -53.5v-706q0 -13 7 -31.5t20 -26.5q41 -21 41 -69q0 -32 -23.5 -53t-52.5 -21q-46 0 -81.5 39t-47.5 78q-131 -137 -336 -137q-144 0 -253 70t-165.5 187t-56.5 261zM246 498 q0 -167 86.5 -266t234.5 -99t235 100t87 265q0 170 -87 268t-235 98q-149 0 -235 -99.5t-86 -266.5zM360 1229q0 32 23 55l172 172q23 23 53 23q33 0 56 -23l172 -172q22 -22 22 -55q0 -32 -23.5 -54t-54.5 -22q-33 0 -53 23l-119 118l-116 -118q-26 -23 -56 -23 q-32 0 -54 23t-22 53z" />
<glyph unicode="&#xe3;" horiz-adv-x="1282" d="M92 498q0 220 129 369t338 149q201 0 330 -123v14q0 31 22 53.5t54 22.5t53.5 -22.5t21.5 -53.5v-706q0 -13 7 -31.5t20 -26.5q41 -21 41 -69q0 -32 -23.5 -53t-52.5 -21q-46 0 -81.5 39t-47.5 78q-131 -137 -336 -137q-144 0 -253 70t-165.5 187t-56.5 261zM246 498 q0 -167 86.5 -266t234.5 -99t235 100t87 265q0 170 -87 268t-235 98q-149 0 -235 -99.5t-86 -266.5zM369 1235q0 54 58.5 88.5t113.5 34.5q36 0 66.5 -13t51 -25.5t31.5 -12.5q24 0 39 18q26 29 62 29q31 0 53 -23t22 -53q0 -37 -32 -67t-72 -44t-74 -14q-66 0 -121 43 q-11 8 -26 8q-24 0 -37 -16q-26 -29 -60 -29q-23 0 -47 17q-28 20 -28 59z" />
<glyph unicode="&#xe4;" horiz-adv-x="1282" d="M92 498q0 220 129 369t338 149q201 0 330 -123v14q0 31 22 53.5t54 22.5t53.5 -22.5t21.5 -53.5v-706q0 -13 7 -31.5t20 -26.5q41 -21 41 -69q0 -32 -23.5 -53t-52.5 -21q-46 0 -81.5 39t-47.5 78q-131 -137 -336 -137q-144 0 -253 70t-165.5 187t-56.5 261zM246 498 q0 -167 86.5 -266t234.5 -99t235 100t87 265q0 170 -87 268t-235 98q-149 0 -235 -99.5t-86 -266.5zM346 1317q0 44 32 75t77 31q44 0 75 -31t31 -75q0 -45 -31 -77t-75 -32t-76.5 32.5t-32.5 76.5zM659 1317q0 44 32 75t77 31q44 0 75 -31t31 -75q0 -45 -31 -77t-75 -32 t-76.5 32.5t-32.5 76.5z" />
<glyph unicode="&#xe5;" horiz-adv-x="1282" d="M92 498q0 220 129 369t338 149q201 0 330 -123v14q0 31 22 53.5t54 22.5t53.5 -22.5t21.5 -53.5v-706q0 -13 7 -31.5t20 -26.5q41 -21 41 -69q0 -32 -23.5 -53t-52.5 -21q-46 0 -81.5 39t-47.5 78q-131 -137 -336 -137q-144 0 -253 70t-165.5 187t-56.5 261zM246 498 q0 -167 86.5 -266t234.5 -99t235 100t87 265q0 170 -87 268t-235 98q-149 0 -235 -99.5t-86 -266.5zM444 1315q0 66 47.5 113t114.5 47q66 0 113 -47t47 -113t-47 -113t-113 -47q-67 0 -114.5 47t-47.5 113zM530 1315q0 -31 22 -53.5t54 -22.5q31 0 53.5 22.5t22.5 53.5 q0 32 -22.5 54t-53.5 22q-32 0 -54 -22t-22 -54z" />
<glyph unicode="&#xe6;" horiz-adv-x="1990" d="M123 498q0 220 129 369t338 149q201 0 330 -123v14q0 31 21.5 53.5t53.5 22.5t54 -22.5t22 -53.5v-18q130 127 328 127q141 0 249.5 -71t164 -188t55.5 -259q0 -32 -23.5 -54t-54.5 -22h-713q20 -136 102.5 -212.5t213.5 -76.5q191 0 276 164q21 41 70 41q32 0 54 -23 t22 -53q0 -20 -9 -35q-59 -116 -167 -181.5t-246 -65.5q-150 0 -256 71q-7 -24 -28 -37.5t-46 -13.5q-46 0 -81.5 39t-47.5 78q-131 -137 -336 -137q-144 0 -253 70t-165.5 187t-56.5 261zM276 498q0 -167 86.5 -266t235.5 -99q145 0 231 94.5t91 253.5v21q0 170 -87.5 266 t-234.5 96q-150 0 -236 -99.5t-86 -266.5zM1077 573h631q-17 134 -101 212.5t-214 78.5q-131 0 -212.5 -77.5t-103.5 -213.5z" />
<glyph unicode="&#xe7;" horiz-adv-x="1110" d="M123 498q0 226 132 372t349 146q127 0 229.5 -59t163.5 -162q11 -22 11 -37q0 -30 -21.5 -54t-54.5 -24q-47 0 -68 37q-88 147 -266 147q-150 0 -236 -99.5t-86 -266.5t86.5 -266t235.5 -99q191 0 276 164q18 41 68 41q33 0 54.5 -23t21.5 -53q0 -22 -8 -35 q-43 -88 -118.5 -148t-172.5 -83q51 -18 81.5 -52t30.5 -100q0 -78 -63 -122t-145 -44q-74 0 -135.5 41t-61.5 97q0 30 21.5 52.5t54.5 22.5q48 0 69 -43q0 -2 4 -5t17.5 -7t32.5 -4q13 0 23 1.5t15.5 3.5t9 4t4.5 3l1 2q0 10 -4.5 13.5t-16.5 5.5q-54 9 -92.5 41t-50.5 82 q-181 29 -286 170.5t-105 339.5z" />
<glyph unicode="&#xe8;" d="M123 502q0 225 132 369.5t347 144.5q141 0 249.5 -71t164 -188t55.5 -259q0 -32 -23.5 -54t-54.5 -22h-712q20 -136 102 -212.5t213 -76.5q191 0 276 164q21 41 70 41q32 0 54 -23t22 -53q0 -22 -8 -35q-59 -115 -167.5 -181t-246.5 -66q-143 0 -251.5 68.5t-165 186.5 t-56.5 267zM281 573h630q-17 134 -101 212.5t-214 78.5q-131 0 -212 -77.5t-103 -213.5zM451 1370q0 29 21.5 52.5t55.5 23.5q46 0 68 -39l90 -166q10 -20 10 -37q0 -30 -22 -53t-53 -23q-49 0 -68 39l-92 166q-10 17 -10 37z" />
<glyph unicode="&#xe9;" d="M123 502q0 225 132 369.5t347 144.5q141 0 249.5 -71t164 -188t55.5 -259q0 -32 -23.5 -54t-54.5 -22h-712q20 -136 102 -212.5t213 -76.5q191 0 276 164q21 41 70 41q32 0 54 -23t22 -53q0 -22 -8 -35q-59 -115 -167.5 -181t-246.5 -66q-143 0 -251.5 68.5t-165 186.5 t-56.5 267zM281 573h630q-17 134 -101 212.5t-214 78.5q-131 0 -212 -77.5t-103 -213.5zM477 1204q0 17 10 37l93 166q22 39 67 39q34 0 55 -22.5t21 -53.5q0 -17 -10 -37l-90 -166q-22 -39 -68 -39q-32 0 -55 23t-23 53z" />
<glyph unicode="&#xea;" d="M123 502q0 225 132 369.5t347 144.5q141 0 249.5 -71t164 -188t55.5 -259q0 -32 -23.5 -54t-54.5 -22h-712q20 -136 102 -212.5t213 -76.5q191 0 276 164q21 41 70 41q32 0 54 -23t22 -53q0 -22 -8 -35q-59 -115 -167.5 -181t-246.5 -66q-143 0 -251.5 68.5t-165 186.5 t-56.5 267zM281 573h630q-17 134 -101 212.5t-214 78.5q-131 0 -212 -77.5t-103 -213.5zM346 1229q0 32 23 55l172 172q23 23 53 23q32 0 55 -23l172 -172q23 -23 23 -55t-23.5 -54t-54.5 -22q-33 0 -53 23l-119 118l-117 -118q-26 -23 -55 -23q-32 0 -54 23t-22 53z" />
<glyph unicode="&#xeb;" d="M123 502q0 225 132 369.5t347 144.5q141 0 249.5 -71t164 -188t55.5 -259q0 -32 -23.5 -54t-54.5 -22h-712q20 -136 102 -212.5t213 -76.5q191 0 276 164q21 41 70 41q32 0 54 -23t22 -53q0 -22 -8 -35q-59 -115 -167.5 -181t-246.5 -66q-143 0 -251.5 68.5t-165 186.5 t-56.5 267zM281 573h630q-17 134 -101 212.5t-214 78.5q-131 0 -212 -77.5t-103 -213.5zM330 1317q0 44 32 75t76 31t75.5 -31t31.5 -75t-31.5 -76.5t-75.5 -32.5t-76 32.5t-32 76.5zM643 1317q0 44 32 75t77 31q44 0 75 -31t31 -75q0 -45 -31 -77t-75 -32t-76.5 32.5 t-32.5 76.5z" />
<glyph unicode="&#xec;" horiz-adv-x="489" d="M84 1370q0 29 22 52.5t56 23.5q45 0 67 -39l90 -166q11 -22 11 -37q0 -30 -22 -53t-54 -23q-49 0 -68 39l-92 166q-10 17 -10 37zM168 76v829q0 32 23 55t55 23q31 0 53.5 -23t22.5 -55v-829q0 -32 -22.5 -55t-53.5 -23q-32 0 -55 23t-23 55z" />
<glyph unicode="&#xed;" horiz-adv-x="489" d="M168 76v829q0 32 23 55t55 23q31 0 53.5 -23t22.5 -55v-829q0 -32 -22.5 -55t-53.5 -23q-32 0 -55 23t-23 55zM182 1204q0 15 11 37l92 166q22 39 67 39q34 0 55 -22.5t21 -53.5q0 -17 -10 -37l-90 -166q-22 -39 -68 -39q-32 0 -55 23t-23 53z" />
<glyph unicode="&#xee;" horiz-adv-x="489" d="M-2 1229q0 33 22 55l173 172q23 23 53 23q32 0 55 -23l172 -172q23 -23 23 -55t-23.5 -54t-54.5 -22q-33 0 -53 23l-119 118l-117 -118q-26 -23 -55 -23q-32 0 -54 23t-22 53zM168 76v829q0 32 23 55t55 23q31 0 53.5 -23t22.5 -55v-829q0 -32 -22.5 -55t-53.5 -23 q-32 0 -55 23t-23 55z" />
<glyph unicode="&#xef;" horiz-adv-x="489" d="M-20 1317q0 44 32 75t76 31t75.5 -31t31.5 -75t-31.5 -76.5t-75.5 -32.5t-76 32.5t-32 76.5zM168 76v829q0 32 23 55t55 23q31 0 53.5 -23t22.5 -55v-829q0 -32 -22.5 -55t-53.5 -23q-32 0 -55 23t-23 55zM293 1317q0 44 32 75t76 31t75.5 -31t31.5 -75t-31.5 -76.5 t-75.5 -32.5t-76 32.5t-32 76.5z" />
<glyph unicode="&#xf0;" horiz-adv-x="1155" d="M123 475q0 214 125 356t330 142q114 0 206 -47q-44 86 -96 153l-72 -39q-20 -10 -36 -10q-30 0 -54 22t-24 56q0 20 11 39t30 29l28 14q-110 85 -241 113q-28 6 -45 26.5t-17 48.5q0 32 23.5 54t54.5 22q2 0 6.5 -1t7.5 -1q198 -41 357 -182l139 76q13 8 35 8 q30 0 53 -21t23 -55q0 -46 -39 -68l-105 -57q209 -276 209 -676q0 -214 -124.5 -355.5t-329.5 -141.5q-206 0 -330.5 141.5t-124.5 353.5zM274 475q0 -157 81.5 -249.5t222.5 -92.5q135 0 217 92q84 94 84 250q0 160 -81.5 252t-219.5 92q-140 0 -222 -94.5t-82 -249.5z" />
<glyph unicode="&#xf1;" horiz-adv-x="1234" d="M143 907q0 31 23 53.5t55 22.5q35 0 66 -27.5t51 -66.5q124 127 313 127q197 0 319 -136.5t122 -344.5v-459q0 -32 -22.5 -54t-53.5 -22q-32 0 -55 22t-23 54v459q0 142 -75.5 235.5t-211.5 93.5q-128 0 -209 -88q-80 -90 -80 -241v-459q0 -32 -21.5 -54t-53.5 -22 t-54 22t-22 54v702q0 17 -6 35t-21 27q-41 21 -41 67zM387 1235q0 54 58.5 88.5t113.5 34.5q36 0 67 -13t51.5 -25.5t31.5 -12.5q24 0 39 18q26 29 61 29q32 0 54 -23t22 -53q0 -37 -32 -67t-72 -44t-74 -14q-66 0 -121 43q-11 8 -27 8q-24 0 -37 -16q-26 -29 -59 -29 q-23 0 -47 17q-29 20 -29 59z" />
<glyph unicode="&#xf2;" d="M123 500q0 143 56 259.5t166 187.5t253 71q212 0 342.5 -146.5t130.5 -371.5q0 -146 -57.5 -264t-166.5 -187t-249 -69q-214 0 -344.5 147.5t-130.5 372.5zM276 500q0 -166 88 -266.5t234 -100.5t234 100.5t88 266.5q0 96 -34 177t-109 134t-179 53t-179 -53t-109 -134 t-34 -177zM455 1370q0 29 21.5 52.5t55.5 23.5q46 0 68 -39l90 -166q10 -20 10 -37q0 -30 -22 -53t-53 -23q-49 0 -68 39l-92 166q-10 17 -10 37z" />
<glyph unicode="&#xf3;" d="M123 500q0 143 56 259.5t166 187.5t253 71q212 0 342.5 -146.5t130.5 -371.5q0 -146 -57.5 -264t-166.5 -187t-249 -69q-214 0 -344.5 147.5t-130.5 372.5zM276 500q0 -166 88 -266.5t234 -100.5t234 100.5t88 266.5q0 96 -34 177t-109 134t-179 53t-179 -53t-109 -134 t-34 -177zM479 1204q0 17 10 37l93 166q22 39 67 39q34 0 55 -22.5t21 -53.5q0 -17 -10 -37l-90 -166q-22 -39 -68 -39q-32 0 -55 23t-23 53z" />
<glyph unicode="&#xf4;" d="M123 500q0 143 56 259.5t166 187.5t253 71q212 0 342.5 -146.5t130.5 -371.5q0 -146 -57.5 -264t-166.5 -187t-249 -69q-214 0 -344.5 147.5t-130.5 372.5zM276 500q0 -166 88 -266.5t234 -100.5t234 100.5t88 266.5q0 96 -34 177t-109 134t-179 53t-179 -53t-109 -134 t-34 -177zM348 1229q0 32 23 55l172 172q23 23 53 23q32 0 55 -23l172 -172q23 -23 23 -55t-23.5 -54t-54.5 -22q-33 0 -53 23l-119 118l-117 -118q-26 -23 -55 -23q-32 0 -54 23t-22 53z" />
<glyph unicode="&#xf5;" d="M123 500q0 143 56 259.5t166 187.5t253 71q212 0 342.5 -146.5t130.5 -371.5q0 -146 -57.5 -264t-166.5 -187t-249 -69q-214 0 -344.5 147.5t-130.5 372.5zM276 500q0 -166 88 -266.5t234 -100.5t234 100.5t88 266.5q0 96 -34 177t-109 134t-179 53t-179 -53t-109 -134 t-34 -177zM348 1235q0 54 58.5 88.5t113.5 34.5q36 0 67 -13t51.5 -25.5t31.5 -12.5q24 0 39 18q26 29 61 29q32 0 54 -23t22 -53q0 -37 -32 -67t-72 -44t-74 -14q-66 0 -121 43q-11 8 -27 8q-24 0 -37 -16q-26 -29 -59 -29q-23 0 -47 17q-29 20 -29 59z" />
<glyph unicode="&#xf6;" d="M123 500q0 143 56 259.5t166 187.5t253 71q212 0 342.5 -146.5t130.5 -371.5q0 -146 -57.5 -264t-166.5 -187t-249 -69q-214 0 -344.5 147.5t-130.5 372.5zM276 500q0 -166 88 -266.5t234 -100.5t234 100.5t88 266.5q0 96 -34 177t-109 134t-179 53t-179 -53t-109 -134 t-34 -177zM326 1317q0 44 32 75t76 31t75.5 -31t31.5 -75t-31.5 -76.5t-75.5 -32.5t-76 32.5t-32 76.5zM639 1317q0 44 32 75t77 31q44 0 75 -31t31 -75q0 -45 -31 -77t-75 -32t-76.5 32.5t-32.5 76.5z" />
<glyph unicode="&#xf7;" horiz-adv-x="1417" d="M164 500q0 32 23 55t55 23h932q32 0 54.5 -23t22.5 -55q0 -31 -22.5 -53.5t-54.5 -22.5h-932q-32 0 -55 22.5t-23 53.5zM600 162q0 44 32 76t77 32q44 0 75 -32t31 -76t-31 -75.5t-75 -31.5q-46 0 -77.5 31.5t-31.5 75.5zM600 838q0 44 32 76t77 32q44 0 75 -32t31 -76 q0 -45 -31 -77t-75 -32q-45 0 -77 32t-32 77z" />
<glyph unicode="&#xf8;" d="M115 78q0 31 20 51l64 70q-76 130 -76 301q0 143 56 259.5t166 187.5t253 71q152 0 272 -84l74 80q23 26 57 26q31 0 53.5 -23t22.5 -54q0 -32 -20 -52l-80 -88q94 -136 94 -323q0 -146 -57.5 -264t-166.5 -187t-249 -69q-173 0 -297 100l-51 -55q-25 -25 -57 -25 t-55 23.5t-23 54.5zM276 500q0 -97 33 -181l457 500q-73 45 -168 45q-104 0 -179 -53t-109 -134t-34 -177zM403 195q80 -62 195 -62q146 0 234 100.5t88 266.5q0 115 -50 207z" />
<glyph unicode="&#xf9;" horiz-adv-x="1140" d="M143 434v473q0 31 22 53.5t54 22.5t54 -22.5t22 -53.5v-473q0 -139 77.5 -221t200.5 -82q77 0 133.5 21t116.5 81v674q0 31 23 53.5t55 22.5q31 0 53.5 -22.5t22.5 -53.5v-831q0 -32 -23 -54t-53 -22q-51 0 -70 43q-116 -66 -258 -66q-189 0 -309.5 130t-120.5 327z M424 1370q0 29 22 52.5t56 23.5q45 0 67 -39l90 -166q11 -22 11 -37q0 -30 -22 -53t-54 -23q-49 0 -68 39l-92 166q-10 17 -10 37z" />
<glyph unicode="&#xfa;" horiz-adv-x="1140" d="M143 434v473q0 31 22 53.5t54 22.5t54 -22.5t22 -53.5v-473q0 -139 77.5 -221t200.5 -82q77 0 133.5 21t116.5 81v674q0 31 23 53.5t55 22.5q31 0 53.5 -22.5t22.5 -53.5v-831q0 -32 -23 -54t-53 -22q-51 0 -70 43q-116 -66 -258 -66q-189 0 -309.5 130t-120.5 327z M477 1204q0 17 10 37l93 166q22 39 67 39q34 0 55 -22.5t21 -53.5q0 -17 -10 -37l-90 -166q-22 -39 -68 -39q-32 0 -55 23t-23 53z" />
<glyph unicode="&#xfb;" horiz-adv-x="1140" d="M143 434v473q0 31 22 53.5t54 22.5t54 -22.5t22 -53.5v-473q0 -139 77.5 -221t200.5 -82q77 0 133.5 21t116.5 81v674q0 31 23 53.5t55 22.5q31 0 53.5 -22.5t22.5 -53.5v-831q0 -32 -23 -54t-53 -22q-51 0 -70 43q-116 -66 -258 -66q-189 0 -309.5 130t-120.5 327z M324 1229q0 33 22 55l172 172q23 23 53 23q33 0 56 -23l172 -172q22 -22 22 -55q0 -32 -23.5 -54t-54.5 -22q-33 0 -53 23l-119 118l-116 -118q-26 -23 -56 -23q-31 0 -53 23t-22 53z" />
<glyph unicode="&#xfc;" horiz-adv-x="1140" d="M143 434v473q0 31 22 53.5t54 22.5t54 -22.5t22 -53.5v-473q0 -139 77.5 -221t200.5 -82q77 0 133.5 21t116.5 81v674q0 31 23 53.5t55 22.5q31 0 53.5 -22.5t22.5 -53.5v-831q0 -32 -23 -54t-53 -22q-51 0 -70 43q-116 -66 -258 -66q-189 0 -309.5 130t-120.5 327z M295 1317q0 44 32 75t76 31t75.5 -31t31.5 -75t-31.5 -76.5t-75.5 -32.5t-76 32.5t-32 76.5zM608 1317q0 44 32 75t77 31q44 0 75 -31t31 -75q0 -45 -31 -77t-75 -32t-76.5 32.5t-32.5 76.5z" />
<glyph unicode="&#xfd;" horiz-adv-x="1073" d="M61 907q0 29 22 52.5t56 23.5q46 0 68 -39l332 -608l329 608q22 39 68 39q32 0 54 -23.5t22 -52.5q0 -21 -8 -37l-562 -1034q-73 -121 -188 -121q-30 0 -53 23t-23 51q0 34 21.5 56t56.5 22q12 0 26 11t23 28l148 268l-381 696q-11 18 -11 37zM477 1204q0 17 10 37 l93 166q22 39 67 39q34 0 55 -22.5t21 -53.5q0 -17 -10 -37l-90 -166q-22 -39 -68 -39q-32 0 -55 23t-23 53z" />
<glyph unicode="&#xfe;" horiz-adv-x="1120" d="M164 -195v1571q0 32 22 54t54 22t53.5 -22t21.5 -54v-424q109 92 265 92q126 0 222 -61.5t145.5 -164t49.5 -228.5q0 -124 -49.5 -227t-145.5 -165.5t-220 -62.5q-155 0 -267 92v-422q0 -32 -21.5 -54.5t-53.5 -22.5t-54 22.5t-22 54.5zM315 590q0 -137 71 -219t194 -82 q121 0 192.5 86.5t71.5 212.5q0 141 -71 223t-193 82t-193.5 -82.5t-71.5 -218.5v-2z" />
<glyph unicode="&#xff;" horiz-adv-x="1073" d="M61 907q0 29 22 52.5t56 23.5q46 0 68 -39l332 -608l329 608q22 39 68 39q32 0 54 -23.5t22 -52.5q0 -21 -8 -37l-562 -1034q-73 -121 -188 -121q-30 0 -53 23t-23 51q0 34 21.5 56t56.5 22q12 0 26 11t23 28l148 268l-381 696q-11 18 -11 37zM276 1317q0 44 32 75t77 31 q44 0 75.5 -31t31.5 -75t-31.5 -76.5t-75.5 -32.5t-76.5 32.5t-32.5 76.5zM590 1317q0 44 32 75t76 31t75.5 -31t31.5 -75t-31.5 -76.5t-75.5 -32.5t-76 32.5t-32 76.5z" />
<glyph unicode="&#x152;" horiz-adv-x="2162" d="M123 731q0 367 140.5 555.5t402.5 188.5q260 0 401 -191v92q0 32 23 55t55 23h797q31 0 53 -23t22 -55q0 -31 -22 -53.5t-53 -22.5h-721v-464h653q32 0 55 -22.5t23 -53.5q0 -32 -23 -55t-55 -23h-653v-528h741q32 0 55 -22.5t23 -53.5q0 -32 -23 -55t-55 -23h-817 q-32 0 -55 23t-23 55v94q-142 -195 -399 -195t-401 194t-144 560zM276 731q0 -75 6.5 -142t22 -137t45 -126t71 -101t104.5 -69.5t141 -24.5t141 24.5t104.5 69.5t70.5 100.5t44.5 126.5t22 137.5t6.5 141.5q0 590 -389 590q-390 0 -390 -590z" />
<glyph unicode="&#x153;" horiz-adv-x="1994" d="M123 500q0 143 56 259.5t166 187.5t253 71q131 0 234.5 -60t164.5 -165q63 105 167.5 164t238.5 59q141 0 249.5 -71t164 -188t55.5 -259q0 -32 -23.5 -54t-54.5 -22h-713q20 -136 102.5 -212.5t213.5 -76.5q191 0 276 164q21 41 70 41q32 0 54 -23t22 -53q0 -20 -9 -35 q-59 -116 -167 -181.5t-246 -65.5q-135 0 -237.5 59.5t-164.5 165.5q-62 -105 -164 -165t-233 -60q-214 0 -344.5 147.5t-130.5 372.5zM276 500q0 -166 88 -266.5t234 -100.5t234 100.5t88 266.5q0 96 -34 177t-109 134t-179 53t-179 -53t-109 -134t-34 -177zM1081 573h631 q-17 134 -101 212.5t-214 78.5q-131 0 -212.5 -77.5t-103.5 -213.5z" />
<glyph unicode="&#x178;" horiz-adv-x="1210" d="M41 1380q0 29 22 52.5t54 23.5q39 0 61 -31l428 -565l426 565q22 31 62 31q32 0 53.5 -23.5t21.5 -52.5q0 -28 -14 -45l-473 -628v-629q0 -32 -23 -55t-53 -23q-33 0 -55.5 23.5t-22.5 54.5v629l-473 628q-14 17 -14 45zM334 1634q0 44 32 75.5t76 31.5t75.5 -31.5 t31.5 -75.5t-31.5 -76t-75.5 -32t-76 32t-32 76zM647 1634q0 44 32.5 75.5t76.5 31.5t75 -31.5t31 -75.5t-31 -76t-75 -32t-76.5 32t-32.5 76z" />
<glyph unicode="&#x2c6;" horiz-adv-x="1376" d="M451 1229q0 33 22 55l172 172q23 23 53 23q33 0 56 -23l172 -172q22 -22 22 -55q0 -32 -23.5 -54t-54.5 -22q-33 0 -53 23l-119 118l-116 -118q-26 -23 -56 -23q-31 0 -53 23t-22 53z" />
<glyph unicode="&#x2dc;" horiz-adv-x="1191" d="M369 1235q0 54 58.5 88.5t113.5 34.5q36 0 66.5 -13t51 -25.5t31.5 -12.5q24 0 39 18q26 29 62 29q31 0 53 -23t22 -53q0 -37 -32 -67t-72 -44t-74 -14q-66 0 -121 43q-11 8 -26 8q-24 0 -37 -16q-26 -29 -60 -29q-23 0 -47 17q-28 20 -28 59z" />
<glyph unicode="&#x2000;" horiz-adv-x="938" />
<glyph unicode="&#x2001;" horiz-adv-x="1876" />
<glyph unicode="&#x2002;" horiz-adv-x="938" />
<glyph unicode="&#x2003;" horiz-adv-x="1876" />
<glyph unicode="&#x2004;" horiz-adv-x="625" />
<glyph unicode="&#x2005;" horiz-adv-x="469" />
<glyph unicode="&#x2006;" horiz-adv-x="312" />
<glyph unicode="&#x2007;" horiz-adv-x="312" />
<glyph unicode="&#x2008;" horiz-adv-x="234" />
<glyph unicode="&#x2009;" horiz-adv-x="375" />
<glyph unicode="&#x200a;" horiz-adv-x="104" />
<glyph unicode="&#x2010;" horiz-adv-x="1075" d="M164 543q0 32 23 55t55 23h592q32 0 54.5 -23t22.5 -55q0 -31 -22.5 -53.5t-54.5 -22.5h-592q-32 0 -55 22.5t-23 53.5z" />
<glyph unicode="&#x2011;" horiz-adv-x="1075" d="M164 543q0 32 23 55t55 23h592q32 0 54.5 -23t22.5 -55q0 -31 -22.5 -53.5t-54.5 -22.5h-592q-32 0 -55 22.5t-23 53.5z" />
<glyph unicode="&#x2012;" horiz-adv-x="1075" d="M164 543q0 32 23 55t55 23h592q32 0 54.5 -23t22.5 -55q0 -31 -22.5 -53.5t-54.5 -22.5h-592q-32 0 -55 22.5t-23 53.5z" />
<glyph unicode="&#x2013;" horiz-adv-x="1212" d="M164 543q0 32 23 55t55 23h729q32 0 55 -23t23 -55q0 -31 -23 -53.5t-55 -22.5h-729q-32 0 -55 22.5t-23 53.5z" />
<glyph unicode="&#x2014;" horiz-adv-x="1667" d="M164 543q0 32 23 55t55 23h1183q32 0 55 -23t23 -55q0 -31 -23 -53.5t-55 -22.5h-1183q-32 0 -55 22.5t-23 53.5z" />
<glyph unicode="&#x2018;" horiz-adv-x="479" d="M164 1055v319q0 32 23 54t55 22q31 0 53 -22t22 -54v-319q0 -32 -22 -55t-53 -23q-32 0 -55 23t-23 55z" />
<glyph unicode="&#x2019;" horiz-adv-x="481" d="M164 1055v319q0 32 23 54t55 22q31 0 53 -22t22 -54v-319q0 -32 -22 -55t-53 -23q-32 0 -55 23t-23 55z" />
<glyph unicode="&#x201a;" horiz-adv-x="481" d="M164 88q0 32 23 54t55 22q31 0 53 -22t22 -54v-319q0 -32 -22 -55t-53 -23q-32 0 -55 23t-23 55v319z" />
<glyph unicode="&#x201c;" horiz-adv-x="768" d="M164 1055v319q0 32 23 54t55 22q31 0 53 -22t22 -54v-319q0 -32 -22 -55t-53 -23q-32 0 -55 23t-23 55zM451 1055v319q0 32 22.5 54t54.5 22q31 0 53.5 -22t22.5 -54v-319q0 -32 -22.5 -55t-53.5 -23q-32 0 -54.5 23t-22.5 55z" />
<glyph unicode="&#x201d;" horiz-adv-x="768" d="M164 1055v319q0 32 23 54t55 22q31 0 53 -22t22 -54v-319q0 -32 -22 -55t-53 -23q-32 0 -55 23t-23 55zM451 1055v319q0 32 22.5 54t54.5 22q31 0 53.5 -22t22.5 -54v-319q0 -32 -22.5 -55t-53.5 -23q-32 0 -54.5 23t-22.5 55z" />
<glyph unicode="&#x201e;" horiz-adv-x="768" d="M164 88q0 32 23 54t55 22q31 0 53 -22t22 -54v-319q0 -32 -22 -55t-53 -23q-32 0 -55 23t-23 55v319zM451 88q0 32 22.5 54t54.5 22q31 0 53.5 -22t22.5 -54v-319q0 -32 -22.5 -55t-53.5 -23q-32 0 -54.5 23t-22.5 55v319z" />
<glyph unicode="&#x2022;" horiz-adv-x="804" d="M164 727q0 99 70 169.5t169 70.5q98 0 168 -71t70 -169q0 -100 -70 -170t-168 -70q-100 0 -169.5 70t-69.5 170z" />
<glyph unicode="&#x2026;" horiz-adv-x="1341" d="M164 109q0 44 31 75t75 31q45 0 77 -31t32 -75t-32.5 -76.5t-76.5 -32.5t-75 32t-31 77zM567 109q0 44 31.5 75t75.5 31t76 -31t32 -75t-32 -76.5t-76 -32.5t-75.5 32.5t-31.5 76.5zM963 109q0 44 31 75t75 31q45 0 77 -31t32 -75t-32.5 -76.5t-76.5 -32.5t-75 32t-31 77 z" />
<glyph unicode="&#x202f;" horiz-adv-x="375" />
<glyph unicode="&#x2039;" horiz-adv-x="757" d="M152 481q0 32 22 54l291 288q21 21 53 21t54 -22t22 -54q0 -33 -23 -53l-233 -234l233 -233q23 -23 23 -55q0 -33 -23 -54.5t-53 -21.5q-34 0 -53 22l-291 287q-22 22 -22 55z" />
<glyph unicode="&#x203a;" horiz-adv-x="772" d="M164 193q0 33 22 55l234 233l-234 234q-22 19 -22 53q0 32 22 54t54 22t53 -21l291 -288q22 -22 22 -54q0 -33 -22 -55l-291 -287q-19 -22 -53 -22q-30 0 -53 21.5t-23 54.5z" />
<glyph unicode="&#x205f;" horiz-adv-x="469" />
<glyph unicode="&#x20ac;" horiz-adv-x="1310" d="M164 643q0 32 22.5 54t53.5 22h53q0 6 -1 18t-1 17q0 6 1 17t1 17h-53q-31 0 -53.5 22.5t-22.5 53.5q0 32 22.5 55t53.5 23h84q48 130 159.5 207.5t261.5 77.5q123 0 222.5 -53t156.5 -148q13 -20 13 -41q0 -30 -22.5 -53t-55.5 -23q-43 0 -64 37q-80 127 -250 127 q-173 0 -253 -131h305q32 0 54.5 -23t22.5 -55q0 -31 -22.5 -53.5t-54.5 -22.5h-351q-2 -12 -2 -34q0 -23 2 -35h351q32 0 54.5 -22t22.5 -54q0 -31 -22.5 -53.5t-54.5 -22.5h-305q83 -133 253 -133q178 0 259 146q21 38 67 38q31 0 53.5 -22t22.5 -55q0 -22 -8 -35 q-57 -103 -160 -164t-231 -61q-151 0 -264 76t-160 210h-84q-31 0 -53.5 22.5t-22.5 53.5z" />
<glyph unicode="&#x2122;" horiz-adv-x="1548" d="M82 1403q0 18 13 34.5t38 16.5h500q22 0 36.5 -14.5t14.5 -36.5t-14.5 -36.5t-36.5 -14.5h-199v-594q0 -21 -15 -36t-36 -15t-36 15t-15 36v594h-199q-24 0 -37.5 15t-13.5 36zM766 758v645q0 21 15 36t36 15q26 0 41 -18l217 -273l217 273q15 18 41 18q21 0 36 -15 t15 -36v-645q0 -21 -15 -36t-36 -15q-22 0 -37.5 15.5t-15.5 35.5v497l-164 -206q-16 -19 -41 -19t-41 19l-166 206v-497q0 -21 -15 -36t-36 -15t-36 15t-15 36z" />
<glyph unicode="&#x25fc;" horiz-adv-x="983" d="M0 0v983h983v-983h-983z" />
<glyph unicode="&#xfb02;" horiz-adv-x="1253" d="M61 907q0 31 23 53.5t55 22.5h74v135q0 144 95.5 239t248.5 95h414q30 0 51.5 -23t21.5 -53v-1175q0 -39 31 -60q35 -24 35 -65q0 -33 -23 -54.5t-53 -21.5q-15 0 -35 8q-30 13 -52 38.5t-32 52t-16 51.5t-7 41l-1 16v1091h-334q-98 0 -144 -48.5t-46 -131.5v-135h208 q32 0 55 -22.5t23 -53.5q0 -32 -23 -55t-55 -23h-208v-753q0 -32 -23 -54t-55 -22q-31 0 -53.5 22t-22.5 54v753h-74q-32 0 -55 23t-23 55z" />
</font>
</defs>
</svg>
