<?xml version="1.0" standalone="no"?>
<!DOCTYPE svg PUBLIC "-//W3C//DTD SVG 1.1//EN" "http://www.w3.org/Graphics/SVG/1.1/DTD/svg11.dtd" >
<svg xmlns="http://www.w3.org/2000/svg" xmlns:xlink="http://www.w3.org/1999/xlink" version="1.1">
<metadata></metadata>
<defs>
<font id="umalight" horiz-adv-x="1280" >
<font-face units-per-em="2048" ascent="1638" descent="-410" />
<missing-glyph horiz-adv-x="624" />
<glyph unicode="&#xfb01;" horiz-adv-x="1058" d="M61 954q0 9 7 16t16 7h147v164q0 128 84 215q88 88 238 88q9 0 15.5 -7t6.5 -16t-6.5 -15.5t-15.5 -6.5q-132 0 -204.5 -73t-74.5 -193v-156h541q31 -4 54 -34t32.5 -64.5t9.5 -63.5v-795q0 -20 -20 -20q-9 0 -16 5.5t-7 14.5v795q0 14 -2.5 31t-17 45t-39.5 43h-535 v-914q0 -9 -6.5 -14.5t-15.5 -5.5q-21 0 -21 20v914h-147q-9 0 -16 5.5t-7 14.5zM797 1200q0 28 20 49t49 21q28 0 49 -21t21 -49q0 -29 -21 -49.5t-49 -20.5q-29 0 -49 20.5t-20 49.5z" />
<glyph horiz-adv-x="0" />
<glyph horiz-adv-x="682" />
<glyph unicode=" "  horiz-adv-x="624" />
<glyph unicode="&#x09;" horiz-adv-x="624" />
<glyph unicode="&#xa0;" horiz-adv-x="624" />
<glyph unicode="!" horiz-adv-x="466" d="M164 47q0 29 20 49.5t49 20.5t49.5 -20.5t20.5 -49.5q0 -28 -20.5 -47.5t-49.5 -19.5t-49 19.5t-20 47.5zM211 211v1212q0 10 6.5 16.5t15.5 6.5t16 -6.5t7 -16.5v-1212q0 -9 -7 -15t-16 -6t-15.5 6t-6.5 15z" />
<glyph unicode="&#x22;" horiz-adv-x="546" d="M164 1001v422q0 9 6.5 15t15.5 6t15 -6t6 -15v-422q0 -9 -7 -15.5t-16 -6.5t-14.5 6.5t-5.5 15.5zM338 1001v422q0 9 6.5 15t15.5 6t16 -6t7 -15v-422q0 -9 -7 -15.5t-16 -6.5t-15.5 6.5t-6.5 15.5z" />
<glyph unicode="#" horiz-adv-x="1345" d="M164 627q0 9 5.5 15.5t14.5 6.5h316l55 148h-279q-9 0 -15.5 6.5t-6.5 15.5q0 8 6.5 14.5t15.5 6.5h295l224 590q6 14 20 14q8 0 15.5 -6t7.5 -15l-2 -8l-218 -575h187l223 590q6 14 21 14q8 0 15 -6t7 -15l-2 -8l-217 -575h307q9 0 16 -6.5t7 -14.5q0 -9 -7 -15.5 t-16 -6.5h-323l-56 -148h289q9 0 15 -6.5t6 -15.5t-6 -16t-15 -7h-305l-223 -590q-6 -14 -21 -14q-9 0 -15.5 5.5t-6.5 14.5q0 7 2 11l217 573h-187l-223 -590q-6 -14 -20 -14q-9 0 -16 5.5t-7 14.5l2 11l217 573h-299q-9 0 -14.5 7t-5.5 16zM547 649h186l55 148h-186z" />
<glyph unicode="$" horiz-adv-x="1079" d="M168 342q-6 13 0.5 23t17.5 10t21 -17q33 -72 111 -116.5t190 -48.5v538q-172 30 -248 90q-84 64 -84 191q0 129 98 205q86 71 234 77v129q0 8 6.5 14.5t13.5 6.5q9 0 16 -6.5t7 -14.5v-129q122 -4 206.5 -58t112.5 -144q2 -10 -5 -19.5t-17 -9.5q-15 0 -21 16 q-22 74 -94 121t-182 51v-483q178 -28 266 -96q98 -73 98 -211q0 -142 -106 -225q-99 -80 -258 -86v-127q0 -10 -7 -16.5t-16 -6.5q-8 0 -14 6.5t-6 16.5v127q-124 4 -213.5 55.5t-126.5 136.5zM221 1012q0 -56 15.5 -92t50.5 -64q65 -53 221 -80v475q-135 -7 -211 -72.5 t-76 -166.5zM551 193q150 7 235.5 80.5t85.5 187.5q0 112 -81 178q-82 60 -240 84v-530z" />
<glyph unicode="%" horiz-adv-x="1169" d="M164 993q0 66 47.5 113t114.5 47q66 0 112.5 -47t46.5 -113t-46.5 -112.5t-112.5 -46.5q-67 0 -114.5 46.5t-47.5 112.5zM209 993q0 -48 34 -82t83 -34q47 0 81.5 34.5t34.5 81.5q0 49 -34 83t-82 34q-50 0 -83.5 -34t-33.5 -83zM299 20q0 7 2 11l526 1401q5 12 19 12 q9 0 16.5 -6t7.5 -15q0 -1 -1 -4t-1 -4l-526 -1401q-6 -14 -20 -14q-9 0 -16 5.5t-7 14.5zM684 453q0 66 47 112.5t113 46.5q67 0 114.5 -46.5t47.5 -112.5q0 -67 -47 -114.5t-115 -47.5q-66 0 -113 47.5t-47 114.5zM727 453q0 -49 34.5 -83t82.5 -34q50 0 83.5 34t33.5 83 q0 48 -34 82t-83 34q-47 0 -82 -34.5t-35 -81.5z" />
<glyph unicode="&#x26;" horiz-adv-x="1300" d="M164 375q0 124 73 240t191 196l-25 33q-147 196 -147 344q0 115 80.5 198.5t226.5 83.5q124 0 214.5 -78t90.5 -194q0 -49 -19.5 -94.5t-50 -82.5t-82.5 -77.5t-101 -71.5t-123 -73l477 -649q66 60 95.5 151t29.5 178q0 19 -4.5 48.5t-4.5 39.5q0 9 6.5 15t14.5 6 q31 0 31 -109q0 -96 -32.5 -195.5t-109.5 -170.5l68 -90q4 -6 4 -15t-7 -15.5t-16 -6.5q-11 0 -16 10l-65 88q-145 -104 -345 -104q-202 0 -328 110.5t-126 284.5zM207 375q0 -152 115 -251t299 -99q181 0 315 94l-481 655q-110 -73 -179 -180t-69 -219zM299 1188 q0 -126 139 -318l27 -36q47 25 70 37.5t68.5 39.5t70 46t58 49t50.5 57.5t30 62.5t13 72q0 102 -80 165.5t-182 63.5q-131 0 -197.5 -70.5t-66.5 -168.5z" />
<glyph unicode="'" horiz-adv-x="370" d="M164 1001v422q0 9 6.5 15t15.5 6t15 -6t6 -15v-422q0 -9 -7 -15.5t-16 -6.5t-14.5 6.5t-5.5 15.5z" />
<glyph unicode="(" horiz-adv-x="577" d="M164 715q0 384 209 719q7 10 18 10q6 0 10 -2q8 -5 10.5 -14t-1.5 -17q-201 -323 -201 -694q0 -373 201 -684q4 -8 4 -13q0 -9 -7.5 -15.5t-15.5 -6.5q-11 0 -18 10q-209 323 -209 707z" />
<glyph unicode=")" horiz-adv-x="577" d="M164 20q0 5 4 13q201 311 201 684q0 371 -201 694q-4 8 -2 17t10 14q4 2 10 2q12 0 19 -10q209 -335 209 -719t-209 -707q-7 -10 -19 -10q-8 0 -15 6.5t-7 15.5z" />
<glyph unicode="*" horiz-adv-x="1103" d="M166 1100q0 22 22 22h326l-162 281q-4 8 -4 12q0 9 7.5 15t15.5 6q13 0 18 -11l164 -282l164 282q5 11 18 11q8 0 14.5 -6t6.5 -15q0 -8 -2 -12l-164 -281h328q20 0 20 -22q0 -23 -20 -23h-328l164 -282q4 -8 4 -13q0 -8 -7.5 -14t-15.5 -6q-12 0 -18 12l-164 283 l-164 -283q-9 -12 -18 -12t-16 5.5t-7 14.5q0 5 4 13l162 282h-326q-22 0 -22 23z" />
<glyph unicode="+" horiz-adv-x="1308" d="M164 487q0 9 6 16t16 7h447v446q0 21 20 21q23 0 23 -21v-446h444q10 0 16.5 -7t6.5 -16q0 -8 -6.5 -14t-16.5 -6h-444v-444q0 -23 -23 -23q-20 0 -20 23v444h-447q-10 0 -16 6t-6 14z" />
<glyph unicode="," horiz-adv-x="473" d="M123 -154q0 5 4 13l139 272q6 12 21 12q11 0 17.5 -8.5t0.5 -21.5l-139 -275q-6 -12 -19 -12q-8 0 -16 6t-8 14z" />
<glyph unicode="-" horiz-adv-x="1075" d="M164 487q0 23 24 23h699q10 0 16 -7t6 -16q0 -8 -6 -14t-16 -6h-699q-24 0 -24 20z" />
<glyph unicode="." horiz-adv-x="464" d="M164 70q0 29 20 49t49 20q28 0 48 -20t20 -49q0 -28 -20 -49t-48 -21q-29 0 -49 21t-20 49z" />
<glyph unicode="/" horiz-adv-x="733" d="M82 23l2 8l524 1401q6 14 21 14q8 0 15 -6t7 -15l-2 -10l-524 -1401q-6 -14 -21 -14q-8 0 -15 6.5t-7 16.5z" />
<glyph unicode="0" horiz-adv-x="1243" d="M133 723q0 371 128.5 557t359.5 186q232 0 360.5 -186.5t128.5 -556.5q0 -371 -128.5 -558.5t-360.5 -187.5q-231 0 -359.5 186.5t-128.5 559.5zM176 723q0 -356 117 -529.5t328 -173.5q212 0 328 172t116 531q0 183 -31.5 318.5t-90.5 218t-139 122t-183 39.5 q-209 0 -327 -170t-118 -528z" />
<glyph unicode="1" horiz-adv-x="610" d="M61 1092q0 9 7 16l331 330q6 6 17 6q9 0 14.5 -7.5t5.5 -15.5v-1401q0 -9 -6.5 -14.5t-15.5 -5.5q-8 0 -14.5 5.5t-6.5 14.5v1348l-295 -291q-6 -6 -16 -6q-9 0 -15 6.5t-6 14.5z" />
<glyph unicode="2" horiz-adv-x="1079" d="M61 20q0 10 7 17l745 786q111 117 111 252q0 155 -108 250.5t-294 95.5q-184 0 -291.5 -96t-109.5 -250q0 -20 -21 -20q-9 0 -15.5 5.5t-6.5 14.5q2 126 63.5 216t159.5 132.5t221 42.5q190 0 318.5 -106.5t128.5 -284.5q0 -146 -125 -280l-709 -752h842q9 0 14.5 -7 t5.5 -16q0 -20 -20 -20h-893q-9 0 -16 5.5t-7 14.5z" />
<glyph unicode="3" horiz-adv-x="1222" d="M123 389q0 9 6.5 16t15.5 7t15 -7t6 -16q0 -154 122 -261.5t322 -107.5q203 0 324 107t121 262q0 153 -119 248.5t-326 95.5q-10 0 -16 7t-6 16q0 10 7 16t15 6q185 0 293.5 86.5t108.5 222.5q0 140 -110 237t-292 97q-181 0 -290 -97.5t-109 -236.5q0 -9 -7 -15.5 t-16 -6.5t-15.5 6.5t-6.5 15.5q0 157 123.5 267t320.5 110t321 -108.5t124 -268.5q0 -119 -71 -204t-200 -127q144 -34 230 -134t86 -233q0 -84 -34.5 -158.5t-97 -131t-155.5 -89.5t-203 -33q-134 0 -244 49t-176.5 144.5t-66.5 218.5z" />
<glyph unicode="4" horiz-adv-x="1075" d="M41 518q0 8 6 17l752 901q8 8 16 8q9 0 16 -6.5t7 -16.5v-880h174q9 0 15.5 -6t6.5 -15q0 -22 -22 -22h-174v-478q0 -9 -7 -14.5t-16 -5.5q-20 0 -20 20v478h-732q-9 0 -15.5 6t-6.5 14zM111 541h684v821z" />
<glyph unicode="5" horiz-adv-x="1241" d="M164 430q0 9 5.5 16t14.5 7t16 -7t7 -16q0 -85 31 -160t87 -131t140.5 -88.5t185.5 -32.5q100 0 184.5 33t141 89.5t88 131t31.5 158.5q0 183 -119.5 292t-325.5 109q-127 0 -236.5 -51.5t-166.5 -130.5q-5 -8 -17 -8q-8 0 -15 6t-7 15v759q0 9 6 16t16 7h775 q9 0 15.5 -6.5t6.5 -16.5q0 -22 -22 -22h-754v-678q71 71 175.5 112t223.5 41q221 0 354.5 -121.5t133.5 -322.5q0 -92 -34.5 -175t-96 -145t-154.5 -98.5t-203 -36.5q-216 0 -351.5 128t-135.5 327z" />
<glyph unicode="6" horiz-adv-x="1163" d="M133 702q0 88 8.5 169.5t17.5 118.5l9 38q21 90 59.5 167t95 138t137 96t175.5 35q122 0 227 -59t174 -166q4 -8 4 -12q0 -7 -5 -14t-15 -7q-14 0 -21 11q-54 89 -145.5 146.5t-208.5 57.5q-331 0 -436 -403q-33 -121 -33 -316q0 -32 4 -98q49 128 170.5 199t267.5 71 q199 0 331 -132t132 -332q0 -189 -123 -312t-317 -123q-207 0 -331.5 122t-157.5 349q-19 128 -19 256zM195 451q28 -207 142.5 -319.5t303.5 -113.5q177 0 286 110.5t109 281.5q0 176 -115 297.5t-303 121.5q-185 0 -303.5 -105.5t-119.5 -272.5z" />
<glyph unicode="7" horiz-adv-x="1067" d="M41 1421q0 9 6.5 16t15.5 7h941q9 0 15.5 -7.5t6.5 -15.5q0 -6 -4 -14l-703 -1397q-5 -10 -18 -10q-9 0 -15.5 5.5t-6.5 14.5q0 7 2 11l688 1368h-906q-9 0 -15.5 6.5t-6.5 15.5z" />
<glyph unicode="8" horiz-adv-x="1228" d="M123 373q0 144 84 245.5t235 139.5q-130 40 -203 129.5t-73 214.5q0 161 123.5 262.5t324.5 101.5q205 0 326 -104t121 -260q0 -125 -73.5 -214.5t-203.5 -129.5q149 -37 235.5 -139.5t86.5 -239.5q0 -178 -135.5 -290t-356.5 -112q-101 0 -189 26t-156 75t-107 125 t-39 170zM166 379q0 -159 120 -259t328 -100q207 0 327 100t120 259q0 158 -120 257t-327 99q-208 0 -328 -98.5t-120 -257.5zM209 1102q0 -143 109 -233.5t296 -90.5t295.5 90.5t108.5 233.5q0 142 -108.5 231.5t-295.5 89.5t-296 -89.5t-109 -231.5z" />
<glyph unicode="9" horiz-adv-x="1204" d="M123 1030q0 188 123.5 312t316.5 124q204 0 333.5 -126.5t154.5 -346.5q20 -133 20 -256q0 -357 -130.5 -559.5t-371.5 -202.5q-118 0 -226.5 58.5t-176.5 167.5q-4 6 -4 10q0 9 6.5 15.5t15.5 6.5q12 0 19 -10q59 -93 155.5 -149t210.5 -56q163 0 270 102.5t154 303.5 l1 4q1 4 3 13t4.5 21t5.5 29t5.5 36.5t5 43.5t4.5 49.5t3 56t1 60.5q0 66 -2 101q-47 -125 -166 -199t-272 -74q-138 0 -245 65t-162.5 170t-55.5 230zM166 1030q0 -114 50.5 -209.5t148 -154t221.5 -58.5q185 0 303.5 107t118.5 274q-26 208 -140.5 320t-304.5 112 q-166 0 -281.5 -112t-115.5 -279z" />
<glyph unicode=":" horiz-adv-x="466" d="M164 70q0 29 20 49t49 20q28 0 49 -20t21 -49q0 -28 -21 -49t-49 -21q-29 0 -49 21t-20 49zM164 541q0 29 20 49t49 20q28 0 49 -20t21 -49t-21 -49.5t-49 -20.5q-29 0 -49 20.5t-20 49.5z" />
<glyph unicode=";" horiz-adv-x="522" d="M123 -154q0 5 4 13l139 272q6 12 21 12q11 0 17.5 -8.5t0.5 -21.5l-139 -275q-6 -12 -19 -12q-8 0 -16 6t-8 14zM219 541q0 29 20.5 49t49.5 20q28 0 48.5 -20t20.5 -49t-20.5 -49.5t-48.5 -20.5q-29 0 -49.5 20.5t-20.5 49.5z" />
<glyph unicode="&#x3c;" horiz-adv-x="1140" d="M165.5 726.5q-0.5 13.5 12.5 21.5l766 354q14 6 24 -2.5t9 -21t-14 -17.5l-723 -336l723 -334q21 -10 11.5 -30t-30.5 -11l-766 357q-12 6 -12.5 19.5z" />
<glyph unicode="=" horiz-adv-x="1304" d="M164 369q0 9 6.5 15.5t15.5 6.5h932q9 0 16 -6.5t7 -15.5t-7 -15t-16 -6h-932q-9 0 -15.5 6t-6.5 15zM164 588q0 9 6.5 15.5t15.5 6.5h932q9 0 16 -6.5t7 -15.5t-7 -16t-16 -7h-932q-9 0 -15.5 7t-6.5 16z" />
<glyph unicode="&#x3e;" horiz-adv-x="1140" d="M174 1078.5q-1 12.5 9 21t24 2.5l766 -354q13 -8 12.5 -21.5t-12.5 -19.5l-766 -357q-21 -9 -30.5 11t11.5 30l723 334l-723 336q-13 5 -14 17.5z" />
<glyph unicode="?" horiz-adv-x="1019" d="M82 1083q5 179 114 283t293 104q181 0 294.5 -99.5t113.5 -268.5q0 -122 -59 -211.5t-168 -165.5q-124 -87 -170.5 -193t-46.5 -276q0 -9 -7 -14.5t-16 -5.5t-15.5 5.5t-6.5 14.5q0 173 52.5 291.5t182.5 210.5q118 83 164.5 159.5t46.5 184.5q0 151 -96.5 235t-268.5 84 q-168 0 -265 -92.5t-97 -245.5q0 -9 -7 -15.5t-16 -6.5t-15.5 6.5t-6.5 15.5zM360 70q0 29 20.5 49t49.5 20t49.5 -20t20.5 -49t-20.5 -49.5t-49.5 -20.5t-49.5 20.5t-20.5 49.5z" />
<glyph unicode="@" horiz-adv-x="1507" d="M164 502q0 160 79 296t215 215t296 79t296 -79t214.5 -215t78.5 -296q0 -73 -21.5 -142.5t-72 -121.5t-119.5 -52q-59 0 -97.5 40t-43.5 102q-15 -24 -33 -45q-78 -88 -202 -88q-125 0 -201 85t-76 222q0 129 75 217t202 88q72 0 134 -33.5t99 -97.5v88q0 9 7 14.5 t16 5.5t15.5 -5.5t6.5 -14.5v-426q0 -44 28.5 -75.5t74.5 -31.5q50 0 89 44t57.5 105t18.5 122q0 111 -43 212t-116 174t-174 116t-213 43q-148 0 -273.5 -73t-198.5 -198.5t-73 -273.5t73 -274t198.5 -199.5t273.5 -73.5q158 0 274 74q13 7 23 0t10 -19q0 -13 -10 -18 q-138 -80 -297 -80q-160 0 -296 79t-215 215t-79 296zM520 502q0 -119 63.5 -190.5t170.5 -71.5q108 0 170.5 72t62.5 190t-62.5 190t-170.5 72q-106 0 -170 -72.5t-64 -189.5z" />
<glyph unicode="A" horiz-adv-x="1386" d="M61 18q0 7 2 11l609 1401q6 14 20 14q15 0 21 -14l608 -1401q6 -12 -1.5 -21.5t-19.5 -9.5q-14 0 -20 14l-211 486h-754l-211 -486q-6 -14 -20 -14q-9 0 -16 5.5t-7 14.5zM334 541h717l-359 825z" />
<glyph unicode="B" horiz-adv-x="1304" d="M174 20v1399q0 9 7 16t16 7h544q166 0 268.5 -96t102.5 -252q0 -247 -205 -326q128 -38 201.5 -138.5t73.5 -236.5q0 -175 -116 -284t-306 -109h-563q-9 0 -16 5.5t-7 14.5zM219 43h541q171 0 274 97.5t103 252.5q0 158 -101.5 255t-275.5 97h-541v-702zM219 788h541 q148 0 228.5 81t80.5 225q0 136 -88.5 220.5t-239.5 84.5h-522v-611z" />
<glyph unicode="C" horiz-adv-x="1312" d="M123 719q0 101 12 191t37.5 175.5t69.5 153t104.5 119t146 79t189.5 27.5q184 0 315 -100t191 -285q3 -13 -4 -21.5t-17 -8.5q-14 0 -20 16q-58 174 -177 265t-288 91q-120 0 -212.5 -40.5t-149 -106.5t-92 -160t-49 -189t-13.5 -206q0 -113 15 -211t52 -190t94.5 -157 t148 -104t206.5 -39q165 0 282 86.5t177 253.5q6 15 20 15q11 0 19 -10t4 -21q-63 -175 -193 -271t-307 -96q-129 0 -228.5 43t-161 113t-101 169t-55 201t-15.5 218z" />
<glyph unicode="D" horiz-adv-x="1339" d="M174 20v1399q0 10 7 17.5t16 7.5h489q256 0 389 -172q142 -181 142 -551q0 -367 -142 -551q-131 -170 -389 -170h-491q-21 0 -21 20zM217 43h469q232 0 354 154q134 169 134 524t-134 524q-122 154 -354 154h-469v-1356z" />
<glyph unicode="E" horiz-adv-x="1292" d="M174 20v1401q0 9 6 15q8 8 17 8h925q9 0 16 -7t7 -16t-7 -15.5t-16 -6.5h-905v-631h698q9 0 16 -7t7 -16t-7 -15.5t-16 -6.5h-698v-680h930q9 0 15.5 -7t6.5 -16t-6.5 -14.5t-15.5 -5.5h-950q-11 0 -17 6t-6 14z" />
<glyph unicode="F" horiz-adv-x="1265" d="M174 20v1401q0 23 25 23h921q9 0 16 -7t7 -16t-7 -15.5t-16 -6.5h-903v-631h698q9 0 15 -7t6 -16t-6 -15.5t-15 -6.5h-698v-703q0 -9 -6.5 -14.5t-15.5 -5.5q-21 0 -21 20z" />
<glyph unicode="G" horiz-adv-x="1361" d="M123 721q0 124 17 229.5t57.5 202t103 164t159 107.5t220.5 40q182 0 311.5 -93t192.5 -271q0 -2 1 -4.5t1 -3.5q0 -10 -7.5 -16.5t-15.5 -6.5q-14 0 -20 16q-125 336 -463 336q-245 0 -379.5 -171t-134.5 -529t135 -529.5t379 -171.5q245 0 379.5 171.5t134.5 529.5v12 h-514q-9 0 -16 7t-7 16t7 15.5t16 6.5h537q8 0 15 -6t7 -16v-35q0 -372 -145.5 -558t-411.5 -186q-125 0 -223 41t-160 109t-102.5 165.5t-57 202t-16.5 226.5z" />
<glyph unicode="H" horiz-adv-x="1337" d="M174 20v1403q0 9 6 15t15 6t15.5 -6t6.5 -15v-655h903v655q0 9 7 15t16 6q20 0 20 -21v-1403q0 -20 -20 -20q-9 0 -16 5.5t-7 14.5v703h-903v-703q0 -9 -6.5 -14.5t-15.5 -5.5q-21 0 -21 20z" />
<glyph unicode="I" horiz-adv-x="757" d="M143 23q0 20 21 20h192v1356h-192q-9 0 -15 6.5t-6 15.5t6 15t15 6h409q9 0 15 -6t6 -15t-6 -15.5t-15 -6.5h-172v-1356h172q21 0 21 -20q0 -9 -6 -16t-15 -7h-409q-9 0 -15 7t-6 16z" />
<glyph unicode="J" horiz-adv-x="1167" d="M61 287q0 9 7 15.5t16 6.5q14 0 20 -16q47 -129 153.5 -202t258.5 -73q202 0 323.5 130.5t121.5 330.5v944q0 21 20 21q9 0 16 -6t7 -15v-944q0 -221 -134.5 -362.5t-355.5 -141.5q-163 0 -282 82t-169 222q-2 4 -2 8z" />
<glyph unicode="K" horiz-adv-x="1300" d="M174 20v1401q0 9 7 16t16 7t15.5 -7t6.5 -16v-846l856 859q8 8 19 8q8 0 14 -6t6 -15q0 -10 -8 -18l-641 -643l725 -725q8 -8 8 -17t-6.5 -14.5t-15.5 -5.5q-11 0 -17 6l-725 725l-215 -215v-494q0 -9 -6.5 -14.5t-15.5 -5.5t-16 5.5t-7 14.5z" />
<glyph unicode="L" horiz-adv-x="1177" d="M174 20v1401q0 9 6.5 16t16.5 7q20 0 20 -23v-1378h858q9 0 15 -7t6 -16q0 -20 -21 -20h-878q-11 0 -17 6t-6 14z" />
<glyph unicode="M" horiz-adv-x="1527" d="M174 20v1399q0 11 7.5 18t15.5 7q11 0 16 -8l551 -772l551 772q5 8 16 8q8 0 15.5 -7t7.5 -18v-1399q0 -10 -6.5 -16t-14.5 -6t-15 6t-7 16v1338l-529 -744q-5 -8 -18 -8q-14 0 -19 8l-528 744v-1338q0 -10 -7 -16t-15 -6t-14.5 6t-6.5 16z" />
<glyph unicode="N" horiz-adv-x="1363" d="M174 23v1398q0 9 6 17t15 8q11 0 18 -10l934 -1344v1329q0 9 6 16t14 7q9 0 16 -7t7 -16v-1398q0 -10 -7.5 -16.5t-15.5 -6.5q-9 0 -16 10l-934 1342v-1329q0 -9 -6 -16t-16 -7q-9 0 -15 7t-6 16z" />
<glyph unicode="O" horiz-adv-x="1351" d="M123 721q0 372 147 563q142 182 406 182q263 0 405 -182q148 -193 148 -563q0 -371 -148 -561q-143 -183 -403 -183q-265 0 -408 183q-147 188 -147 561zM166 721q0 -357 139 -535q127 -163 371 -163t371 163q139 178 139 535q0 358 -139 536q-129 166 -371 166 t-371 -166q-139 -178 -139 -536z" />
<glyph unicode="P" horiz-adv-x="1243" d="M174 23v1398q0 10 7 16.5t16 6.5h542q164 0 271 -107q110 -107 110 -270t-110 -270q-107 -107 -271 -107h-522v-667q0 -9 -5.5 -16t-14.5 -7q-10 0 -16.5 7t-6.5 16zM217 733h522q146 2 241 95.5t95 238.5q0 146 -95 240t-241 94h-522v-668z" />
<glyph unicode="Q" horiz-adv-x="1351" d="M123 721q0 372 147 563q142 182 406 182q263 0 405 -182q148 -193 148 -563q0 -371 -148 -561l-2 -2l123 -121q6 -6 6 -17q0 -8 -6 -14t-16 -6q-9 0 -15 6l-120 119q-139 -148 -373 -148q-265 0 -408 183q-147 188 -147 561zM166 721q0 -357 139 -535q127 -163 371 -163 q220 0 344 133l-158 159q-8 8 -8 19q0 8 7 15t16 7q8 0 16 -8l156 -158q137 180 137 531q0 358 -139 536q-129 166 -371 166t-371 -166q-139 -178 -139 -536z" />
<glyph unicode="R" horiz-adv-x="1318" d="M174 23v1398q0 23 23 23h577q163 0 273 -107q108 -108 108 -270t-108 -270q-60 -57 -140 -84q82 -28 140 -86q108 -105 108 -271v-180q0 -12 2 -26t8 -36t21.5 -42t38.5 -31q12 -6 12 -18q0 -8 -6.5 -15.5t-16.5 -7.5q-6 0 -10 2q-32 16 -53 44t-29 57.5t-10 45.5t-2 27 v180q0 147 -94.5 240.5t-241.5 93.5h-557v-667q0 -11 -6.5 -17t-15.5 -6q-21 0 -21 23zM217 733h557q146 0 241 94.5t95 239.5q0 146 -95 240t-241 94h-557v-668z" />
<glyph unicode="S" horiz-adv-x="1239" d="M123 242q0 20 22 20q14 0 21 -14q44 -102 158 -164.5t276 -63.5h12q211 1 336 100t125 251q0 54 -14.5 100t-38 79.5t-60.5 61.5t-75 46.5t-88 34t-92.5 24.5t-96.5 18q-53 8 -94.5 17t-91 24.5t-86.5 34t-73 46.5t-59 62.5t-37.5 82t-14.5 104.5q0 159 127 258.5 t331 99.5h11q172 -3 290.5 -75t155.5 -193q3 -12 -4.5 -20.5t-18.5 -8.5q-13 0 -20 17q-32 105 -137.5 169.5t-265.5 65.5h-11q-189 0 -302 -89t-113 -226q0 -69 25 -122.5t62 -86t97.5 -57.5t111 -36.5t123.5 -23.5q57 -9 103.5 -19t100 -26.5t94.5 -37.5t81 -51.5t66 -68 t41.5 -88t15.5 -110.5q0 -82 -29 -149.5t-77 -113t-113.5 -77t-136.5 -45.5t-148 -15h-12q-173 1 -298 69t-177 185q-2 4 -2 11z" />
<glyph unicode="T" horiz-adv-x="1144" d="M41 1421q0 10 6.5 16.5t15.5 6.5h1018q9 0 16 -6.5t7 -16.5q0 -9 -7 -14.5t-16 -5.5h-487v-1378q0 -9 -7 -16t-16 -7q-8 0 -14 7t-6 16v1378h-488q-9 0 -15.5 5.5t-6.5 14.5z" />
<glyph unicode="U" horiz-adv-x="1329" d="M164 465v956q0 9 5.5 16t14.5 7q10 0 16.5 -7t6.5 -16v-956q0 -209 126.5 -328t330.5 -119q208 0 333 117t125 330v956q0 9 6 16t15 7q10 0 16 -7t6 -16v-956q0 -231 -141 -363q-136 -127 -360 -127q-223 0 -359 127q-141 132 -141 363z" />
<glyph unicode="V" horiz-adv-x="1310" d="M61 1423q0 9 6.5 15t14.5 6q14 0 20 -14l553 -1350l553 1350q6 14 21 14q8 0 14 -6t6 -15l-2 -10l-571 -1399q-7 -14 -21 -14q-13 0 -20 14l-572 1399q-2 4 -2 10z" />
<glyph unicode="W" horiz-adv-x="1880" d="M92 1423q0 9 7.5 16t15.5 7q14 0 20 -19l395 -1337l390 987q6 15 20 15q15 0 21 -15l389 -987l395 1337q6 19 20 19q8 0 15.5 -7t7.5 -16l-2 -8l-412 -1399q-3 -16 -20 -16q-14 0 -21 14l-393 996l-393 -996q-3 -14 -21 -14q-17 0 -20 16l-412 1399q-2 4 -2 8z" />
<glyph unicode="X" d="M82 23q0 6 6 12l524 688l-524 686q-6 6 -6 14t6.5 14.5t15.5 6.5q12 0 17 -8l518 -678l518 678q5 8 19 8q9 0 15.5 -7.5t6.5 -15.5q0 -6 -6 -12l-524 -686l524 -688q6 -6 6 -12q0 -8 -6.5 -15.5t-15.5 -7.5q-14 0 -19 8l-518 678l-518 -678q-5 -8 -17 -8q-9 0 -15.5 6.5 t-6.5 16.5z" />
<glyph unicode="Y" horiz-adv-x="1198" d="M41 1423q0 9 8 16t17 7t16 -10l518 -686l516 686q7 10 17 10q9 0 16.5 -7t7.5 -16q0 -5 -6 -14l-530 -704v-682q0 -9 -6 -16t-15 -7q-10 0 -16 7t-6 16v682l-531 704q-6 9 -6 14z" />
<glyph unicode="Z" horiz-adv-x="1220" d="M82 18q0 8 6 17l963 1366h-922q-8 0 -14 5.5t-6 14.5q0 10 6 16.5t14 6.5h965q9 0 15.5 -5.5t6.5 -13.5q0 -7 -6 -16l-963 -1366h969q10 0 16.5 -7t6.5 -16t-7 -14.5t-16 -5.5h-1010q-24 0 -24 18z" />
<glyph unicode="[" horiz-adv-x="634" d="M164 23v1398q0 9 6.5 16t15.5 7h285q21 0 21 -23q0 -20 -21 -20h-262v-1356h262q9 0 15 -6.5t6 -15.5t-6 -16t-15 -7h-285q-9 0 -15.5 7t-6.5 16z" />
<glyph unicode="\" horiz-adv-x="897" d="M164 1423q0 9 6.5 16t15.5 7q14 0 21 -14l524 -1401q2 -4 2 -8q0 -10 -7 -16.5t-15 -6.5q-15 0 -21 14l-524 1401q-2 4 -2 8z" />
<glyph unicode="]" horiz-adv-x="634" d="M143 23q0 9 7 15.5t16 6.5h262v1356h-262q-23 0 -23 20q0 23 23 23h283q10 0 16 -6.5t6 -14.5v-1400q0 -9 -7 -16t-15 -7h-283q-9 0 -16 7t-7 16z" />
<glyph unicode="^" horiz-adv-x="950" d="M164 1124q0 9 8 17l289 289q6 6 14 6q11 0 17 -6l286 -289q6 -6 6 -17q0 -8 -6.5 -14t-15.5 -6q-8 0 -14 6l-273 272l-272 -272q-8 -8 -17 -8t-15.5 6.5t-6.5 15.5z" />
<glyph unicode="_" horiz-adv-x="1421" d="M164 -47q0 8 6 15t16 7h1047q22 0 22 -22q0 -8 -6 -14.5t-16 -6.5h-1047q-10 0 -16 6.5t-6 14.5z" />
<glyph unicode="`" horiz-adv-x="1265" d="M508 1327q0 9 7.5 16t16.5 7q12 0 19 -11l123 -198q4 -8 4 -13q0 -9 -7.5 -15.5t-15.5 -6.5q-12 0 -18 12l-125 197q-4 8 -4 12z" />
<glyph unicode="a" d="M123 496q0 224 127 370q132 148 342 148q215 0 344 -148q54 -64 82 -135v223q0 9 6 16t14 7q9 0 16 -7t7 -16v-792q0 -15 3 -33t18.5 -46t41.5 -42q13 -7 13 -18t-11 -19t-22 -2q-86 46 -86 160v100q-53 -132 -162.5 -208.5t-263.5 -76.5q-210 0 -342 148 q-127 142 -127 371zM168 496q0 -213 114.5 -344t309.5 -132q129 1 226 63t148.5 169t51.5 244q0 210 -116 342.5t-310 132.5t-309 -131.5t-115 -343.5z" />
<glyph unicode="b" horiz-adv-x="1222" d="M164 23v1398q0 9 5.5 16t14.5 7t16 -7t7 -16v-690q30 77 82 135q129 148 342 148q144 0 252 -70.5t162.5 -187t54.5 -260.5q0 -105 -30 -198t-87 -165t-147.5 -114t-202.5 -42q-212 0 -344 148q-52 61 -82 137v-239q0 -9 -7 -16t-16 -7t-14.5 7t-5.5 16zM207 487 q0 -202 116.5 -334t307.5 -133q195 1 310.5 132t115.5 344q0 212 -116 343.5t-310 131.5q-199 0 -311.5 -137t-112.5 -347z" />
<glyph unicode="c" horiz-adv-x="1095" d="M123 496q0 226 126 372t343 146q133 0 233 -57t160 -160q7 -12 -0.5 -22t-18.5 -10t-18 11q-119 195 -356 195q-194 0 -309 -131.5t-115 -343.5t116 -344t308 -132q124 0 219.5 59.5t149.5 162.5q10 19 28.5 8.5t9.5 -29.5q-58 -113 -164.5 -178.5t-242.5 -65.5 q-112 0 -203 42.5t-148 114.5t-87.5 165t-30.5 197z" />
<glyph unicode="d" horiz-adv-x="1222" d="M123 496q0 144 53 260t161 187t255 71q213 0 342 -148q52 -58 82 -135v690q0 9 6.5 16t15.5 7t15 -7t6 -16v-1398q0 -9 -6 -16t-15 -7t-15.5 7t-6.5 16v239q-30 -76 -82 -137q-132 -148 -342 -148q-214 0 -341.5 146.5t-127.5 372.5zM166 496q0 -210 116 -342.5 t310 -133.5q128 1 224.5 62.5t148 168.5t51.5 245q0 213 -115.5 344t-308.5 131q-194 0 -310 -133t-116 -342z" />
<glyph unicode="e" horiz-adv-x="1183" d="M123 496q0 226 126 372t343 146q145 0 253 -70.5t162 -187t54 -260.5q0 -10 -7.5 -15.5t-15.5 -5.5h-870q6 -205 120.5 -330t303.5 -125q122 0 219 59.5t150 162.5q6 12 18 12t19 -9.5t1 -23.5q-59 -113 -164 -178.5t-241 -65.5q-147 0 -255.5 71.5t-162 187.5t-53.5 260 zM168 518h848q-6 204 -120 328.5t-304 124.5q-188 0 -303 -125.5t-121 -327.5z" />
<glyph unicode="f" horiz-adv-x="720" d="M61 954q0 9 7 16t16 7h147v156q0 137 86 223q88 88 238 88q9 0 14.5 -7t5.5 -16q0 -20 -20 -20q-134 -1 -206.5 -74t-74.5 -194v-156h301q9 0 16 -7t7 -16q0 -8 -7 -14t-16 -6h-301v-911q0 -9 -5.5 -16t-14.5 -7t-16 7t-7 16v911h-147q-9 0 -16 6t-7 14z" />
<glyph unicode="g" horiz-adv-x="1167" d="M123 526q0 136 51 246t152 176t237 66q201 0 322 -137q48 -51 76 -121v198q0 9 6.5 16t15.5 7t15 -7t6 -16v-897q0 -174 -117 -297q-124 -131 -318 -131q-127 0 -224 48t-152 133q-5 10 -5 12q0 8 7 15t16 7q11 0 18 -10q48 -75 135.5 -117.5t204.5 -42.5 q175 0 283.5 113t108.5 270v244q-26 -64 -76 -121q-122 -141 -322 -141q-133 0 -234.5 65.5t-153.5 175.5t-52 246zM166 526q0 -198 108 -320t289 -122t289.5 123t108.5 321t-108.5 320.5t-289.5 122.5t-289 -124t-108 -321z" />
<glyph unicode="h" horiz-adv-x="1189" d="M164 23v1398q0 9 6.5 16t15.5 7t16 -7t7 -16v-667q46 122 155.5 191t241.5 69q134 0 235.5 -65.5t153.5 -175.5t52 -247v-503q0 -9 -6.5 -16t-14.5 -7q-9 0 -15.5 7t-6.5 16v503q0 198 -108.5 321.5t-289.5 123.5q-182 0 -289.5 -123.5t-107.5 -321.5v-503q0 -17 -14 -21 q-2 -2 -9 -2q-9 0 -15.5 7t-6.5 16z" />
<glyph unicode="i" horiz-adv-x="446" d="M154 1200q0 29 20 49.5t49 20.5t49.5 -20.5t20.5 -49.5t-20.5 -49.5t-49.5 -20.5t-49 20.5t-20 49.5zM201 23v931q0 9 6.5 16t15.5 7t16 -7t7 -16v-931q0 -9 -7 -16t-16 -7t-15.5 7t-6.5 16z" />
<glyph unicode="j" horiz-adv-x="446" d="M53 -299q0 11 10 18q67 49 104.5 130.5t37.5 173.5v931q0 9 6.5 16t15.5 7t15 -7t6 -16v-931q0 -102 -42 -194t-118 -146q-12 -8 -23.5 -1.5t-11.5 19.5zM158 1200q0 29 20 49.5t49 20.5q28 0 48 -20.5t20 -49.5t-20 -49.5t-48 -20.5q-29 0 -49 20.5t-20 49.5z" />
<glyph unicode="k" horiz-adv-x="1011" d="M164 23v1398q0 9 6.5 16t15.5 7q8 0 14.5 -7t6.5 -16v-1042l629 629q8 8 16 8q9 0 15.5 -7t6.5 -16q0 -8 -8 -16l-426 -426l514 -514q7 -7 7 -17q0 -9 -6.5 -14.5t-14.5 -5.5q-10 0 -16 6l-512 512l-205 -201v-294q0 -9 -6.5 -16t-14.5 -7q-9 0 -15.5 7t-6.5 16z" />
<glyph unicode="l" horiz-adv-x="425" d="M164 162v1259q0 9 5.5 16t14.5 7t16 -7t7 -16v-1259q0 -15 3 -33.5t18.5 -46.5t41.5 -41q13 -7 13 -18t-11 -19t-22 -2q-86 46 -86 160z" />
<glyph unicode="m" horiz-adv-x="1628" d="M143 954q0 12 10 20t23 1q74 -41 84 -133q17 36 47 69q90 103 240 103q146 0 237 -101q44 -53 68 -118q21 65 66 116q93 103 239 103q151 0 240 -103q88 -102 88 -258v-630q0 -9 -7 -16t-16 -7t-15.5 7t-6.5 16v630q0 142 -77 230t-206 88q-130 0 -207.5 -88.5 t-77.5 -229.5v-630q0 -9 -5.5 -16t-14.5 -7t-16 7t-7 16v630q0 142 -76.5 230t-205.5 88q-130 0 -207.5 -88.5t-77.5 -229.5v-630q0 -9 -6.5 -16t-15.5 -7q-7 0 -9 2q-12 3 -12 21v792q0 15 -3 33t-18.5 46t-41.5 42q-13 6 -13 18z" />
<glyph unicode="n" horiz-adv-x="1163" d="M143 954q0 12 10 20t23 1q29 -16 48 -40t26 -49.5t9.5 -41t2.5 -29.5v-22q19 45 64 100q111 127 295 127q181 0 292 -127q107 -119 107 -318v-552q0 -9 -6 -16t-15 -7t-15.5 7t-6.5 16v552q0 180 -96.5 291t-259.5 111t-261 -111t-98 -288v-555q0 -7 -2 -11 q-4 -12 -20 -12q-15 0 -19 12q-2 4 -2 11v792q0 16 -2.5 33.5t-18 45.5t-42.5 42q-13 6 -13 18z" />
<glyph unicode="o" horiz-adv-x="1181" d="M123 496q0 148 53.5 264t160.5 185t253 69q218 0 343.5 -145.5t125.5 -372.5q0 -148 -54 -264.5t-161.5 -185.5t-253.5 -69t-253 69t-160.5 185.5t-53.5 264.5zM166 496q2 -208 116.5 -342t307.5 -134t309.5 134t116.5 342t-116.5 341.5t-309.5 133.5q-194 0 -310 -134 q-115 -132 -114 -334v-7z" />
<glyph unicode="p" horiz-adv-x="1222" d="M164 -430v1401q0 20 20 20q9 0 16 -5.5t7 -14.5v-242q32 81 82 137q132 148 344 148q144 0 251.5 -70t161.5 -186.5t54 -261.5q0 -140 -51.5 -256t-159.5 -189.5t-256 -73.5q-212 0 -344 148q-52 58 -82 135v-690q0 -9 -7 -16t-16 -7t-14.5 7t-5.5 16zM207 496 q0 -210 116 -342.5t310 -133.5q192 1 308 135t116 341q0 210 -115.5 342.5t-308.5 132.5q-194 0 -310 -133t-116 -342z" />
<glyph unicode="q" horiz-adv-x="1222" d="M123 496q0 147 54.5 263.5t161.5 185.5t251 69q212 0 344 -148q50 -56 82 -137v242q0 9 6.5 14.5t15.5 5.5q21 0 21 -20v-1401q0 -9 -6 -16t-15 -7t-15.5 7t-6.5 16v690q-30 -77 -82 -135q-132 -148 -344 -148q-144 0 -251.5 71t-161.5 187.5t-54 260.5zM166 496 q0 -207 116 -341t308 -135q194 1 310 133.5t116 342.5q0 209 -116 342t-310 133q-193 0 -308.5 -132.5t-115.5 -342.5z" />
<glyph unicode="r" horiz-adv-x="761" d="M143 954q0 12 10 20t23 1q29 -16 48 -40t26 -49.5t9.5 -41t2.5 -29.5v-4q64 100 177 154.5t227 54.5q24 0 24 -23q0 -20 -24 -20q-82 0 -163.5 -30t-149 -94.5t-91.5 -150.5v-679q0 -10 -6 -16.5t-14 -6.5t-15.5 6.5t-7.5 16.5v792q0 16 -2.5 33.5t-18 45.5t-42.5 42 q-13 6 -13 18z" />
<glyph unicode="s" horiz-adv-x="989" d="M127 152q-6 13 0.5 22.5t17.5 9.5q16 0 25 -18q33 -66 117 -107t198 -41q149 0 241.5 68t92.5 172q0 105 -80 158q-54 35 -129 54.5t-137.5 25.5t-133.5 26.5t-120 57.5q-84 63 -84 174q0 68 31 119.5t82.5 81.5t111.5 44.5t125 14.5q126 0 216.5 -50.5t121.5 -136.5 q3 -13 -5 -21.5t-19 -8.5q-20 0 -25 18q-24 69 -99.5 111.5t-189.5 42.5q-143 -1 -223 -59.5t-80 -155.5q0 -93 64 -140q48 -35 120 -54.5t135.5 -26t138.5 -26t126 -54.5q100 -68 100 -195q0 -134 -110 -208.5t-271 -74.5q-120 0 -217 44.5t-141 132.5z" />
<glyph unicode="t" horiz-adv-x="643" d="M102 956q0 10 7 16.5t16 6.5h127v444q0 21 22 21q10 0 15.5 -6.5t5.5 -14.5v-444h213q9 0 15.5 -6.5t6.5 -16.5q0 -9 -6.5 -14.5t-15.5 -5.5h-213v-776q0 -39 17 -72.5t44 -46.5q15 -9 15 -23q0 -8 -6 -14t-15 -6q-4 0 -12 4q-28 16 -47 39t-26.5 47.5t-10 40.5t-2.5 31 v776h-127q-23 0 -23 20z" />
<glyph unicode="u" horiz-adv-x="1107" d="M143 420v536q0 9 6 16t15 7t15.5 -7t6.5 -16v-536q0 -180 97 -291t260 -111q162 0 260 111.5t98 288.5v538q0 10 6.5 16.5t14.5 6.5t15 -6.5t7 -16.5v-933q0 -10 -6 -16.5t-14 -6.5t-15.5 6.5t-7.5 16.5v180q-47 -105 -141.5 -166.5t-216.5 -61.5q-182 0 -293 127 q-107 119 -107 318z" />
<glyph unicode="v" horiz-adv-x="915" d="M53 950q-4 11 3.5 20t17.5 9q12 0 18 -12l365 -887l362 885q6 14 21 14q11 0 18.5 -9t1.5 -22l-383 -934q-7 -14 -20 -14q-14 0 -21 14z" />
<glyph unicode="w" horiz-adv-x="1476" d="M63 950q-4 11 3.5 20t17.5 9q15 0 18 -12l310 -879l305 877q6 14 22 14q15 0 21 -14l307 -877l305 877q6 14 21 14q11 0 17.5 -9t2.5 -22l-326 -934q-7 -14 -20 -14t-20 14l-310 879l-305 -879q-7 -14 -20 -14q-14 0 -21 14z" />
<glyph unicode="x" horiz-adv-x="1013" d="M82 20q0 11 8 19l389 450l-391 455q-6 6 -6 14q0 9 6.5 16t15.5 7t17 -8l387 -449l385 449q8 8 18 8q8 0 14.5 -5.5t6.5 -14.5q0 -11 -6 -17l-387 -455l387 -452q6 -6 6 -14q0 -9 -8 -16t-17 -7q-11 0 -16 8l-383 447l-385 -447q-8 -8 -19 -8q-9 0 -15.5 5.5t-6.5 14.5z " />
<glyph unicode="y" horiz-adv-x="1103" d="M66 944q-7 12 0 22.5t20 10.5q11 0 20 -12l447 -822l444 822q8 14 23 14q9 0 15.5 -7t6.5 -16q0 -4 -4 -12q-368 -676 -655 -1210q-11 -20 -20 -33t-28.5 -33t-48 -30.5t-65.5 -10.5q-11 0 -17.5 7.5t-6.5 15.5q0 22 22 22q79 0 115 70l192 356z" />
<glyph unicode="z" horiz-adv-x="1040" d="M92 23q0 8 6 14l760 899h-719q-24 0 -24 20q0 23 22 23h768q23 0 23 -18q0 -11 -6 -17l-760 -901h762q10 0 17 -6t7 -14q0 -9 -6 -16t-16 -7h-809q-11 0 -18 7.5t-7 15.5z" />
<glyph unicode="{" horiz-adv-x="655" d="M164 723q0 13 10 18q64 39 96.5 104t32.5 138v277q0 82 52 133t134 51q9 0 16 -6t7 -15t-7 -15.5t-16 -6.5q-63 0 -103 -39t-40 -102v-277q0 -21 -3.5 -45.5t-13.5 -65t-37 -80.5t-67 -69q40 -29 67 -69t37 -80.5t13.5 -65t3.5 -45.5v-277q0 -63 40 -102t103 -39 q9 0 16 -6.5t7 -15.5t-7 -16t-16 -7q-80 0 -133 53q-53 50 -53 133v277q0 20 -4 45t-15.5 64t-40 75t-69.5 58q-10 5 -10 18z" />
<glyph unicode="|" horiz-adv-x="372" d="M164 -297v1720q0 9 6.5 15t15.5 6t16 -6t7 -15v-1720q0 -9 -7 -15.5t-16 -6.5t-15.5 6.5t-6.5 15.5z" />
<glyph unicode="}" horiz-adv-x="657" d="M143 1421q0 10 7 16.5t16 6.5q83 0 135.5 -51t52.5 -133q-2 -273 -2 -277q0 -20 4 -46t16 -65t40 -74.5t69 -56.5q13 -7 13 -18t-13 -18q-41 -22 -69.5 -58t-40 -75t-15.5 -64t-4 -45v-285q0 -76 -54 -127t-132 -51q-9 0 -15 7t-6 16t6 15.5t15 6.5q63 0 103 39t40 102 v277q0 21 3.5 45.5t13.5 65t37 80.5t67 69q-40 29 -67 69t-37 80.5t-13.5 65t-3.5 45.5v277q0 63 -40 102t-103 39q-9 0 -16 5.5t-7 14.5z" />
<glyph unicode="~" horiz-adv-x="1044" d="M167.5 575.5q-7.5 12.5 2.5 24.5q35 48 90.5 73t114.5 25q90 0 160 -55q54 -45 122 -45q109 0 181 86q8 8 18 8q14 0 21 -13t-3 -26q-40 -49 -96.5 -74.5t-115.5 -25.5q-90 0 -158 53q-59 47 -133 47q-47 0 -91.5 -22t-72.5 -58q-10 -10 -19 -10q-13 0 -20.5 12.5z" />
<glyph unicode="&#xa1;" horiz-adv-x="466" d="M164 911q0 28 20 48t49 20t49.5 -20t20.5 -48q0 -29 -20.5 -49t-49.5 -20t-49 20t-20 49zM211 -465v1213q0 9 6.5 14.5t15.5 5.5t16 -5.5t7 -14.5v-1213q0 -10 -7 -16t-16 -6q-22 0 -22 22z" />
<glyph unicode="&#xa2;" horiz-adv-x="1142" d="M164 723q0 186 104.5 311t282.5 142v247q0 8 6.5 14.5t13.5 6.5q9 0 16 -6.5t7 -14.5v-245q123 0 217.5 -50t149.5 -141q2 -4 2 -12t-7 -14.5t-16 -6.5t-16 11q-52 84 -138.5 126t-191.5 44v-824q105 0 197.5 47t144.5 144q6 12 18 12q9 0 16 -6.5t7 -15.5q0 -7 -2 -11 q-54 -100 -152.5 -157.5t-228.5 -57.5v-243q0 -9 -7 -16t-16 -7q-8 0 -14 7t-6 16v245q-178 17 -282.5 142t-104.5 313zM207 723q2 -172 94 -283.5t250 -126.5v820q-158 -17 -250 -129t-94 -281z" />
<glyph unicode="&#xa3;" horiz-adv-x="1349" d="M164 723q0 20 20 20h154q-37 169 -37 287q0 168 107 293q123 143 331 143q74 0 137 -22.5t106.5 -57.5t79 -83.5t56 -92.5t35.5 -92q3 -11 -4 -19.5t-19 -8.5q-14 0 -20 16q-18 58 -45 108.5t-70.5 100.5t-109 79t-146.5 29q-98 0 -175.5 -35t-123.5 -93t-70 -125.5 t-24 -139.5q0 -129 37 -287h627q9 0 15.5 -5.5t6.5 -14.5t-6.5 -16t-15.5 -7h-615q39 -163 41 -272q0 -157 -67 -358q59 26 123 26q60 0 173 -36.5t189 -36.5q83 0 161 37t130 102q7 10 18 10q8 0 14.5 -6t6.5 -16q0 -7 -4 -15q-57 -73 -145 -114t-181 -41q-68 0 -136 18 t-125.5 36.5t-100.5 18.5q-71 0 -150 -47q-8 -4 -12 -4q-8 0 -14.5 6t-6.5 15q0 6 2 10q80 231 80 395q0 101 -41 272h-166q-9 0 -14.5 7t-5.5 16z" />
<glyph unicode="&#xa5;" horiz-adv-x="1345" d="M167 1433q6 11 19 11q14 0 19 -8l467 -621l469 621q5 8 18 8t19.5 -11t-2.5 -24l-459 -608h348q9 0 15.5 -7t6.5 -16t-6.5 -15.5t-15.5 -6.5h-371v-86h371q9 0 15.5 -7t6.5 -16t-6.5 -15.5t-15.5 -6.5h-371v-602q0 -9 -6 -16t-16 -7q-8 0 -14.5 6.5t-6.5 16.5v602h-370 q-9 0 -16 6.5t-7 15.5t7 16t16 7h370v86h-370q-9 0 -16 6.5t-7 15.5t7 16t16 7h348l-459 608q-9 13 -3 24z" />
<glyph unicode="&#xa6;" horiz-adv-x="370" d="M164 -168v645q0 10 6 16.5t14 6.5q9 0 16 -6.5t7 -16.5v-645q0 -22 -23 -22q-20 0 -20 22zM164 776v645q0 10 6 16.5t14 6.5q9 0 16 -6.5t7 -16.5v-645q0 -22 -23 -22q-20 0 -20 22z" />
<glyph unicode="&#xa7;" horiz-adv-x="1081" d="M166 109q0 9 6.5 16.5t15.5 7.5t15 -6q128 -109 297 -109q62 0 124 15.5t118.5 47t92 87t35.5 127.5q0 64 -20 108q-24 47 -64 84q-60 53 -231 119q-104 39 -165 68t-105 65q-103 83 -103 207q0 63 37 123q-33 61 -33 129q0 119 102 193.5t242 74.5q190 0 334 -141 q6 -6 6 -16q0 -8 -6 -14.5t-16 -6.5q-8 0 -14 6q-134 127 -304 127q-128 0 -214.5 -62.5t-86.5 -162.5q0 -101 86 -172q65 -53 258 -127q177 -67 246 -127q99 -86 99 -225q0 -64 -27 -123q24 -63 24 -127q0 -78 -36 -140.5t-95.5 -100.5t-132.5 -58.5t-151 -20.5 q-187 0 -326 117q-8 5 -8 17zM225 946q3 -102 88 -172q67 -55 256 -127q174 -64 246 -127q24 -21 47 -51q12 46 12 76q0 118 -83 192q-68 58 -234 121l-44 16.5t-49 19t-44.5 18.5t-49 23.5t-42 25.5t-44 32t-36.5 37q-23 -41 -23 -84z" />
<glyph unicode="&#xa8;" horiz-adv-x="1265" d="M414 1225q0 28 20 48.5t49 20.5t49.5 -20.5t20.5 -48.5q0 -29 -20.5 -49.5t-49.5 -20.5t-49 20.5t-20 49.5zM727 1225q0 28 20.5 48.5t49.5 20.5q28 0 48.5 -20.5t20.5 -48.5q0 -29 -20.5 -49.5t-48.5 -20.5q-29 0 -49.5 20.5t-20.5 49.5z" />
<glyph unicode="&#xa9;" horiz-adv-x="1818" d="M164 723q0 152 59 289.5t158.5 237t237.5 158t290 58.5t290 -58.5t238 -158t159 -237t59 -289.5q0 -203 -100 -374.5t-271.5 -271.5t-374.5 -100q-152 0 -290 59t-237.5 159t-158.5 238t-59 290zM207 723q0 -189 94 -351t256 -257t352 -95t351.5 95t255.5 256.5t94 351.5 t-94 351.5t-255.5 255t-351.5 93.5q-143 0 -272.5 -55.5t-224 -149t-150 -223t-55.5 -272.5zM623 723q0 188 75 279.5t211 91.5q95 0 162.5 -50.5t97.5 -138.5v-6q0 -9 -6.5 -14.5t-15.5 -5.5q-16 0 -19 14q-57 158 -219 158q-243 0 -243 -328t243 -328q158 0 217 150 q6 14 21 14q8 0 14 -5.5t6 -14.5v-9q-31 -89 -97.5 -133.5t-156.5 -44.5q-290 0 -290 371z" />
<glyph unicode="&#xaa;" horiz-adv-x="753" d="M123 969q0 120 68 195t176 75q135 0 202 -106v65q0 9 6 16t15 7t15.5 -7t6.5 -16v-393q0 -39 27 -53q10 -7 10 -19q0 -8 -5.5 -15t-14.5 -7q-26 0 -42 31.5t-18 62.5v2q-68 -107 -202 -107q-109 0 -176.5 74t-67.5 195zM166 969q0 -101 55 -163.5t146 -62.5t146.5 62.5 t55.5 163.5t-55.5 164t-146.5 63q-90 0 -145.5 -62.5t-55.5 -164.5z" />
<glyph unicode="&#xab;" horiz-adv-x="940" d="M164 475q0 9 8 17l289 288q8 8 16 8q9 0 15 -7t6 -15q0 -10 -6 -16l-275 -273l275 -272q8 -12 8 -17q0 -9 -7.5 -15.5t-15.5 -6.5t-16 8l-289 287q-8 5 -8 14zM440 475q0 8 9 17l288 288q8 8 17 8t15.5 -6.5t6.5 -15.5q0 -8 -8 -16l-272 -273l272 -272q6 -6 6 -17 q0 -8 -6.5 -14t-15.5 -6t-15 6l-288 287q-9 9 -9 14z" />
<glyph unicode="&#xac;" horiz-adv-x="1566" d="M164 723q0 9 6.5 15.5t15.5 6.5h1194q9 0 16 -6.5t7 -15.5v-473q0 -23 -23 -23q-20 0 -20 23v450h-1174q-9 0 -15.5 7t-6.5 16z" />
<glyph unicode="&#xad;" horiz-adv-x="1075" d="M164 487q0 23 24 23h699q10 0 16 -7t6 -16q0 -8 -6 -14t-16 -6h-699q-24 0 -24 20z" />
<glyph unicode="&#xae;" horiz-adv-x="1083" d="M164 1087q0 157 110 267t267 110t268 -110t111 -267q0 -156 -111 -266t-268 -110t-267 109.5t-110 266.5zM207 1087q0 -138 98 -235.5t236 -97.5t235.5 97.5t97.5 235.5t-97.5 236t-235.5 98t-236 -98t-98 -236zM397 897v385q0 10 7.5 16.5t15.5 6.5h143q54 0 87.5 -35 t33.5 -84q0 -27 -13.5 -54t-35.5 -40q23 -13 36 -41.5t13 -57.5v-53q0 -17 10 -22q11 -7 11 -21q0 -10 -7 -15t-14 -5q-21 0 -33 22t-12 41v53q0 34 -21 55t-55 21h-121v-172q0 -9 -6.5 -14.5t-15.5 -5.5t-16 5.5t-7 14.5zM442 1112h121q34 0 55 21t21 53q0 34 -21 55 t-55 21h-121v-150z" />
<glyph unicode="&#xaf;" horiz-adv-x="1175" d="M367 1243q0 23 24 23h436q10 0 16.5 -7t6.5 -16q0 -8 -6.5 -14t-16.5 -6h-436q-24 0 -24 20z" />
<glyph unicode="&#xb0;" horiz-adv-x="526" d="M102 1042q0 66 47.5 113t114.5 47q66 0 113 -47t47 -113t-47 -112.5t-113 -46.5q-67 0 -114.5 46.5t-47.5 112.5zM147 1042q0 -48 34 -82t83 -34q47 0 82 34.5t35 81.5q0 49 -34.5 83t-82.5 34q-50 0 -83.5 -33.5t-33.5 -83.5z" />
<glyph unicode="&#xb1;" horiz-adv-x="983" d="M164 23q0 9 6.5 15.5t15.5 6.5h611q9 0 15.5 -6.5t6.5 -15.5t-6.5 -16t-15.5 -7h-611q-9 0 -15.5 7t-6.5 16zM164 481q0 9 6.5 16t15.5 7h283v282q0 9 7 16t16 7t15.5 -7t6.5 -16v-282h283q9 0 15.5 -7t6.5 -16t-6.5 -14.5t-15.5 -5.5h-283v-285q0 -9 -6.5 -14.5 t-15.5 -5.5t-16 5.5t-7 14.5v285h-283q-9 0 -15.5 5.5t-6.5 14.5z" />
<glyph unicode="&#xb2;" horiz-adv-x="684" d="M125 721q0 8 6 14l336 355q47 53 47 104q0 66 -46.5 104.5t-123.5 38.5q-75 0 -121.5 -39.5t-46.5 -103.5q0 -9 -6 -16t-14 -7q-9 0 -16 7t-7 16q0 83 59 135.5t152 52.5q94 0 153.5 -52.5t59.5 -135.5q0 -70 -59 -135l-299 -318h350q9 0 15.5 -5.5t6.5 -14.5t-6.5 -16 t-15.5 -7h-402q-9 0 -15.5 7.5t-6.5 15.5z" />
<glyph unicode="&#xb3;" horiz-adv-x="698" d="M113 887q0 9 6.5 15.5t15.5 6.5t15 -6.5t6 -15.5q0 -67 53 -110.5t135 -43.5t135 43.5t53 110.5q0 64 -51.5 103.5t-136.5 39.5q-9 0 -15.5 6.5t-6.5 14.5q0 9 6.5 15.5t15.5 6.5q75 0 121.5 35t46.5 92q0 60 -47.5 99.5t-120.5 39.5q-79 0 -123.5 -41t-44.5 -98 q0 -9 -6.5 -14.5t-15.5 -5.5q-21 0 -21 20q0 78 60 130t151 52q92 0 151.5 -51t59.5 -131q0 -101 -96 -147q55 -22 85.5 -65t30.5 -101q0 -86 -65 -141.5t-166 -55.5q-100 0 -165.5 55.5t-65.5 141.5z" />
<glyph unicode="&#xb4;" horiz-adv-x="1705" d="M587 1117.5q-7 11.5 1 23.5l123 198q5 11 18 11t20.5 -11.5t0.5 -23.5l-125 -197q-6 -12 -19 -12q-12 0 -19 11.5z" />
<glyph unicode="&#xb5;" horiz-adv-x="1130" d="M164 -170v1128q0 8 6 14.5t16 6.5q8 0 15.5 -7t7.5 -14v-536q0 -182 97.5 -292t258.5 -110q159 0 258 110.5t99 291.5v536q0 7 7 14t15 7q9 0 16 -6.5t7 -14.5v-938q0 -8 -7 -15t-16 -7q-8 0 -15 7t-7 15v187q-48 -107 -142 -169.5t-215 -62.5q-125 0 -218 60.5 t-138 167.5v-373q0 -7 -7.5 -13.5t-15.5 -6.5q-10 0 -16 6t-6 14z" />
<glyph unicode="&#xb6;" horiz-adv-x="974" d="M164 1100q0 144 99.5 244t248.5 100h276q11 0 17 -6t6 -15v-1521q0 -9 -7 -16t-16 -7t-15.5 7t-6.5 16v1499h-133v-1499q0 -9 -7 -16t-16 -7q-8 0 -14 7t-6 16v854h-78q-144 0 -246 98t-102 246z" />
<glyph unicode="&#xb7;" horiz-adv-x="466" d="M164 313q0 29 20 49.5t49 20.5q28 0 49 -20.5t21 -49.5t-21 -49t-49 -20q-29 0 -49 20t-20 49z" />
<glyph unicode="&#xb8;" horiz-adv-x="1095" d="M479 -217q-7 13 1 23t20 10t18 -13q11 -24 41 -39.5t74 -15.5q59 1 90 24t31 58t-18.5 52t-53.5 26q-63 12 -78 20q-35 18 -35 66q0 11 6.5 17.5t14.5 6.5q22 0 22 -22q0 -11 3.5 -18.5t12 -11.5t16 -6t22.5 -4.5t24 -4.5q49 -11 78 -42t29 -79q-4 -62 -50 -93.5 t-114 -31.5q-116 0 -154 78z" />
<glyph unicode="&#xb9;" horiz-adv-x="454" d="M113 1196q0 10 6 16l155 154q6 6 15 6t15.5 -6t6.5 -14v-631q0 -9 -6.5 -15t-15.5 -6t-15 6t-6 15v577l-118 -116q-8 -8 -17 -8q-8 0 -14 7.5t-6 14.5z" />
<glyph unicode="&#xba;" horiz-adv-x="735" d="M123 969q0 120 68 195t176 75q110 0 177.5 -74.5t67.5 -195.5q0 -119 -68 -194t-177 -75t-176.5 74t-67.5 195zM166 969q0 -101 56 -163.5t145 -62.5q91 0 146.5 62.5t55.5 163.5t-55.5 164t-146.5 63q-89 0 -145 -63t-56 -164z" />
<glyph unicode="&#xbb;" horiz-adv-x="940" d="M164 766q0 9 6.5 15.5t15.5 6.5t17 -8l289 -288q8 -8 8 -17q0 -6 -8 -14l-289 -287q-6 -6 -15 -6t-15.5 6t-6.5 14q0 11 6 17l272 272l-272 273q-8 8 -8 16zM440 188q0 4 9 17l274 272l-274 273q-7 7 -7 16q0 8 6 15t15 7q8 0 16 -8l289 -288q8 -8 8 -17t-8 -14 l-289 -287q-8 -8 -16 -8t-15.5 6.5t-7.5 15.5z" />
<glyph unicode="&#xbc;" horiz-adv-x="1212" d="M102 1196q0 6 7 16l153 154q11 11 25 4q12 -3 12 -18v-631q0 -21 -20 -21q-9 0 -16 6t-7 15v577l-117 -116q-8 -8 -16 -8t-14.5 7.5t-6.5 14.5zM248 29l524 1398q7 17 21 17q10 0 16.5 -11t3.5 -20l-524 -1399q-3 -14 -21 -14q-11 0 -17.5 10t-2.5 19zM612 246q0 10 2 14 l338 406q8 8 17 8q10 0 16 -7.5t6 -15.5v-383h68q9 0 14.5 -6.5t5.5 -15.5t-5.5 -16t-14.5 -7h-68v-200q0 -9 -5.5 -16t-14.5 -7t-16 7t-7 16v200h-317q-19 0 -19 23zM678 268h270v324z" />
<glyph unicode="&#xbd;" horiz-adv-x="1214" d="M113 1196q0 10 6 16l155 154q6 6 15 6t15.5 -6t6.5 -14v-631q0 -9 -6.5 -15t-15.5 -6t-15 6t-6 15v577l-118 -116q-8 -8 -17 -8q-8 0 -14 7.5t-6 14.5zM258 29l524 1398q7 17 21 17q10 0 16.5 -11t3.5 -20l-524 -1399q-3 -14 -20 -14q-11 0 -18 10t-3 19zM645 23 q0 8 6 14l336 354q47 53 47 105q0 66 -46.5 104.5t-123.5 38.5q-75 0 -121.5 -39.5t-46.5 -103.5q0 -9 -6 -16t-14 -7q-9 0 -16 7t-7 16q0 83 59 135.5t152 52.5q94 0 153.5 -52.5t59.5 -135.5q0 -71 -59 -136l-299 -317h350q9 0 16 -5.5t7 -14.5t-7 -16t-16 -7h-401 q-9 0 -16 7.5t-7 15.5z" />
<glyph unicode="&#xbe;" horiz-adv-x="1449" d="M113 887q0 9 6.5 15.5t15.5 6.5t15 -6.5t6 -15.5q0 -67 53 -110.5t135 -43.5t135 43.5t53 110.5q0 64 -51.5 103.5t-136.5 39.5q-9 0 -15.5 6.5t-6.5 14.5q0 9 6.5 15.5t15.5 6.5q75 0 121.5 35t46.5 92q0 60 -47.5 99.5t-120.5 39.5q-79 0 -123.5 -41t-44.5 -98 q0 -9 -6.5 -14.5t-15.5 -5.5q-21 0 -21 20q0 78 60 130t151 52q92 0 151.5 -51t59.5 -131q0 -101 -96 -147q55 -22 85.5 -65t30.5 -101q0 -86 -65 -141.5t-166 -55.5q-100 0 -165.5 55.5t-65.5 141.5zM494 29l524 1398q7 17 20 17q10 0 17 -11t4 -20l-524 -1399 q-3 -14 -21 -14q-11 0 -17.5 10t-2.5 19zM856 246q0 8 6 14l338 406q8 8 17 8q10 0 16 -7.5t6 -15.5v-383h66q9 0 15.5 -6.5t6.5 -15.5t-6.5 -16t-15.5 -7h-66v-200q0 -9 -6.5 -16t-15.5 -7t-16 7t-7 16v200h-315q-9 0 -16 7.5t-7 15.5zM926 268h268v324z" />
<glyph unicode="&#xbf;" horiz-adv-x="1142" d="M164 -63q0 122 59 210.5t168 165.5q124 87 170.5 193t46.5 276q0 9 7 15t16 6t15.5 -6t6.5 -15q0 -173 -52.5 -291t-182.5 -210q-118 -83 -164.5 -159.5t-46.5 -184.5q0 -151 96 -235.5t268 -84.5q168 0 265.5 92.5t97.5 245.5q0 9 6.5 15.5t15.5 6.5t16 -6.5t7 -15.5 q-5 -179 -114.5 -283t-293.5 -104q-181 0 -294 100t-113 269zM561 969q0 29 20.5 49t49.5 20t49 -20t20 -49t-20 -49.5t-49 -20.5t-49.5 20.5t-20.5 49.5z" />
<glyph unicode="&#xc0;" horiz-adv-x="1386" d="M61 18q0 7 2 11l609 1401q6 14 20 14q15 0 21 -14l608 -1401q6 -12 -1.5 -21.5t-19.5 -9.5q-14 0 -20 14l-211 486h-754l-211 -486q-6 -14 -20 -14q-9 0 -16 5.5t-7 14.5zM334 541h717l-359 825zM596 1737q0 9 8 15.5t17 6.5q12 0 18 -10l123 -199q4 -8 4 -12 q0 -9 -7.5 -15.5t-15.5 -6.5q-12 0 -18 12l-125 196q-4 8 -4 13z" />
<glyph unicode="&#xc1;" horiz-adv-x="1386" d="M61 18q0 7 2 11l609 1401q6 14 20 14q15 0 21 -14l608 -1401q6 -12 -1.5 -21.5t-19.5 -9.5q-14 0 -20 14l-211 486h-754l-211 -486q-6 -14 -20 -14q-9 0 -16 5.5t-7 14.5zM334 541h717l-359 825zM691.5 1527q-7.5 11 0.5 23l123 199q5 10 19 10q13 0 20 -11.5t0 -23.5 l-125 -196q-6 -12 -18 -12t-19.5 11z" />
<glyph unicode="&#xc2;" horiz-adv-x="1386" d="M61 18q0 7 2 11l609 1401q6 14 20 14q15 0 21 -14l608 -1401q6 -12 -1.5 -21.5t-19.5 -9.5q-14 0 -20 14l-211 486h-754l-211 -486q-6 -14 -20 -14q-9 0 -16 5.5t-7 14.5zM334 541h717l-359 825zM492 1585q0 11 6 17l172 172q6 6 14 6q10 0 16 -6l172 -172q7 -7 7 -17 q0 -8 -7 -14t-16 -6q-8 0 -14 6l-158 158l-156 -158q-6 -6 -16 -6q-9 0 -14.5 6t-5.5 14z" />
<glyph unicode="&#xc3;" horiz-adv-x="1386" d="M61 18q0 7 2 11l609 1401q6 14 20 14q15 0 21 -14l608 -1401q6 -12 -1.5 -21.5t-19.5 -9.5q-14 0 -20 14l-211 486h-754l-211 -486q-6 -14 -20 -14q-9 0 -16 5.5t-7 14.5zM334 541h717l-359 825zM438 1632q0 11 4 15q56 71 146 71q64 0 114 -41q38 -28 89 -28 q70 0 116 55q5 8 17 8q10 0 16 -6t6 -14q0 -9 -6 -15q-27 -35 -67 -54t-82 -19q-69 0 -115 38q-42 31 -88 31q-70 0 -111 -53q-5 -8 -18 -8q-9 0 -15 6t-6 14z" />
<glyph unicode="&#xc4;" horiz-adv-x="1386" d="M61 18q0 7 2 11l609 1401q6 14 20 14q15 0 21 -14l608 -1401q6 -12 -1.5 -21.5t-19.5 -9.5q-14 0 -20 14l-211 486h-754l-211 -486q-6 -14 -20 -14q-9 0 -16 5.5t-7 14.5zM334 541h717l-359 825zM465 1634q0 28 20.5 49t49.5 21t49 -21t20 -49q0 -29 -20 -49t-49 -20 t-49.5 20t-20.5 49zM778 1634q0 28 20.5 49t49.5 21q28 0 49 -21t21 -49q0 -29 -21 -49t-49 -20q-29 0 -49.5 20t-20.5 49z" />
<glyph unicode="&#xc5;" horiz-adv-x="1386" d="M61 18q0 7 2 11l609 1401q6 14 20 14q15 0 21 -14l608 -1401q6 -12 -1.5 -21.5t-19.5 -9.5q-14 0 -20 14l-211 486h-754l-211 -486q-6 -14 -20 -14q-9 0 -16 5.5t-7 14.5zM334 541h717l-359 825zM530 1724q0 66 47.5 113t114.5 47q66 0 113 -47t47 -113t-47 -112.5 t-113 -46.5q-67 0 -114.5 46.5t-47.5 112.5zM575 1724q0 -48 34 -82t83 -34q47 0 82 34.5t35 81.5q0 49 -34.5 83t-82.5 34q-50 0 -83.5 -33.5t-33.5 -83.5z" />
<glyph unicode="&#xc6;" horiz-adv-x="2168" d="M31 18q0 9 4 15l1016 1394q10 17 22 17h926q9 0 15.5 -7t6.5 -16t-6.5 -15.5t-15.5 -6.5h-905v-631h698q9 0 16 -7t7 -16t-7 -15.5t-16 -6.5h-698v-680h929q9 0 16 -7t7 -16t-7 -14.5t-16 -5.5h-944q-28 0 -28 25v473h-625l-356 -490q-5 -8 -19 -8q-20 0 -20 18zM457 541 h594v813z" />
<glyph unicode="&#xc7;" horiz-adv-x="1312" d="M123 719q0 101 12 191t37.5 175.5t69.5 153t104.5 119t146 79t189.5 27.5q184 0 315 -100t191 -285q3 -13 -4 -21.5t-17 -8.5q-14 0 -20 16q-58 174 -177 265t-288 91q-120 0 -212.5 -40.5t-149 -106.5t-92 -160t-49 -189t-13.5 -206q0 -113 15 -211t52 -190t94.5 -157 t148 -104t206.5 -39q165 0 282 86.5t177 253.5q6 15 20 15q11 0 19 -10t4 -21q-63 -173 -191 -268.5t-303 -98.5l8 -16q10 -6 66 -16q49 -9 77.5 -41.5t28.5 -79.5q0 -59 -47 -92t-118 -33q-104 0 -154 78q-4 8 -4 12q0 9 7 14.5t15 5.5t22.5 -16.5t43 -33.5t70.5 -17 q59 0 89.5 23t30.5 59q0 41 -27 60t-59.5 22t-62 20t-33.5 53q-119 7 -211.5 53t-150 115.5t-94 166.5t-50.5 195.5t-14 211.5z" />
<glyph unicode="&#xc8;" horiz-adv-x="1292" d="M174 20v1401q0 9 6 15q8 8 17 8h925q9 0 16 -7t7 -16t-7 -15.5t-16 -6.5h-905v-631h698q9 0 16 -7t7 -16t-7 -15.5t-16 -6.5h-698v-680h930q9 0 15.5 -7t6.5 -16t-6.5 -14.5t-15.5 -5.5h-950q-11 0 -17 6t-6 14zM586 1737q0 9 7.5 15.5t16.5 6.5q13 0 19 -10l123 -199 q4 -8 4 -12q0 -9 -7.5 -15.5t-15.5 -6.5q-12 0 -18 12l-125 196q-4 8 -4 13z" />
<glyph unicode="&#xc9;" horiz-adv-x="1292" d="M174 20v1401q0 9 6 15q8 8 17 8h925q9 0 16 -7t7 -16t-7 -15.5t-16 -6.5h-905v-631h698q9 0 16 -7t7 -16t-7 -15.5t-16 -6.5h-698v-680h930q9 0 15.5 -7t6.5 -16t-6.5 -14.5t-15.5 -5.5h-950q-11 0 -17 6t-6 14zM591 1527q-7 11 1 23l123 199q5 10 18 10t20.5 -11.5 t0.5 -23.5l-125 -196q-6 -12 -19 -12q-12 0 -19 11z" />
<glyph unicode="&#xca;" horiz-adv-x="1292" d="M174 20v1401q0 9 6 15q8 8 17 8h925q9 0 16 -7t7 -16t-7 -15.5t-16 -6.5h-905v-631h698q9 0 16 -7t7 -16t-7 -15.5t-16 -6.5h-698v-680h930q9 0 15.5 -7t6.5 -16t-6.5 -14.5t-15.5 -5.5h-950q-11 0 -17 6t-6 14zM471 1585q0 11 6 17l172 172q6 6 15 6q10 0 16 -6 l172 -172q6 -6 6 -17q0 -8 -6.5 -14t-15.5 -6t-15 6l-157 158l-156 -158q-6 -6 -16 -6q-9 0 -15 6t-6 14z" />
<glyph unicode="&#xcb;" horiz-adv-x="1292" d="M174 20v1401q0 9 6 15q8 8 17 8h925q9 0 16 -7t7 -16t-7 -15.5t-16 -6.5h-905v-631h698q9 0 16 -7t7 -16t-7 -15.5t-16 -6.5h-698v-680h930q9 0 15.5 -7t6.5 -16t-6.5 -14.5t-15.5 -5.5h-950q-11 0 -17 6t-6 14zM444 1634q0 28 20.5 49t49.5 21t49.5 -21t20.5 -49 q0 -29 -20.5 -49t-49.5 -20t-49.5 20t-20.5 49zM758 1634q0 28 20 49t49 21q28 0 49 -21t21 -49q0 -29 -21 -49t-49 -20q-29 0 -49 20t-20 49z" />
<glyph unicode="&#xcc;" horiz-adv-x="757" d="M143 23q0 20 21 20h192v1356h-192q-9 0 -15 6.5t-6 15.5t6 15t15 6h409q9 0 15 -6t6 -15t-6 -15.5t-15 -6.5h-172v-1356h172q21 0 21 -20q0 -9 -6 -16t-15 -7h-409q-9 0 -15 7t-6 16zM287 1737q0 9 7.5 15.5t16.5 6.5q13 0 19 -10l123 -199q4 -8 4 -12q0 -9 -7.5 -15.5 t-15.5 -6.5q-12 0 -18 12l-125 196q-4 8 -4 13z" />
<glyph unicode="&#xcd;" horiz-adv-x="757" d="M143 23q0 20 21 20h192v1356h-192q-9 0 -15 6.5t-6 15.5t6 15t15 6h409q9 0 15 -6t6 -15t-6 -15.5t-15 -6.5h-172v-1356h172q21 0 21 -20q0 -9 -6 -16t-15 -7h-409q-9 0 -15 7t-6 16zM341 1527q-7 11 1 23l123 199q5 10 18 10t20.5 -11.5t0.5 -23.5l-125 -196 q-6 -12 -19 -12q-12 0 -19 11z" />
<glyph unicode="&#xce;" horiz-adv-x="757" d="M143 23q0 20 21 20h192v1356h-192q-9 0 -15 6.5t-6 15.5t6 15t15 6h409q9 0 15 -6t6 -15t-6 -15.5t-15 -6.5h-172v-1356h172q21 0 21 -20q0 -9 -6 -16t-15 -7h-409q-9 0 -15 7t-6 16zM186 1585q0 10 7 17l172 172q6 6 14 6q10 0 16 -6l172 -172q6 -6 6 -17q0 -8 -6.5 -14 t-15.5 -6q-8 0 -14 6l-158 158l-156 -158q-6 -6 -16 -6q-9 0 -15 6t-6 14z" />
<glyph unicode="&#xcf;" horiz-adv-x="757" d="M143 23q0 20 21 20h192v1356h-192q-9 0 -15 6.5t-6 15.5t6 15t15 6h409q9 0 15 -6t6 -15t-6 -15.5t-15 -6.5h-172v-1356h172q21 0 21 -20q0 -9 -6 -16t-15 -7h-409q-9 0 -15 7t-6 16zM156 1634q0 28 20 49t49 21t49.5 -21t20.5 -49q0 -29 -20.5 -49t-49.5 -20t-49 20 t-20 49zM469 1634q0 28 20.5 49t49.5 21q28 0 48.5 -21t20.5 -49q0 -29 -20.5 -49t-48.5 -20q-29 0 -49.5 20t-20.5 49z" />
<glyph unicode="&#xd0;" horiz-adv-x="1417" d="M61 721q0 9 7 15.5t16 6.5h168v676q0 10 6.5 17.5t15.5 7.5h490q256 0 389 -172q141 -179 141 -551q0 -369 -141 -551q-131 -170 -389 -170h-492q-20 0 -20 20v678h-168q-9 0 -16 7t-7 16zM295 43h469q232 0 354 154q133 168 133 524t-133 524q-122 154 -354 154h-469 v-656h383q9 0 15.5 -6.5t6.5 -15.5t-6.5 -16t-15.5 -7h-383v-655z" />
<glyph unicode="&#xd1;" horiz-adv-x="1363" d="M174 23v1398q0 9 6 17t15 8q11 0 18 -10l934 -1344v1329q0 9 6 16t14 7q9 0 16 -7t7 -16v-1398q0 -10 -7.5 -16.5t-15.5 -6.5q-9 0 -16 10l-934 1342v-1329q0 -9 -6 -16t-16 -7q-9 0 -15 7t-6 16zM428 1632q0 11 4 15q56 71 146 71q64 0 114 -41q38 -28 88 -28 q71 0 117 55q5 8 16 8q10 0 16.5 -6t6.5 -14q0 -9 -6 -15q-27 -35 -67.5 -54t-82.5 -19q-68 0 -114 38q-42 31 -88 31q-70 0 -111 -53q-5 -8 -18 -8q-9 0 -15 6t-6 14z" />
<glyph unicode="&#xd2;" horiz-adv-x="1351" d="M123 721q0 372 147 563q142 182 406 182q263 0 405 -182q148 -193 148 -563q0 -371 -148 -561q-143 -183 -403 -183q-265 0 -408 183q-147 188 -147 561zM166 721q0 -357 139 -535q127 -163 371 -163t371 163q139 178 139 535q0 358 -139 536q-129 166 -371 166 t-371 -166q-139 -178 -139 -536zM590 1737q0 9 7.5 15.5t16.5 6.5q13 0 19 -10l123 -199q4 -8 4 -12q0 -9 -7.5 -15.5t-15.5 -6.5q-12 0 -18 12l-125 196q-4 8 -4 13z" />
<glyph unicode="&#xd3;" horiz-adv-x="1351" d="M123 721q0 372 147 563q142 182 406 182q263 0 405 -182q148 -193 148 -563q0 -371 -148 -561q-143 -183 -403 -183q-265 0 -408 183q-147 188 -147 561zM166 721q0 -357 139 -535q127 -163 371 -163t371 163q139 178 139 535q0 358 -139 536q-129 166 -371 166 t-371 -166q-139 -178 -139 -536zM595 1527q-7 11 1 23l123 199q5 10 18 10t20.5 -11.5t0.5 -23.5l-125 -196q-6 -12 -19 -12q-12 0 -19 11z" />
<glyph unicode="&#xd4;" horiz-adv-x="1351" d="M123 721q0 372 147 563q142 182 406 182q263 0 405 -182q148 -193 148 -563q0 -371 -148 -561q-143 -183 -403 -183q-265 0 -408 183q-147 188 -147 561zM166 721q0 -357 139 -535q127 -163 371 -163t371 163q139 178 139 535q0 358 -139 536q-129 166 -371 166 t-371 -166q-139 -178 -139 -536zM475 1585q0 11 6 17l172 172q6 6 15 6q10 0 16 -6l172 -172q6 -6 6 -17q0 -8 -6.5 -14t-15.5 -6t-15 6l-157 158l-156 -158q-6 -6 -16 -6q-9 0 -15 6t-6 14z" />
<glyph unicode="&#xd5;" horiz-adv-x="1372" d="M133 721q0 370 148 563q142 182 405 182q264 0 406 -182q147 -191 147 -563q0 -373 -147 -561q-143 -183 -404 -183q-264 0 -407 183q-148 190 -148 561zM176 721q0 -357 139 -535q127 -163 371 -163t371 163q139 178 139 535q0 358 -139 536q-129 166 -371 166 t-371 -166q-139 -178 -139 -536zM432 1632q0 11 4 15q56 71 146 71q64 0 114 -41q38 -28 88 -28q71 0 117 55q5 8 17 8q10 0 16 -6t6 -14q0 -9 -6 -15q-27 -35 -67.5 -54t-82.5 -19q-68 0 -114 38q-42 31 -88 31q-70 0 -111 -53q-5 -8 -18 -8q-9 0 -15 6t-6 14z" />
<glyph unicode="&#xd6;" horiz-adv-x="1351" d="M123 721q0 372 147 563q142 182 406 182q263 0 405 -182q148 -193 148 -563q0 -371 -148 -561q-143 -183 -403 -183q-265 0 -408 183q-147 188 -147 561zM166 721q0 -357 139 -535q127 -163 371 -163t371 163q139 178 139 535q0 358 -139 536q-129 166 -371 166 t-371 -166q-139 -178 -139 -536zM449 1634q0 28 20 49t49 21t49.5 -21t20.5 -49q0 -29 -20.5 -49t-49.5 -20t-49 20t-20 49zM762 1634q0 28 20 49t49 21q28 0 49 -21t21 -49q0 -29 -21 -49t-49 -20q-29 0 -49 20t-20 49z" />
<glyph unicode="&#xd7;" horiz-adv-x="1210" d="M164 18q0 11 8 19l401 403l-401 402q-8 8 -8 16q0 9 6 16t14 7q10 0 19 -9l403 -401l402 401q9 9 16 9q9 0 16 -7t7 -16q0 -7 -9 -16l-401 -402l401 -403q9 -9 9 -19q0 -8 -7 -14t-16 -6q-8 0 -16 8l-402 404l-403 -404q-8 -8 -19 -8q-8 0 -14 6t-6 14z" />
<glyph unicode="&#xd8;" horiz-adv-x="1351" d="M123 721q0 372 147 563q142 182 406 182q224 0 366 -139l70 107q9 12 21 12q8 0 14 -6t6 -15q0 -6 -4 -14l-76 -119l8 -8q148 -193 148 -563q0 -371 -148 -561q-143 -183 -403 -183q-225 0 -363 132l-63 -99q-8 -10 -21 -10q-8 0 -14 5.5t-6 14.5q0 7 4 15l68 106l-13 19 q-147 188 -147 561zM166 721q0 -357 139 -535q0 -2 4 -6l711 1108q-126 135 -344 135q-242 0 -371 -166q-139 -178 -139 -536zM340 147q121 -124 336 -124q244 0 371 163q139 178 139 535q0 352 -137 532z" />
<glyph unicode="&#xd9;" horiz-adv-x="1329" d="M164 465v956q0 9 5.5 16t14.5 7q10 0 16.5 -7t6.5 -16v-956q0 -209 126.5 -328t330.5 -119q208 0 333 117t125 330v956q0 9 6 16t15 7q10 0 16 -7t6 -16v-956q0 -231 -141 -363q-136 -127 -360 -127q-223 0 -359 127q-141 132 -141 363zM580 1737q0 9 7.5 15.5t16.5 6.5 q13 0 19 -10l122 -199q5 -10 5 -12q0 -9 -7.5 -15.5t-15.5 -6.5q-12 0 -18 12l-125 196q-4 8 -4 13z" />
<glyph unicode="&#xda;" horiz-adv-x="1329" d="M164 465v956q0 9 5.5 16t14.5 7q10 0 16.5 -7t6.5 -16v-956q0 -209 126.5 -328t330.5 -119q208 0 333 117t125 330v956q0 9 6 16t15 7q10 0 16 -7t6 -16v-956q0 -231 -141 -363q-136 -127 -360 -127q-223 0 -359 127q-141 132 -141 363zM585 1527q-7 11 1 23l123 199 q5 10 18 10t20.5 -11.5t0.5 -23.5l-125 -196q-6 -12 -19 -12q-12 0 -19 11z" />
<glyph unicode="&#xdb;" horiz-adv-x="1329" d="M164 465v956q0 9 5.5 16t14.5 7q10 0 16.5 -7t6.5 -16v-956q0 -209 126.5 -328t330.5 -119q208 0 333 117t125 330v956q0 9 6 16t15 7q10 0 16 -7t6 -16v-956q0 -231 -141 -363q-136 -127 -360 -127q-223 0 -359 127q-141 132 -141 363zM465 1585q0 11 6 17l172 172 q6 6 14 6q11 0 17 -6l172 -172q6 -6 6 -17q0 -8 -7 -14t-16 -6q-8 0 -14 6l-158 158l-155 -158q-6 -6 -17 -6q-9 0 -14.5 6t-5.5 14z" />
<glyph unicode="&#xdc;" horiz-adv-x="1329" d="M164 465v956q0 9 5.5 16t14.5 7q10 0 16.5 -7t6.5 -16v-956q0 -209 126.5 -328t330.5 -119q208 0 333 117t125 330v956q0 9 6 16t15 7q10 0 16 -7t6 -16v-956q0 -231 -141 -363q-136 -127 -360 -127q-223 0 -359 127q-141 132 -141 363zM438 1634q0 28 20.5 49t49.5 21 t49.5 -21t20.5 -49q0 -29 -20.5 -49t-49.5 -20t-49.5 20t-20.5 49zM752 1634q0 28 20 49t49 21q28 0 49 -21t21 -49q0 -29 -21 -49t-49 -20q-29 0 -49 20t-20 49z" />
<glyph unicode="&#xdd;" horiz-adv-x="1198" d="M41 1423q0 9 8 16t17 7t16 -10l518 -686l516 686q7 10 17 10q9 0 16.5 -7t7.5 -16q0 -5 -6 -14l-530 -704v-682q0 -9 -6 -16t-15 -7q-10 0 -16 7t-6 16v682l-531 704q-6 9 -6 14zM519.5 1527q-7.5 11 0.5 23l123 199q5 10 19 10q13 0 20 -11.5t0 -23.5l-125 -196 q-6 -12 -18 -12t-19.5 11z" />
<glyph unicode="&#xde;" horiz-adv-x="1243" d="M174 23v1398q0 9 6.5 16t16.5 7q9 0 14.5 -7t5.5 -16v-319h522q164 0 271 -107q110 -107 110 -270t-110 -270q-107 -107 -271 -107h-522v-325q0 -9 -5.5 -16t-14.5 -7q-10 0 -16.5 7t-6.5 16zM217 391h522q146 0 241 94.5t95 239.5q0 146 -95 240t-241 94h-522v-668z" />
<glyph unicode="&#xdf;" horiz-adv-x="1107" d="M164 20v1061q0 105 39 190.5t121.5 139t197.5 53.5q169 0 276 -97.5t107 -260.5q0 -162 -104 -258q-54 -54 -131 -78q127 -39 200.5 -136t73.5 -239q0 -173 -115 -282q-117 -111 -307 -111h-157q-9 0 -15 6t-6 15t6 15.5t15 6.5h157q175 1 276 97.5t101 252.5 q0 155 -104.5 249.5t-272.5 103.5q-22 0 -22 20q0 23 22 23q156 0 248 87.5t92 227.5t-91 227t-249 88q-140 0 -227.5 -92.5t-87.5 -247.5v-1061q0 -9 -7 -14.5t-16 -5.5q-8 0 -14 5.5t-6 14.5z" />
<glyph unicode="&#xe0;" d="M123 496q0 224 127 370q132 148 342 148q215 0 344 -148q54 -64 82 -135v223q0 9 6 16t14 7q9 0 16 -7t7 -16v-792q0 -15 3 -33t18.5 -46t41.5 -42q13 -7 13 -18t-11 -19t-22 -2q-86 46 -86 160v100q-53 -132 -162.5 -208.5t-263.5 -76.5q-210 0 -342 148 q-127 142 -127 371zM168 496q0 -213 114.5 -344t309.5 -132q129 1 226 63t148.5 169t51.5 244q0 210 -116 342.5t-310 132.5t-309 -131.5t-115 -343.5zM545 1327q0 9 7.5 16t16.5 7q12 0 19 -11l123 -198q4 -8 4 -13q0 -9 -7.5 -15.5t-15.5 -6.5q-12 0 -18 12l-125 197 q-4 8 -4 12z" />
<glyph unicode="&#xe1;" d="M123 496q0 224 127 370q132 148 342 148q215 0 344 -148q54 -64 82 -135v223q0 9 6 16t14 7q9 0 16 -7t7 -16v-792q0 -15 3 -33t18.5 -46t41.5 -42q13 -7 13 -18t-11 -19t-22 -2q-86 46 -86 160v100q-53 -132 -162.5 -208.5t-263.5 -76.5q-210 0 -342 148 q-127 142 -127 371zM168 496q0 -213 114.5 -344t309.5 -132q129 1 226 63t148.5 169t51.5 244q0 210 -116 342.5t-310 132.5t-309 -131.5t-115 -343.5zM548 1117.5q-7 11.5 1 23.5l123 198q6 11 18 11q13 0 20.5 -11.5t0.5 -23.5l-125 -197q-6 -12 -19 -12q-12 0 -19 11.5z " />
<glyph unicode="&#xe2;" d="M123 496q0 224 127 370q132 148 342 148q215 0 344 -148q54 -64 82 -135v223q0 9 6 16t14 7q9 0 16 -7t7 -16v-792q0 -15 3 -33t18.5 -46t41.5 -42q13 -7 13 -18t-11 -19t-22 -2q-86 46 -86 160v100q-53 -132 -162.5 -208.5t-263.5 -76.5q-210 0 -342 148 q-127 142 -127 371zM168 496q0 -213 114.5 -344t309.5 -132q129 1 226 63t148.5 169t51.5 244q0 210 -116 342.5t-310 132.5t-309 -131.5t-115 -343.5zM418 1176q0 10 6 16l172 172q6 6 14 6q11 0 17 -6l172 -172q6 -6 6 -16q0 -8 -7 -14.5t-16 -6.5q-8 0 -14 6l-158 158 l-155 -158q-6 -6 -17 -6q-9 0 -14.5 6.5t-5.5 14.5z" />
<glyph unicode="&#xe3;" d="M123 496q0 224 127 370q132 148 342 148q215 0 344 -148q54 -64 82 -135v223q0 9 6 16t14 7q9 0 16 -7t7 -16v-792q0 -15 3 -33t18.5 -46t41.5 -42q13 -7 13 -18t-11 -19t-22 -2q-86 46 -86 160v100q-53 -132 -162.5 -208.5t-263.5 -76.5q-210 0 -342 148 q-127 142 -127 371zM168 496q0 -213 114.5 -344t309.5 -132q129 1 226 63t148.5 169t51.5 244q0 210 -116 342.5t-310 132.5t-309 -131.5t-115 -343.5zM377 1223q0 10 4 14q57 72 145 72q65 0 115 -41q39 -29 88 -29q71 0 117 55q6 9 16 9t16.5 -6.5t6.5 -14.5t-6 -14 q-27 -35 -67.5 -54.5t-82.5 -19.5q-67 0 -115 39q-42 31 -88 31q-68 0 -110 -54q-5 -8 -19 -8q-9 0 -14.5 6.5t-5.5 14.5z" />
<glyph unicode="&#xe4;" d="M123 496q0 224 127 370q132 148 342 148q215 0 344 -148q54 -64 82 -135v223q0 9 6 16t14 7q9 0 16 -7t7 -16v-792q0 -15 3 -33t18.5 -46t41.5 -42q13 -7 13 -18t-11 -19t-22 -2q-86 46 -86 160v100q-53 -132 -162.5 -208.5t-263.5 -76.5q-210 0 -342 148 q-127 142 -127 371zM168 496q0 -213 114.5 -344t309.5 -132q129 1 226 63t148.5 169t51.5 244q0 210 -116 342.5t-310 132.5t-309 -131.5t-115 -343.5zM379 1225q0 28 20.5 48.5t49.5 20.5t49 -20.5t20 -48.5q0 -29 -20 -49.5t-49 -20.5t-49.5 20.5t-20.5 49.5zM692 1225 q0 28 20.5 48.5t49.5 20.5q28 0 48.5 -20.5t20.5 -48.5q0 -29 -20.5 -49.5t-48.5 -20.5q-29 0 -49.5 20.5t-20.5 49.5z" />
<glyph unicode="&#xe5;" d="M123 496q0 224 127 370q132 148 342 148q215 0 344 -148q54 -64 82 -135v223q0 9 6 16t14 7q9 0 16 -7t7 -16v-792q0 -15 3 -33t18.5 -46t41.5 -42q13 -7 13 -18t-11 -19t-22 -2q-86 46 -86 160v100q-53 -132 -162.5 -208.5t-263.5 -76.5q-210 0 -342 148 q-127 142 -127 371zM168 496q0 -213 114.5 -344t309.5 -132q129 1 226 63t148.5 169t51.5 244q0 210 -116 342.5t-310 132.5t-309 -131.5t-115 -343.5zM444 1315q0 66 47.5 113t114.5 47q66 0 113 -47t47 -113t-47 -113t-113 -47q-67 0 -114.5 47t-47.5 113zM489 1315 q0 -48 34 -82.5t83 -34.5q47 0 82 35t35 82q0 49 -34.5 83t-82.5 34q-50 0 -83.5 -34t-33.5 -83z" />
<glyph unicode="&#xe6;" horiz-adv-x="2088" d="M123 496q0 224 127 370q132 148 342 148q215 0 344 -148q54 -64 82 -135v223q0 9 6 16t14 7q9 0 16 -7t7 -16v-252q47 143 160.5 227.5t275.5 84.5q145 0 253 -70.5t162 -187t54 -260.5q0 -10 -7 -15.5t-15 -5.5h-871q6 -205 120.5 -330t303.5 -125q122 0 219 59.5 t150 162.5q6 12 18 12t19.5 -9.5t1.5 -23.5q-58 -113 -164 -178.5t-242 -65.5q-163 0 -276.5 85t-161.5 227v-127q0 -15 3 -33t18.5 -46t41.5 -42q13 -7 13 -18t-11 -19t-22 -2q-86 46 -86 160v100q-53 -132 -162.5 -208.5t-263.5 -76.5q-210 0 -342 148q-127 142 -127 371z M168 496q0 -213 114.5 -344t309.5 -132q129 1 226 63t148.5 169t51.5 244q0 210 -116 342.5t-310 132.5t-309 -131.5t-115 -343.5zM1073 518h848q-6 204 -120 328.5t-304 124.5q-188 0 -303 -125.5t-121 -327.5z" />
<glyph unicode="&#xe7;" horiz-adv-x="1095" d="M123 496q0 226 126 372t343 146q133 0 233 -57t160 -160q7 -12 -0.5 -22t-18.5 -10t-18 11q-119 195 -356 195q-194 0 -309 -131.5t-115 -343.5t116 -344t308 -132q124 0 219.5 59.5t149.5 162.5q10 19 28.5 8.5t9.5 -29.5q-57 -108 -156 -171.5t-227 -69.5q3 -6 8 -10 t13 -6.5t14.5 -4.5t19 -4t19.5 -4q49 -11 78 -42t29 -79q-4 -62 -50 -93.5t-114 -31.5q-116 0 -154 78q-7 13 1 23t20 10t18 -13q11 -24 41 -39.5t74 -15.5q59 1 90 24t31 58t-18.5 52t-53.5 26q-63 12 -78 20q-29 15 -35 49q-107 4 -193.5 48t-141 115.5t-83 162.5 t-28.5 193z" />
<glyph unicode="&#xe8;" horiz-adv-x="1183" d="M123 496q0 226 126 372t343 146q145 0 253 -70.5t162 -187t54 -260.5q0 -10 -7.5 -15.5t-15.5 -5.5h-870q6 -205 120.5 -330t303.5 -125q122 0 219 59.5t150 162.5q6 12 18 12t19 -9.5t1 -23.5q-59 -113 -164 -178.5t-241 -65.5q-147 0 -255.5 71.5t-162 187.5t-53.5 260 zM168 518h848q-6 204 -120 328.5t-304 124.5q-188 0 -303 -125.5t-121 -327.5zM506 1327q0 9 7.5 16t16.5 7q12 0 19 -11l123 -198q4 -8 4 -13q0 -9 -7.5 -15.5t-15.5 -6.5q-12 0 -18 12l-125 197q-4 8 -4 12z" />
<glyph unicode="&#xe9;" horiz-adv-x="1183" d="M123 496q0 226 126 372t343 146q145 0 253 -70.5t162 -187t54 -260.5q0 -10 -7.5 -15.5t-15.5 -5.5h-870q6 -205 120.5 -330t303.5 -125q122 0 219 59.5t150 162.5q6 12 18 12t19 -9.5t1 -23.5q-59 -113 -164 -178.5t-241 -65.5q-147 0 -255.5 71.5t-162 187.5t-53.5 260 zM168 518h848q-6 204 -120 328.5t-304 124.5q-188 0 -303 -125.5t-121 -327.5zM511 1117.5q-7 11.5 1 23.5l123 198q5 11 18 11t20.5 -11.5t0.5 -23.5l-125 -197q-6 -12 -19 -12q-12 0 -19 11.5z" />
<glyph unicode="&#xea;" horiz-adv-x="1183" d="M123 496q0 226 126 372t343 146q145 0 253 -70.5t162 -187t54 -260.5q0 -10 -7.5 -15.5t-15.5 -5.5h-870q6 -205 120.5 -330t303.5 -125q122 0 219 59.5t150 162.5q6 12 18 12t19 -9.5t1 -23.5q-59 -113 -164 -178.5t-241 -65.5q-147 0 -255.5 71.5t-162 187.5t-53.5 260 zM168 518h848q-6 204 -120 328.5t-304 124.5q-188 0 -303 -125.5t-121 -327.5zM393 1176q0 10 6 16l172 172q6 6 15 6q10 0 16 -6l172 -172q6 -6 6 -16q0 -8 -6.5 -14.5t-15.5 -6.5t-15 6l-157 158l-156 -158q-6 -6 -16 -6q-9 0 -15 6.5t-6 14.5z" />
<glyph unicode="&#xeb;" horiz-adv-x="1183" d="M123 496q0 226 126 372t343 146q145 0 253 -70.5t162 -187t54 -260.5q0 -10 -7.5 -15.5t-15.5 -5.5h-870q6 -205 120.5 -330t303.5 -125q122 0 219 59.5t150 162.5q6 12 18 12t19 -9.5t1 -23.5q-59 -113 -164 -178.5t-241 -65.5q-147 0 -255.5 71.5t-162 187.5t-53.5 260 zM168 518h848q-6 204 -120 328.5t-304 124.5q-188 0 -303 -125.5t-121 -327.5zM367 1225q0 28 20 48.5t49 20.5t49.5 -20.5t20.5 -48.5q0 -29 -20.5 -49.5t-49.5 -20.5t-49 20.5t-20 49.5zM680 1225q0 28 20.5 48.5t49.5 20.5q28 0 48.5 -20.5t20.5 -48.5q0 -29 -20.5 -49.5 t-48.5 -20.5q-29 0 -49.5 20.5t-20.5 49.5z" />
<glyph unicode="&#xec;" horiz-adv-x="446" d="M92 1327q0 9 8 16t17 7q11 0 18 -11l123 -198q4 -8 4 -13q0 -9 -7 -15.5t-15 -6.5q-13 0 -19 12l-125 197q-4 8 -4 12zM201 23v931q0 9 6.5 16t15.5 7t16 -7t7 -16v-931q0 -9 -7 -16t-16 -7t-15.5 7t-6.5 16z" />
<glyph unicode="&#xed;" horiz-adv-x="446" d="M201 23v931q0 9 6.5 16t15.5 7t16 -7t7 -16v-931q0 -9 -7 -16t-16 -7t-15.5 7t-6.5 16zM216.5 1117.5q-7.5 11.5 0.5 23.5l123 198q6 11 18 11q13 0 20.5 -11.5t0.5 -23.5l-125 -197q-6 -12 -18 -12t-19.5 11.5z" />
<glyph unicode="&#xee;" horiz-adv-x="446" d="M35 1176q0 10 6 16l172 172q6 6 14 6q11 0 17 -6l172 -172q6 -6 6 -16q0 -8 -7 -14.5t-16 -6.5q-8 0 -14 6l-158 158l-155 -158q-6 -6 -17 -6q-9 0 -14.5 6.5t-5.5 14.5zM201 23v931q0 9 6.5 16t15.5 7t16 -7t7 -16v-931q0 -9 -7 -16t-16 -7t-15.5 7t-6.5 16z" />
<glyph unicode="&#xef;" horiz-adv-x="446" d="M8 1225q0 28 20.5 48.5t49.5 20.5t49 -20.5t20 -48.5q0 -29 -20 -49.5t-49 -20.5t-49.5 20.5t-20.5 49.5zM201 23v931q0 9 6.5 16t15.5 7t16 -7t7 -16v-931q0 -9 -7 -16t-16 -7t-15.5 7t-6.5 16zM322 1225q0 28 20 48.5t49 20.5q28 0 49 -20.5t21 -48.5q0 -29 -21 -49.5 t-49 -20.5q-29 0 -49 20.5t-20 49.5z" />
<glyph unicode="&#xf0;" horiz-adv-x="1116" d="M123 485q0 212 117 344q122 138 319 138q114 0 207 -51t154 -144q-60 246 -207 402l-142 -78q-13 -6 -22.5 1.5t-9.5 18.5q0 13 12 19l129 71q-154 148 -365 191q-20 3 -20 22q0 10 8 17t21 4q230 -46 397 -213l172 94q13 7 23 -1t10 -20t-13 -18l-161 -88 q241 -266 241 -709q0 -103 -27 -193t-79.5 -159.5t-137.5 -110t-192 -40.5q-205 0 -319.5 142t-114.5 361zM166 485q0 -204 102 -332t291 -128q124 0 214 62t133.5 164.5t43.5 233.5q0 197 -105.5 317.5t-285.5 121.5q-179 0 -286 -122t-107 -317z" />
<glyph unicode="&#xf1;" horiz-adv-x="1163" d="M143 954q0 12 10 20t23 1q29 -16 48 -40t26 -49.5t9.5 -41t2.5 -29.5v-22q19 45 64 100q111 127 295 127q181 0 292 -127q107 -119 107 -318v-552q0 -9 -6 -16t-15 -7t-15.5 7t-6.5 16v552q0 180 -96.5 291t-259.5 111t-261 -111t-98 -288v-555q0 -7 -2 -11 q-4 -12 -20 -12q-15 0 -19 12q-2 4 -2 11v792q0 16 -2.5 33.5t-18 45.5t-42.5 42q-13 6 -13 18zM367 1223q0 10 4 14q57 72 145 72q65 0 115 -41q39 -29 88 -29q71 0 117 55q6 9 16 9t16 -6.5t6 -14.5t-6 -14q-27 -35 -67 -54.5t-82 -19.5q-67 0 -115 39q-42 31 -88 31 q-68 0 -110 -54q-5 -8 -19 -8q-9 0 -14.5 6.5t-5.5 14.5z" />
<glyph unicode="&#xf2;" horiz-adv-x="1181" d="M123 496q0 148 53.5 264t160.5 185t253 69q218 0 343.5 -145.5t125.5 -372.5q0 -148 -54 -264.5t-161.5 -185.5t-253.5 -69t-253 69t-160.5 185.5t-53.5 264.5zM166 496q2 -208 116.5 -342t307.5 -134t309.5 134t116.5 342t-116.5 341.5t-309.5 133.5t-309.5 -134 t-114.5 -341zM506 1327q0 9 7.5 16t16.5 7q12 0 19 -11l123 -198q4 -8 4 -13q0 -9 -7.5 -15.5t-15.5 -6.5q-12 0 -18 12l-125 197q-4 8 -4 12z" />
<glyph unicode="&#xf3;" horiz-adv-x="1181" d="M123 496q0 148 53.5 264t160.5 185t253 69q218 0 343.5 -145.5t125.5 -372.5q0 -148 -54 -264.5t-161.5 -185.5t-253.5 -69t-253 69t-160.5 185.5t-53.5 264.5zM166 496q2 -208 116.5 -342t307.5 -134t309.5 134t116.5 342t-116.5 341.5t-309.5 133.5t-309.5 -134 t-114.5 -341zM511 1117.5q-7 11.5 1 23.5l123 198q5 11 18 11t20.5 -11.5t0.5 -23.5l-125 -197q-6 -12 -19 -12q-12 0 -19 11.5z" />
<glyph unicode="&#xf4;" horiz-adv-x="1181" d="M123 496q0 148 53.5 264t160.5 185t253 69q218 0 343.5 -145.5t125.5 -372.5q0 -148 -54 -264.5t-161.5 -185.5t-253.5 -69t-253 69t-160.5 185.5t-53.5 264.5zM166 496q2 -208 116.5 -342t307.5 -134t309.5 134t116.5 342t-116.5 341.5t-309.5 133.5t-309.5 -134 t-114.5 -341zM391 1176q0 10 6 16l172 172q6 6 15 6q10 0 16 -6l172 -172q6 -6 6 -16q0 -8 -6.5 -14.5t-15.5 -6.5t-15 6l-157 158l-156 -158q-6 -6 -16 -6q-9 0 -15 6.5t-6 14.5z" />
<glyph unicode="&#xf5;" horiz-adv-x="1181" d="M123 496q0 148 53.5 264t160.5 185t253 69q218 0 343.5 -145.5t125.5 -372.5q0 -148 -54 -264.5t-161.5 -185.5t-253.5 -69t-253 69t-160.5 185.5t-53.5 264.5zM166 496q2 -208 116.5 -342t307.5 -134t309.5 134t116.5 342t-116.5 341.5t-309.5 133.5t-309.5 -134 t-114.5 -341zM338 1223q0 10 4 14q57 72 145 72q65 0 115 -41q39 -29 88 -29q71 0 117 55q6 9 16 9t16.5 -6.5t6.5 -14.5t-6 -14q-27 -35 -67.5 -54.5t-82.5 -19.5q-67 0 -115 39q-42 31 -88 31q-68 0 -110 -54q-5 -8 -19 -8q-9 0 -14.5 6.5t-5.5 14.5z" />
<glyph unicode="&#xf6;" horiz-adv-x="1181" d="M123 496q0 148 53.5 264t160.5 185t253 69q218 0 343.5 -145.5t125.5 -372.5q0 -148 -54 -264.5t-161.5 -185.5t-253.5 -69t-253 69t-160.5 185.5t-53.5 264.5zM166 496q2 -208 116.5 -342t307.5 -134t309.5 134t116.5 342t-116.5 341.5t-309.5 133.5t-309.5 -134 t-114.5 -341zM365 1225q0 28 20 48.5t49 20.5t49.5 -20.5t20.5 -48.5q0 -29 -20.5 -49.5t-49.5 -20.5t-49 20.5t-20 49.5zM678 1225q0 28 20.5 48.5t49.5 20.5q28 0 48.5 -20.5t20.5 -48.5q0 -29 -20.5 -49.5t-48.5 -20.5q-29 0 -49.5 20.5t-20.5 49.5z" />
<glyph unicode="&#xf7;" horiz-adv-x="1308" d="M164 487q0 9 6 16t16 7h934q10 0 16.5 -7t6.5 -16q0 -8 -6.5 -14t-16.5 -6h-934q-10 0 -16 6t-6 14zM586 113q0 29 19.5 49t47.5 20q29 0 49.5 -20t20.5 -49t-20.5 -49.5t-49.5 -20.5q-28 0 -47.5 20.5t-19.5 49.5zM586 866q0 28 19.5 48t47.5 20q29 0 49.5 -20t20.5 -48 q0 -29 -20.5 -49t-49.5 -20q-28 0 -47.5 20t-19.5 49z" />
<glyph unicode="&#xf8;" horiz-adv-x="1181" d="M123 496q0 148 53.5 264t160.5 185t253 69q192 0 321 -123l107 117q8 8 16 8q9 0 16 -7t7 -16q0 -8 -6 -14l-111 -121q119 -140 119 -362q0 -148 -54 -264.5t-161.5 -185.5t-253.5 -69q-208 0 -332 134l-94 -103q-8 -8 -17 -8q-20 0 -20 20q0 11 6 17l96 106 q-106 136 -106 353zM166 496q0 -189 96 -318l619 678q-118 115 -291 115q-193 0 -309.5 -134t-114.5 -341zM289 145q116 -125 301 -125q193 0 309.5 134t116.5 342q0 201 -107 329z" />
<glyph unicode="&#xf9;" horiz-adv-x="1107" d="M143 420v536q0 9 6 16t15 7t15.5 -7t6.5 -16v-536q0 -180 97 -291t260 -111q162 0 260 111.5t98 288.5v538q0 10 6.5 16.5t14.5 6.5t15 -6.5t7 -16.5v-933q0 -10 -6 -16.5t-14 -6.5t-15.5 6.5t-7.5 16.5v180q-47 -105 -141.5 -166.5t-216.5 -61.5q-182 0 -293 127 q-107 119 -107 318zM459 1327q0 9 7.5 16t16.5 7q12 0 19 -11l123 -198q4 -8 4 -13q0 -9 -7.5 -15.5t-15.5 -6.5q-12 0 -18 12l-125 197q-4 8 -4 12z" />
<glyph unicode="&#xfa;" horiz-adv-x="1107" d="M143 420v536q0 9 6 16t15 7t15.5 -7t6.5 -16v-536q0 -180 97 -291t260 -111q162 0 260 111.5t98 288.5v538q0 10 6.5 16.5t14.5 6.5t15 -6.5t7 -16.5v-933q0 -10 -6 -16.5t-14 -6.5t-15.5 6.5t-7.5 16.5v180q-47 -105 -141.5 -166.5t-216.5 -61.5q-182 0 -293 127 q-107 119 -107 318zM515.5 1117.5q-7.5 11.5 0.5 23.5l123 198q5 11 18 11t20.5 -11.5t0.5 -23.5l-125 -197q-6 -12 -18 -12t-19.5 11.5z" />
<glyph unicode="&#xfb;" horiz-adv-x="1107" d="M143 420v536q0 9 6 16t15 7t15.5 -7t6.5 -16v-536q0 -180 97 -291t260 -111q162 0 260 111.5t98 288.5v538q0 10 6.5 16.5t14.5 6.5t15 -6.5t7 -16.5v-933q0 -10 -6 -16.5t-14 -6.5t-15.5 6.5t-7.5 16.5v180q-47 -105 -141.5 -166.5t-216.5 -61.5q-182 0 -293 127 q-107 119 -107 318zM344 1176q0 10 6 16l172 172q6 6 15 6q10 0 16 -6l172 -172q6 -6 6 -16q0 -8 -6.5 -14.5t-15.5 -6.5t-15 6l-157 158l-156 -158q-6 -6 -16 -6q-9 0 -15 6.5t-6 14.5z" />
<glyph unicode="&#xfc;" horiz-adv-x="1107" d="M143 420v536q0 9 6 16t15 7t15.5 -7t6.5 -16v-536q0 -180 97 -291t260 -111q162 0 260 111.5t98 288.5v538q0 10 6.5 16.5t14.5 6.5t15 -6.5t7 -16.5v-933q0 -10 -6 -16.5t-14 -6.5t-15.5 6.5t-7.5 16.5v180q-47 -105 -141.5 -166.5t-216.5 -61.5q-182 0 -293 127 q-107 119 -107 318zM317 1225q0 28 20.5 48.5t49.5 20.5t49.5 -20.5t20.5 -48.5q0 -29 -20.5 -49.5t-49.5 -20.5t-49.5 20.5t-20.5 49.5zM631 1225q0 28 20 48.5t49 20.5q28 0 49 -20.5t21 -48.5q0 -29 -21 -49.5t-49 -20.5q-29 0 -49 20.5t-20 49.5z" />
<glyph unicode="&#xfd;" horiz-adv-x="1103" d="M66 944q-7 12 0 22.5t20 10.5q11 0 20 -12l447 -822l444 822q8 14 23 14q9 0 15.5 -7t6.5 -16q0 -4 -4 -12q-368 -676 -655 -1210q-11 -20 -20 -33t-28.5 -33t-48 -30.5t-65.5 -10.5q-11 0 -17.5 7.5t-6.5 15.5q0 22 22 22q79 0 115 70l192 356zM525.5 1117.5 q-7.5 11.5 0.5 23.5l123 198q5 11 19 11q13 0 20 -11.5t0 -23.5l-125 -197q-6 -12 -18 -12t-19.5 11.5z" />
<glyph unicode="&#xfe;" horiz-adv-x="1222" d="M164 -430v1851q0 21 20 21q9 0 16 -6t7 -15v-692q32 81 82 137q132 148 344 148q144 0 251.5 -70t161.5 -186.5t54 -261.5q0 -140 -51.5 -256t-159.5 -189.5t-256 -73.5q-212 0 -344 148q-52 58 -82 135v-690q0 -9 -7 -16t-16 -7t-14.5 7t-5.5 16zM207 496 q0 -210 116 -342.5t310 -133.5q192 1 308 135t116 341q0 210 -115.5 342.5t-308.5 132.5q-194 0 -310 -133t-116 -342z" />
<glyph unicode="&#xff;" horiz-adv-x="1103" d="M66 944q-7 12 0 22.5t20 10.5q11 0 20 -12l447 -822l444 822q8 14 23 14q9 0 15.5 -7t6.5 -16q0 -4 -4 -12q-368 -676 -655 -1210q-11 -20 -20 -33t-28.5 -33t-48 -30.5t-65.5 -10.5q-11 0 -17.5 7.5t-6.5 15.5q0 22 22 22q79 0 115 70l192 356zM330 1225q0 28 20 48.5 t49 20.5t49.5 -20.5t20.5 -48.5q0 -29 -20.5 -49.5t-49.5 -20.5t-49 20.5t-20 49.5zM643 1225q0 28 20.5 48.5t49.5 20.5q28 0 48.5 -20.5t20.5 -48.5q0 -29 -20.5 -49.5t-48.5 -20.5q-29 0 -49.5 20.5t-20.5 49.5z" />
<glyph unicode="&#x152;" horiz-adv-x="2312" d="M133 721q0 370 148 563q142 182 405 182q264 0 406 -182q65 -87 102 -207v344q0 9 6 15q8 8 17 8h925q9 0 16 -7t7 -16t-7 -15.5t-16 -6.5h-905v-586q0 -7 1 -22.5t1 -22.5h696q9 0 16 -7t7 -16t-7 -15.5t-16 -6.5h-696v-2q0 -61 -2 -92v-586h930q9 0 15.5 -7t6.5 -16 t-6.5 -14.5t-15.5 -5.5h-950q-11 0 -17 6t-6 14v345q-37 -122 -102 -205q-143 -183 -404 -183q-264 0 -407 183q-148 190 -148 561zM176 721q0 -357 139 -535q127 -163 371 -163t371 163q119 154 137 445v178q-17 294 -137 448q-129 166 -371 166t-371 -166 q-139 -178 -139 -536z" />
<glyph unicode="&#x153;" horiz-adv-x="2078" d="M123 496q0 148 53.5 264t160.5 185t253 69q175 0 291 -95.5t157 -256.5q41 160 158 256t291 96q145 0 253 -70.5t162 -187t54 -260.5q0 -10 -7 -15.5t-16 -5.5h-870q6 -205 120.5 -330t303.5 -125q122 0 218 59.5t150 162.5q6 12 19 12q12 0 19 -9.5t1 -23.5 q-59 -113 -164 -178.5t-241 -65.5q-176 0 -293 96.5t-158 256.5q-41 -162 -157 -257.5t-291 -95.5q-146 0 -253 69t-160.5 185.5t-53.5 264.5zM166 496q2 -208 116.5 -342t307.5 -134t309.5 134t116.5 342t-116.5 341.5t-309.5 133.5t-309.5 -134t-114.5 -341zM1063 518h848 q-6 204 -120 328.5t-304 124.5q-188 0 -303 -125.5t-121 -327.5z" />
<glyph unicode="&#x178;" horiz-adv-x="1198" d="M41 1423q0 9 8 16t17 7t16 -10l518 -686l516 686q7 10 17 10q9 0 16.5 -7t7.5 -16q0 -5 -6 -14l-530 -704v-682q0 -9 -6 -16t-15 -7q-10 0 -16 7t-6 16v682l-531 704q-6 9 -6 14zM373 1634q0 28 20 49t49 21t49.5 -21t20.5 -49q0 -29 -20.5 -49t-49.5 -20t-49 20t-20 49z M686 1634q0 28 20.5 49t49.5 21q28 0 48.5 -21t20.5 -49q0 -29 -20.5 -49t-48.5 -20q-29 0 -49.5 20t-20.5 49z" />
<glyph unicode="&#x2c6;" horiz-adv-x="1265" d="M451 1176q0 10 6 16l172 172q6 6 14 6q10 0 16 -6l172 -172q7 -7 7 -16q0 -8 -7 -14.5t-16 -6.5q-8 0 -14 6l-158 158l-156 -158q-6 -6 -16 -6q-9 0 -14.5 6.5t-5.5 14.5z" />
<glyph unicode="&#x2dc;" horiz-adv-x="1202" d="M369 1223q0 10 4 14q57 72 145 72q65 0 115 -41q39 -29 88 -29q71 0 117 55q6 9 16 9t16.5 -6.5t6.5 -14.5q0 -7 -7 -14q-27 -35 -67 -54.5t-82 -19.5q-67 0 -115 39q-42 31 -88 31q-68 0 -110 -54q-5 -8 -19 -8q-9 0 -14.5 6.5t-5.5 14.5z" />
<glyph unicode="&#x2000;" horiz-adv-x="942" />
<glyph unicode="&#x2001;" horiz-adv-x="1884" />
<glyph unicode="&#x2002;" horiz-adv-x="942" />
<glyph unicode="&#x2003;" horiz-adv-x="1884" />
<glyph unicode="&#x2004;" horiz-adv-x="628" />
<glyph unicode="&#x2005;" horiz-adv-x="471" />
<glyph unicode="&#x2006;" horiz-adv-x="314" />
<glyph unicode="&#x2007;" horiz-adv-x="314" />
<glyph unicode="&#x2008;" horiz-adv-x="235" />
<glyph unicode="&#x2009;" horiz-adv-x="376" />
<glyph unicode="&#x200a;" horiz-adv-x="104" />
<glyph unicode="&#x2010;" horiz-adv-x="1075" d="M164 487q0 23 24 23h699q10 0 16 -7t6 -16q0 -8 -6 -14t-16 -6h-699q-24 0 -24 20z" />
<glyph unicode="&#x2011;" horiz-adv-x="1075" d="M164 487q0 23 24 23h699q10 0 16 -7t6 -16q0 -8 -6 -14t-16 -6h-699q-24 0 -24 20z" />
<glyph unicode="&#x2012;" horiz-adv-x="1075" d="M164 487q0 23 24 23h699q10 0 16 -7t6 -16q0 -8 -6 -14t-16 -6h-699q-24 0 -24 20z" />
<glyph unicode="&#x2013;" horiz-adv-x="1218" d="M164 487q0 23 24 23h842q10 0 16.5 -7t6.5 -16q0 -8 -6.5 -14t-16.5 -6h-842q-24 0 -24 20z" />
<glyph unicode="&#x2014;" horiz-adv-x="1667" d="M164 487q0 23 24 23h1291q10 0 16 -7t6 -16q0 -8 -6 -14t-16 -6h-1291q-24 0 -24 20z" />
<glyph unicode="&#x2018;" horiz-adv-x="368" d="M164 1001v422q0 9 6.5 15t15.5 6t15 -6t6 -15v-422q0 -9 -7 -15.5t-16 -6.5t-14.5 6.5t-5.5 15.5z" />
<glyph unicode="&#x2019;" horiz-adv-x="370" d="M164 1001v422q0 9 6.5 15t15.5 6t15 -6t6 -15v-422q0 -9 -7 -15.5t-16 -6.5t-14.5 6.5t-5.5 15.5z" />
<glyph unicode="&#x201a;" horiz-adv-x="370" d="M164 139q0 9 6.5 15t15.5 6t15 -6t6 -15v-422q0 -9 -7 -15.5t-16 -6.5t-14.5 6.5t-5.5 15.5v422z" />
<glyph unicode="&#x201c;" horiz-adv-x="544" d="M164 1001v422q0 9 6.5 15t15.5 6t15 -6t6 -15v-422q0 -9 -7 -15.5t-16 -6.5t-14.5 6.5t-5.5 15.5zM338 1001v422q0 9 6.5 15t15.5 6t15 -6t6 -15v-422q0 -9 -7 -15.5t-16 -6.5t-14.5 6.5t-5.5 15.5z" />
<glyph unicode="&#x201d;" horiz-adv-x="544" d="M164 1001v422q0 9 6.5 15t15.5 6t15 -6t6 -15v-422q0 -9 -7 -15.5t-16 -6.5t-14.5 6.5t-5.5 15.5zM338 1001v422q0 9 6.5 15t15.5 6t15 -6t6 -15v-422q0 -9 -7 -15.5t-16 -6.5t-14.5 6.5t-5.5 15.5z" />
<glyph unicode="&#x201e;" horiz-adv-x="544" d="M164 139q0 9 6.5 15t15.5 6t15 -6t6 -15v-422q0 -9 -7 -15.5t-16 -6.5t-14.5 6.5t-5.5 15.5v422zM338 139q0 9 6.5 15t15.5 6t15 -6t6 -15v-422q0 -9 -7 -15.5t-16 -6.5t-14.5 6.5t-5.5 15.5v422z" />
<glyph unicode="&#x2022;" horiz-adv-x="729" d="M164 723q0 83 59 141t142 58t141.5 -58t58.5 -141t-58.5 -142t-141.5 -59t-142 59t-59 142z" />
<glyph unicode="&#x2026;" horiz-adv-x="1263" d="M164 70q0 29 20 49t49 20q28 0 48 -20t20 -49q0 -28 -20 -49t-48 -21q-29 0 -49 21t-20 49zM563 70q0 29 20.5 49t49.5 20q28 0 47.5 -20t19.5 -49q0 -28 -20 -49t-47 -21q-29 0 -49.5 21t-20.5 49zM963 70q0 29 20 49t49 20q28 0 48 -20t20 -49q0 -28 -20 -49t-48 -21 q-29 0 -49 21t-20 49z" />
<glyph unicode="&#x202f;" horiz-adv-x="376" />
<glyph unicode="&#x2039;" horiz-adv-x="651" d="M152 477q0 9 8 17l289 286q6 6 14 6q9 0 15.5 -6.5t6.5 -15.5q0 -8 -6 -14l-272 -273l272 -272q8 -8 8 -17t-6.5 -15.5t-15.5 -6.5q-8 0 -16 8l-289 289q-8 8 -8 14z" />
<glyph unicode="&#x203a;" horiz-adv-x="663" d="M164 188q0 9 8 17l272 272l-272 273q-6 6 -6 14q0 9 6 15.5t14 6.5q11 0 17 -6l289 -286q6 -6 6 -17q0 -8 -6 -14l-289 -289q-8 -8 -17 -8t-15.5 6.5t-6.5 15.5z" />
<glyph unicode="&#x205f;" horiz-adv-x="471" />
<glyph unicode="&#x20ac;" horiz-adv-x="1282" d="M164 657q0 8 6.5 14.5t15.5 6.5h119q0 7 -1 22t-1 23q0 7 1 21.5t1 21.5h-119q-9 0 -15.5 6.5t-6.5 15.5q0 8 6.5 14.5t15.5 6.5h125q21 143 109 240q120 129 317 129q120 0 214.5 -50.5t150.5 -140.5q7 -13 -0.5 -24t-18.5 -11q-10 0 -20 13q-108 170 -326 170 q-156 -1 -257 -89t-126 -237h441q9 0 15.5 -6.5t6.5 -14.5q0 -9 -6.5 -15.5t-15.5 -6.5h-445q-2 -14 -2 -43q0 -31 2 -45h445q9 0 15.5 -6.5t6.5 -14.5q0 -9 -6.5 -15.5t-15.5 -6.5h-441q25 -149 126 -237.5t257 -88.5q116 0 203 51t135 142q6 12 19 12q11 0 19 -11t1 -22 q-53 -101 -152 -158t-225 -57q-197 0 -317 129q-88 97 -109 240h-125q-9 0 -15.5 6.5t-6.5 15.5z" />
<glyph unicode="&#x2122;" horiz-adv-x="1544" d="M143 1427q0 9 6 16t15 7h487q9 0 15 -7t6 -16t-6 -15.5t-15 -6.5h-221v-688q0 -9 -6.5 -16t-15.5 -7t-16 7t-7 16v688h-221q-7 0 -14 7t-7 15zM766 717v710q0 9 6.5 16t15.5 7t17 -8l268 -334l268 334q4 8 15 8q10 0 17 -7t7 -16v-710q0 -9 -6.5 -16t-15.5 -7t-16 7 t-7 16v649l-245 -307q-5 -8 -17 -8q-11 0 -16 8l-246 307v-649q0 -9 -7 -16t-16 -7t-15.5 7t-6.5 16z" />
<glyph unicode="&#x25fc;" horiz-adv-x="983" d="M0 0v983h983v-983h-983z" />
<glyph unicode="&#xfb02;" horiz-adv-x="1130" d="M61 954q0 8 6.5 15.5t16.5 7.5h147v156q0 141 90.5 226t233.5 85h332q10 0 17 -8t7 -19v-1255q0 -10 2 -23t8 -32.5t20 -37.5t34 -28q12 -6 12 -18q0 -11 -11 -19t-22 -2q-86 46 -86 160v1237h-313q-133 0 -205 -72.5t-74 -193.5v-156h299q10 0 15.5 -7.5t5.5 -15.5 q0 -20 -21 -20h-299v-914q0 -9 -6.5 -14.5t-15.5 -5.5t-16 5.5t-7 14.5v914h-147q-10 0 -16.5 6t-6.5 14z" />
</font>
</defs>
</svg>
